<svg viewBox="0 0 62.76 69.87" xmlns="http://www.w3.org/2000/svg"><path d="m62.31 33.39a.17.17 0 0 0 0-.23.15.15 0 0 1 0-.18.33.33 0 0 0 0-.37c.1-.24-.11-.48 0-.71s-.08-.48.1-.69a.08.08 0 0 0 0-.12c-.11 0-.13-.13-.17-.22a1.6 1.6 0 0 1 -.1-.72 9 9 0 0 0 0-1.38.65.65 0 0 0 -.06-.29 1.25 1.25 0 0 1 -.11-1 4.81 4.81 0 0 0 .11-.92c0-.31 0-.66-.31-.89a.44.44 0 0 1 -.15-.3c0-.1.08-.14.13-.2s.12-.27 0-.36a.44.44 0 0 1 -.17-.42 1.42 1.42 0 0 0 -.21-.65 10.68 10.68 0 0 1 -.89-1.87s0-.1-.09-.09c-.26 0-.31-.22-.37-.38-.13-.34-.24-.69-.36-1a4.83 4.83 0 0 0 -.66-1.27 1.25 1.25 0 0 0 -.08-.12c-.13-.1-.09-.29-.22-.38-.39-.51-.76-1-1.16-1.53a1.47 1.47 0 0 1 -.44-.75 1 1 0 0 0 -.2-.39 9.36 9.36 0 0 0 -1.1-1.33l-.66-.74a.56.56 0 0 1 -.19-.33.67.67 0 0 0 -.24-.47c-.27-.27-.52-.55-.78-.83a1.8 1.8 0 0 1 -.26-.29 3.87 3.87 0 0 0 -1.19-1.09c-.26-.17-.57-.28-.69-.6a.16.16 0 0 0 -.07-.07 6.88 6.88 0 0 0 -2.3-1.66c-.17-.08-.32-.15-.38-.35s-.13-.14-.21-.2l-.83-.64a13.45 13.45 0 0 0 -1.93-1.28l-3.2-1.65a3.89 3.89 0 0 0 -1.14-.43 8.09 8.09 0 0 0 -.86-.12 1.17 1.17 0 0 1 -.57-.13c-.18-.13-.35 0-.52-.07a1.43 1.43 0 0 0 -.49.12.63.63 0 0 1 -.61 0l-.62-.3c-.13-.07-.24-.17-.41-.1s-.14-.05-.17-.13 0-.13-.12-.14-.08.08-.1.13a.18.18 0 0 1 -.16.1c-.18 0-.4-.07-.53.15 0 0-.07 0-.09 0s-.36-.08-.51-.17a.3.3 0 0 0 -.36 0 .38.38 0 0 1 -.49 0 1.19 1.19 0 0 0 -.48-.16c-.12 0-.28 0-.32.15a.09.09 0 0 1 -.15.07.73.73 0 0 0 -.51-.13.84.84 0 0 1 -.74-.07s-.13 0-.19 0-.14 0-.19 0a1.81 1.81 0 0 0 -.73-.08 2.15 2.15 0 0 0 -.76 0 .61.61 0 0 1 -.42-.08 1.33 1.33 0 0 0 -.58-.19c-.24 0-.49-.17-.72-.09s-.44-.15-.67-.18c-.05 0-.1 0-.15 0a1.42 1.42 0 0 1 -.51-.05c-.18-.11-.35 0-.52-.08a4.54 4.54 0 0 0 -.48-.12.13.13 0 0 0 -.09 0c-.16.13-.35.08-.52.1s-.49.13-.72 0c-.22 0-.46-.08-.66.09a.47.47 0 0 1 -.38.09c-.07 0-.12 0-.08-.12s.07-.09 0-.12a.15.15 0 0 0 -.13 0 3.13 3.13 0 0 1 -.72.33 2.82 2.82 0 0 1 -.89.21.32.32 0 0 1 .19.09.83.83 0 0 0 .16.09 2.06 2.06 0 0 1 -.53.33.14.14 0 0 1 -.18-.2l.14-.22a.34.34 0 0 1 .21-.1 1 1 0 0 1 -.33-.06h-.1c-.4.09-.8.18-1.2.31a.72.72 0 0 0 .54-.1.28.28 0 0 1 .39.06.7.7 0 0 1 -.51.34.58.58 0 0 0 -.31.13.53.53 0 0 1 -.37.1c-.09 0-.18.11-.28 0a.66.66 0 0 1 -.14 0l-.35.11a3.83 3.83 0 0 0 .23.75.4.4 0 0 0 .25.21.66.66 0 0 1 .88-.17 1 1 0 0 1 .41.63 1 1 0 0 0 .69.79h.08a.79.79 0 0 1 .22-.06c.17-.25.17-.24.35 0a1.49 1.49 0 0 0 .14.12v.19a.35.35 0 0 1 0 .4l-.12.15a.57.57 0 0 1 0 .13 1.4 1.4 0 0 0 0 .61.15.15 0 0 1 0 .07.2.2 0 0 0 .06.12l-.1.06s0 0-.06 0c.27.15.25.41.27.67a.89.89 0 0 1 -.52.21.3.3 0 0 0 -.26.23v.07a.62.62 0 0 1 -.24.24c-.24.18-.23.21 0 .39a2 2 0 0 1 .21.2.13.13 0 0 1 0 .21c-.15.09-.18.18 0 .3a.11.11 0 0 1 0 .17.25.25 0 0 1 -.35 0 1 1 0 0 1 -.08-.18c-.09-.19-.09-.19-.28-.19a2.54 2.54 0 0 1 -.39 0c-.2 0-.23 0-.25-.28s-.08-.28-.26-.3l-.12.08-.08.05c-.32.11-.41.06-.39-.24a.43.43 0 0 0 -.23-.42c-.1-.09-.05-.2 0-.3l.1-.09c.17-.11.39-.16.42-.42s.12-.15.22-.13a1.66 1.66 0 0 1 .94.45l.12.09c.14.07.16.06.21-.08s.1-.29.45-.29l.1-.1a.5.5 0 0 1 .2-.39 1.18 1.18 0 0 1 -.14-.8.32.32 0 0 0 -.15-.33.84.84 0 0 0 -.35-.18c-.2 0-.32 0-.39.18s-.06.22-.11.32a.66.66 0 0 1 -.5.34c-.16 0-.23-.16-.31-.28a.44.44 0 0 0 -.5-.3h-.14a.34.34 0 0 1 -.33-.25c0-.08-.06-.15-.08-.23a.52.52 0 0 1 .23-.5.42.42 0 0 1 .56.12l.09.1a.11.11 0 0 0 .16-.1.37.37 0 0 0 0-.18 4.43 4.43 0 0 0 -.2-.45 1 1 0 0 0 -.48 0 .22.22 0 0 1 -.31-.2 1.72 1.72 0 0 1 0-.64.44.44 0 0 0 -.1-.41c-.06-.07-.13-.1-.21 0s-.14.18-.24.15a.54.54 0 0 1 -.18-.1 6.6 6.6 0 0 0 -.63.2.6.6 0 0 1 -.33.16l.06-.07c-.73.27-1.43.59-2.13.92a9 9 0 0 0 -1.56.83c-.42.3-.86.55-1.29.83l-.23.13a.27.27 0 0 0 -.13.19c-.09.34-.19.42-.53.37a.64.64 0 0 0 -.34 0 5.21 5.21 0 0 0 -.52.28 10.15 10.15 0 0 1 -1.12.61.61.61 0 0 0 -.24.18 5.77 5.77 0 0 1 -.68.63 1.68 1.68 0 0 0 -.61.74s-.06.09-.11.07c-.28-.08-.42.13-.59.28-.48.45-.87 1-1.39 1.4a1.52 1.52 0 0 0 -.26.35c-.11.16-.22.32-.32.49a.14.14 0 0 1 -.13.06c-.14 0-.14 0-.15.16a.27.27 0 0 1 -.29.27c-.1 0-.19 0-.2.17s-.12.37-.36.38a.09.09 0 0 0 -.09.1v.19c-.2.25-.28.6-.6.76a.21.21 0 0 0 -.11.32.1.1 0 0 1 -.09.14c-.29 0-.48.19-.69.33a.9.9 0 0 0 -.46.72.41.41 0 0 1 -.05.19c-.2.25-.24.57-.42.83a1.63 1.63 0 0 0 -.23.54c0 .19-.32.21-.42.39s-.35.56-.51.85a.54.54 0 0 0 0 .19 1.64 1.64 0 0 1 .31.48c.23.41.84.57.77 1.18 0 .38.42.7.19 1.12-.07.2-.28.37-.2.62v.14a.61.61 0 0 0 0 .19c.06.44 0 .46-.38.33-.24-.08-.5-.14-.55.24 0 .17-.18.22-.3.3s-.49.19-.32.52c.28.13.46.38.78.5s.79.36.59.91l-.1.09c-.23.24 0 .78-.56.82v.18a12.76 12.76 0 0 1 0 2.05c-.05.15-.24.16-.29.3l-.08.12a.34.34 0 0 0 0 .22s0 .1 0 .14a.77.77 0 0 0 0 .15.44.44 0 0 0 .08.11c.32.19.16.39 0 .6s-.08.17 0 .26v.1a.2.2 0 0 1 0 .2.7.7 0 0 1 -.14.48v.09a1.62 1.62 0 0 0 0 .22l.21.08a.36.36 0 0 1 .14.62l-.16.18c-.06.06-.11.13-.08.21a.88.88 0 0 0 .12.15c0-.32.27-.4.53-.47a.19.19 0 0 1 .26.13c.07.13.11.13.22 0l.59-.57a2.1 2.1 0 0 0 .5-1 .37.37 0 0 1 .07-.12.13.13 0 0 1 .09-.05.72.72 0 0 0 -.18-.37c-.1-.08-.18-.13-.29 0s-.17 0-.21-.09l-.56-.19c-.07 0-.18 0-.16-.13s.11 0 .16-.08.07-.13 0-.21-.16-.13-.13-.25a.31.31 0 0 1 .27-.18 1.23 1.23 0 0 1 .19 0c.06 0 .11 0 .11-.08 0-.21.16-.18.29-.1s.35.18.53 0a.3.3 0 0 1 .22-.08c.15 0 .2-.08.22-.21s0-.17.13-.18l.09.1c.05.07.1.14.2.1s.07-.1.1-.16-.1-.29-.15-.43a.52.52 0 0 1 .35-.12c.06 0 .13 0 .15-.1s-.08-.11-.19-.1h-.14a.25.25 0 0 1 -.17-.14 1.13 1.13 0 0 0 -.31-.43.34.34 0 0 1 0-.1.32.32 0 0 1 -.34-.17.83.83 0 0 1 -.66.2c-.21 0-.23 0-.25-.18a1.14 1.14 0 0 0 -.04-.32h-.05a.2.2 0 0 1 -.16-.07.14.14 0 0 1 0-.09.07.07 0 0 1 .11 0 .18.18 0 0 1 .05.16.49.49 0 0 0 .09-.31c0-.12-.13-.14-.21-.19a.2.2 0 0 1 0-.23.16.16 0 0 1 .18 0 .62.62 0 0 1 .31.22.34.34 0 0 0 .33.16.73.73 0 0 1 .53.2c.11 0 .25 0 .18-.19s0-.24.14-.31a.77.77 0 0 0 .45-.55c0-.2-.06-.41.22-.47h.09a.17.17 0 0 1 .19 0l-.1.09-.21.2a.17.17 0 0 1 0 .1 1.29 1.29 0 0 1 -.56 1.09l-.09.11c0 .16.08.33 0 .48v.2a1.33 1.33 0 0 0 .38.18c.16-.18.19-.18.33 0a.12.12 0 0 1 .08 0c.09 0 .1.11.11.18l.17-.08c.08-.05.14-.08.22 0h.08a.3.3 0 0 1 .18.06c.17.07.32.13.43-.1s.17-.13.25-.2l.2-.29h.03c0-.22.23-.31.33-.48l-.14-.16c-.22-.33-.22-.33.2-.45a.28.28 0 0 1 .2-.08l.2-.2s.07 0 .09 0a3.87 3.87 0 0 1 .71.85.34.34 0 0 1 -.09.51c-.05.05-.11.07-.16.12s-.15.2-.07.31a.6.6 0 0 1 .05.55c0 .13-.07.26-.09.38s0 .21.06.28.18 0 .26 0a.39.39 0 0 1 .23-.09c.17.15.4.22.54.41a.26.26 0 0 1 -.1.44.23.23 0 0 1 -.14 0c-.32 0-.43.16-.45.45v.24s0 .09 0 .12a.23.23 0 0 1 -.12 0c-.07 0-.09-.07-.09-.14v-.07c-.06.13-.11.26-.18.39s-.15.14-.3 0-.13-.1-.3.05a.18.18 0 0 1 .07.05s.1.06.07.1-.09 0-.13 0a.36.36 0 0 1 -.1.29.28.28 0 0 1 -.1.09.4.4 0 0 1 -.18.07c-.17 0-.19.06-.11.22a.29.29 0 0 1 0 .31.36.36 0 0 0 -.07.28 2.75 2.75 0 0 1 -.1 1.14 2.17 2.17 0 0 1 -.32.77l-.1.1v.07h.17a.23.23 0 0 1 .34 0c.08.08.12.21.25.22a.35.35 0 0 1 .31.26.26.26 0 0 0 .34.19.29.29 0 0 1 .34.1.12.12 0 0 1 0 .19c0 .15-.19.23-.21.39a.25.25 0 0 0 .22.16h.24a.37.37 0 0 1 .42.26c0 .07 0 .13.05.19h-.04a.34.34 0 0 0 .31.2h.14c.12 0 .14.05.09.21v.09l.09.1.28.12a.59.59 0 0 0 .56 0 .44.44 0 0 1 0-.1.14.14 0 0 1 0-.06l-.06-.15c-.11-.22.09-.39.09-.6s.17-.05.24-.12.26-.19.35-.34.42-.21.56-.42h.13.22v-.16s0-.11 0-.12c.23 0 .26-.19.33-.35s.17-.23.36-.13a.86.86 0 0 1 .35.45.41.41 0 0 1 -.09.41.48.48 0 0 1 -.22.5c-.11.07-.25.12-.26.27s-.17.21-.32.23c.14.15.2.37.39.49h.09c.1-.12.27-.11.39-.19.07-.31.33-.37.59-.42.06 0 .1.06.13.12a1.06 1.06 0 0 1 -.1 1.11l.11.21c.18.27.18.27-.17.37a.51.51 0 0 0 -.16.09.28.28 0 0 1 -.09.1c-.05.09-.09.2-.15.29a.25.25 0 0 1 -.29.11 1.2 1.2 0 0 1 -.65-.36h-.29a.11.11 0 0 1 -.11-.16 2.22 2.22 0 0 0 .25-.83.14.14 0 0 0 -.05-.17c-.08-.06-.15 0-.22 0a.46.46 0 0 0 -.07.07.33.33 0 0 1 -.17.16.79.79 0 0 0 -.49.29c-.1.15-.31.21-.38.4l.26.24c.3.16.33.22.29.48s-.12.18-.21.24-.15.13 0 .32l.07.12a1.46 1.46 0 0 1 .16.19c.08.13.16.19.32.12a.16.16 0 0 1 .22.13.19.19 0 0 1 -.15.26 2.8 2.8 0 0 0 -.28.06.15.15 0 0 0 -.09.1.14.14 0 0 0 .07.17 1.05 1.05 0 0 0 .19 0 .37.37 0 0 1 .23.23s0 0 0 0a.06.06 0 0 1 0 0 .77.77 0 0 0 .23.67c.15.12.1.29-.08.4s-.1 0-.15 0a.21.21 0 0 1 -.3 0 .33.33 0 0 0 -.09.2.42.42 0 0 0 .59.2 1.2 1.2 0 0 0 .64-.67.08.08 0 0 1 0 0 .34.34 0 0 0 0 .1c0 .31.06.6-.35.68v.12h.08c.42.18.41.18.12.5-.08.09-.14.18-.27.2s-.17.09-.24.17l-.28.34a.18.18 0 0 1 -.26.05 2.36 2.36 0 0 1 -.36-.26.6.6 0 0 1 -.12-.72 5.75 5.75 0 0 0 .29-.62.22.22 0 0 0 0-.08v-.1a.26.26 0 0 1 -.07-.35c.07-.12.13-.25.2-.38a.38.38 0 0 1 .27-.19s0 0 0-.07h-.36c0 .09-.06.21-.21.18h-.3s0 0 0 0-.06 0-.06 0c0-.27.13-.52.09-.78a.86.86 0 0 1 -.21-.82.53.53 0 0 0 0-.33 2 2 0 0 1 -.11-.73l-.1-.19c-.14-.16-.38-.2-.49-.4a.57.57 0 0 0 -.36-.08 1.32 1.32 0 0 1 -.54.75c-.14 0-.24.17-.41.13s-.12 0-.17.06a3.12 3.12 0 0 1 -.49.31c-.09 0-.22.09-.22.23a.53.53 0 0 0 .15.4 1 1 0 0 0 .2.14.25.25 0 0 1 .07.22.34.34 0 0 1 -.2.26l-.27.12a.57.57 0 0 0 -.29.37.22.22 0 0 0 .19.29c.11 0 .23 0 .3.13.37.24.38.25.29.62 0 .21-.16.32-.38.3a.37.37 0 0 0 -.29 0c-.15.11-.28 0-.39-.07s0-.21 0-.32a.81.81 0 0 0 .11-.43.31.31 0 0 0 -.24-.27.2.2 0 0 0 -.26.16.36.36 0 0 1 0 .09.15.15 0 0 1 -.21.06.33.33 0 0 1 -.13-.56 1 1 0 0 0 .25-.3v-.15a.24.24 0 0 1 0-.28.23.23 0 0 0 0-.3 2.26 2.26 0 0 1 -.11-.22h-.26l-.09.13a.05.05 0 0 1 0 .05.32.32 0 0 1 0 .14c0 .22-.12.31-.2.27s-.09-.19-.1-.29-.24-.23-.39 0-.12.09-.19 0h-.31l.54.62s0 .07 0 .08a.17.17 0 0 1 -.12.07.41.41 0 0 1 -.19 0 .57.57 0 0 0 -.55.07l-.18.09-.08.39a.07.07 0 0 1 0 .06 1 1 0 0 1 -.23.17c-.16.1-.18.09-.27-.15a.12.12 0 0 1 -.08-.11 1.22 1.22 0 0 0 -.3.3 4.34 4.34 0 0 0 -.08.52c0 .27.07.32.38.27a1.81 1.81 0 0 1 .5.2c.13 0 .12.17.09.29-.06.29-.18.53-.52.57-.09 0-.13.09-.15.17s0 .2 0 .3-.06.15-.29.14a.71.71 0 0 1 -.31.58c-.1.22-.09.23.1.24a.71.71 0 0 1 .32.07 1.27 1.27 0 0 0 .46-.27.36.36 0 0 0 .15-.38c0-.11 0-.23 0-.34a.15.15 0 0 1 .22-.11.27.27 0 0 1 .15.18c0 .07 0 .17.11.23a.64.64 0 0 1 .38-.22.24.24 0 0 1 .24.26 2 2 0 0 1 0 .34c0 .24-.06.25-.32.23-.07 0-.14 0-.17.05s0 .13.06.18l.09.11a.09.09 0 0 1 0 .13.24.24 0 0 1 -.14 0 .82.82 0 0 1 -.2-.12.6.6 0 0 0 -.31-.15h-.2a4 4 0 0 0 -.6 0c-.08.08-.17.16-.11.29-.2.2-.31.22-.48.08s-.28-.26-.42-.39a.16.16 0 0 1 -.17.07.27.27 0 0 1 -.1-.06h-.32l.09.08c.1 0 .15.12.1.23s-.09.18-.2.17-.14-.11-.17-.21a.28.28 0 0 0 0-.09l-.11-.3s-.1 0-.12-.06c0 .14.08.27 0 .43s.09.27.07.42.06.08.11 0 .21 0 .28.14 0 .22.11.29h-.01a.06.06 0 0 1 0 .1c0 .27.23.5.16.8 0 0 .13.13.24.1s.16-.1.28.08a.48.48 0 0 0 .18.63c.18.24.07.58.3.79a.5.5 0 0 1 0 .13v.06a.29.29 0 0 0 0 .09c0 .13.09.2.23.13s.16-.06.2 0c0 .39.17.78 0 1.17a.49.49 0 0 0 .23.14c.13 0 0 .21.14.26s0 0 .08 0a.17.17 0 0 1 .11.11s0 0 0 .07c-.18.24 0 .45.07.67a5.05 5.05 0 0 0 .24.53c.06.05.08.12 0 .17-.32.31 0 .57.16.63s.42.27.37.57c0 .1 0 .24.12.25.31 0 .39.34.62.45s.08 0 .1.08a.88.88 0 0 0 .48.8c.09 0 .12.19.16.29a.41.41 0 0 0 .07.11l.16.12c.08.08.19.1.28.17a.67.67 0 0 1 .28.62.27.27 0 0 0 .24.34c.15 0 .22-.15.3-.26h.2s0 0 0 0 0 0 .06 0h-.06a3.37 3.37 0 0 1 .41.88c.07.15.06.34.2.46s.12.09.18 0 0-.07 0-.06.07 0 .09.08a.08.08 0 0 1 0 .07.23.23 0 0 0 .11.11c0 .07 0 .07.08 0h.09a.81.81 0 0 1 .18.26l.07.11c.09.32.4.47.54.75a.72.72 0 0 1 .2.14c.11.15.29.13.44.18s.18-.25.13 0a.34.34 0 0 0 .13.38c.08 0 .12.15.24.15s.14-.06.2-.12a.06.06 0 0 1 .11 0 .1.1 0 0 1 0 .09.37.37 0 0 1 -.15.13c-.13 0-.09.1 0 .18s.07.18.2.17a.24.24 0 0 1 .25.13c.06.1.15.1.25.06s.17 0 .22.13c.06.27.46.35.39.69-.06.13 0 .22.12.2.32-.06.57.15.85.2a.78.78 0 0 0 .44.53c.36.19.67.44 1 .62s1 .55 1.49.83c.39.1.43.49.61.77h.08c.24-.07.26-.34.43-.47s.14 0 .2.11a.64.64 0 0 1 .2.41c.18 0 .2.18.33.23a1.2 1.2 0 0 0 .33.05c.11 0 .16-.07.24-.12s.44-.29.67 0l.44.17c.05 0 .1.07.07.1s-.06.13.05.12.13-.07.21-.09.12.07.11.19.12.07.2 0a.16.16 0 0 0 0-.22.29.29 0 0 1 0-.09.23.23 0 0 1 .3-.11h.09c.28.16.61.15.89.28.11-.06.15.06.22.09.07.13.05.31.2.4.16-.13.3 0 .45 0v-.24h.2c0-.07.09-.08.15 0s0 .06 0 .09 0 .25.19.23.12-.13.14-.22l.05-.09a.16.16 0 0 1 .17-.06c.14.06.22.14.19.3s.05.3.23.35a.6.6 0 0 0 .41-.69 1.27 1.27 0 0 0 -.58 0 .5.5 0 0 1 -.39-.07.1.1 0 0 1 -.07 0 .7.7 0 0 1 -.35-.06s0 0-.05 0c-.24-.07-.58 0-.61-.4 0 0-.08 0-.12-.07a2.1 2.1 0 0 0 -.26-.13l-.42-.17h-.07a1.55 1.55 0 0 1 -.53-.34.73.73 0 0 0 -.77-.15.39.39 0 0 1 -.28 0l-.92-.34a.16.16 0 0 1 -.1-.15 1.51 1.51 0 0 0 -.12-.76c-.08-.33-.32-.43-.58-.52-.09 0-.2 0-.28-.06a.28.28 0 0 0 -.46 0 .38.38 0 0 1 -.6 0 .19.19 0 0 1 0-.18 1.31 1.31 0 0 0 .11-.52.23.23 0 0 1 -.07-.07c-.13-.16-.12-.19 0-.39l.08-.12-.1-.1a.43.43 0 0 1 -.19-.3.19.19 0 0 1 -.15-.2.17.17 0 0 0 -.14-.16.76.76 0 0 1 -.42 0 .39.39 0 0 1 -.4-.33h-.06c-.33.21-.37.2-.53-.13a.28.28 0 0 1 .09-.41c-.17-.64-.46-.81-1.11-.67a.58.58 0 0 1 -.14 0c-.08 0-.11 0-.12-.12 0-.26 0-.26-.24-.31l-.48-.1a.41.41 0 0 1 -.35-.23c-.09-.17-.14 0-.21 0l-.19.21c-.09.31-.42.41-.58.66a.15.15 0 0 1 -.18 0l-.23-.09c-.1.13-.13.14-.27.1h-.09a1.36 1.36 0 0 1 -.41-.51c0-.08-.11-.09-.19-.1a0 0 0 0 1 0 0s0 0-.06 0a.19.19 0 0 1 -.19-.1l-.48-.5a.33.33 0 0 1 -.12-.43.32.32 0 0 1 .24-.22 2.44 2.44 0 0 1 1.73.3.14.14 0 0 1 .09 0l.1.2a.13.13 0 0 0 .18.09l.1-.09a2.58 2.58 0 0 1 0-.39.2.2 0 0 1 .15-.18.16.16 0 0 1 .2.1 1.15 1.15 0 0 1 .09.28l.1.1c.13-.05.18-.12.09-.25s-.05-.14 0-.16c.28-.09.56-.2.82 0a.48.48 0 0 0 .17.1h.07s.06-.09.1-.11l.84-.29a.16.16 0 0 1 .18.13v.74s.08.35.31.38h.05c.26.07.45.2.42.51a.25.25 0 0 0 .07.23 1.13 1.13 0 0 0 .57.35.76.76 0 0 1 .7.64.67.67 0 0 0 0 .37 1 1 0 0 1 .5.42l.08.11a.29.29 0 0 0 0 .09.54.54 0 0 1 .06.25l.14.06c.06 0 .13.06.17 0s0-.12 0-.17a.56.56 0 0 0 -.05-.08c-.09-.08-.19-.16-.12-.28s.17-.06.26 0h.14a.9.9 0 0 0 .29-.4c0-.11-.05-.22-.07-.33a.12.12 0 0 1 .08-.15c0-.1.06-.2.1-.31v.13a.24.24 0 0 0 0-.13s0-.06 0-.09l-.23-.17a.4.4 0 0 1 -.28-.28 2.77 2.77 0 0 0 -.1-.26.92.92 0 0 0 -.33-.06c-.15 0-.18 0-.15-.16s.06-.29.1-.43 0-.05.06 0a.56.56 0 0 1 .05.08.41.41 0 0 1 .48.21.53.53 0 0 0 .4-.31c0-.1.09-.2.19-.21s.32-.2.5-.27a1.48 1.48 0 0 1 .78-.1c.15-.12.16-.36.29-.43s.34 0 .51-.07a.7.7 0 0 1 .14 0 .34.34 0 0 0 .22-.29c0-.29 0-.29.3-.26h.14c.1-.12.06-.3.19-.39a1.72 1.72 0 0 0 .08-.28c0-.18-.05-.23-.22-.21a1.4 1.4 0 0 1 -.76 0c-.1-.17-.1-.17-.23 0s-.17.15-.28 0l-.53-.54h-.29s-.05.07-.07.07a5.15 5.15 0 0 0 -.68.15.88.88 0 0 0 -.44.17c0 .09 0 .2-.12.22s-.13 0-.17-.11c-.14.1-.24.21-.16.41a1.52 1.52 0 0 1 .06.67.14.14 0 0 1 -.2 0h-.2a.14.14 0 0 1 .2 0 .13.13 0 0 0 -.2 0l-.19.21c0 .08.11.06.17.07s.14 0 .15.1-.05.12-.12.14-.26.05-.38.09a.39.39 0 0 1 -.44-.13c-.08-.08-.18-.15-.25-.23a.5.5 0 0 1 -.1-.63l.17-.31c.14-.17.32-.31.29-.57a.19.19 0 0 0 -.08-.1.45.45 0 0 1 0-.28c.19-.13.45-.18.51-.46 0 0 .11 0 .17-.06 0 .08.1.14.19.12a1.29 1.29 0 0 1 .38.39c.41 0 .47-.32.56-.61 0-.12 0-.22-.05-.33a.14.14 0 0 1 .14-.16 1.13 1.13 0 0 1 .71.6.32.32 0 0 1 0 .14 2.1 2.1 0 0 1 -.06.24l.4-.12v-.1l-.09-.17a.25.25 0 0 1 .07-.3.25.25 0 0 1 .35 0 .46.46 0 0 1 .07.07.87.87 0 0 0 .11.09h.2c.12.15.15.34.3.47h.06v-.17c0-.06-.06-.12-.08-.18a.56.56 0 0 0 -.45-.46s0-.05 0-.08c-.2-.24-.28-.56-.6-.69a.14.14 0 0 1 -.06-.07 2.63 2.63 0 0 1 -.06-.48c0-.15.18-.11.26-.18l.17-.17c.25-.25.41-.22.58.13a.57.57 0 0 0 .08.13h.2a.12.12 0 0 1 .1-.1 0 0 0 0 1 .05 0 .49.49 0 0 1 .28.57c-.05.1-.1.2-.16.3a.44.44 0 0 0 -.05.5 1.24 1.24 0 0 1 .13.51 1.35 1.35 0 0 0 .77 0 .33.33 0 0 0 .22-.18c.06-.11.16-.1.23 0s.23.36.35.53a.18.18 0 0 0 .26 0 .79.79 0 0 0 .33-.68.75.75 0 0 1 -.33-.61 1.47 1.47 0 0 0 -.05-.29.84.84 0 0 1 .1-.49c.08-.18.26-.33.19-.56-.13 0-.28 0-.41 0a1.25 1.25 0 0 0 -.7-.29.59.59 0 0 1 -.39-.16 2.11 2.11 0 0 0 .33-.86 1.46 1.46 0 0 1 .67.53.3.3 0 0 1 .35 0 .8.8 0 0 0 .45.24c0-.13.07-.26.11-.4h.08c0-.06.09-.1.16-.05a.16.16 0 0 1 .05.08.11.11 0 0 1 -.12.12h-.09c0 .14-.06.27-.22.3.25-.16.43-.49.8-.34a2 2 0 0 0 .72 0 1.39 1.39 0 0 0 .8.09c.16 0 .3-.07.43 0 .25-.14.28-.11.49.15a.55.55 0 0 0 .58-.2c.07-.16.2-.14.32-.1v.07h.11.25a1.16 1.16 0 0 1 .93 0c.21 0 .41-.16.62 0a1.06 1.06 0 0 1 .36.43.21.21 0 0 1 0 .06.72.72 0 0 0 .36-.25c.15-.16.25-.42.55-.39.46.06.89.17.95.74.06-.19.12-.37.38-.39v-.2c.09.06.14.13 0 .2a1.56 1.56 0 0 1 -.11.26.88.88 0 0 0 -.19.49.87.87 0 0 1 -.79.83 1.29 1.29 0 0 1 0 .19c0 .11 0 .17.14.2a.27.27 0 0 1 .26-.07l.33.07c.24-.11.24-.11.35 0s.16.24.25.35 0 0 0 0a.78.78 0 0 1 .09.34 2 2 0 0 0 .08-.22c.07-.25 0-.53.28-.7.07 0 0-.15 0-.23s0-.18.16-.19.15 0 .19 0 .26 0 .38 0 .18 0 .18.07.07.27.26.15.11 0 .15.1a1.07 1.07 0 0 0 .25.35c.1.07.19.07.26 0a.2.2 0 0 0 0-.08.26.26 0 0 1 .3-.2c.16 0 .13.16.16.26s0 0 0 0h.12a.34.34 0 0 1 .45 0 2.8 2.8 0 0 0 .3.15.48.48 0 0 1 .49 0c.23-.09.4-.21.4-.49a.48.48 0 0 1 .08-.18c0-.07.09-.15.19-.09a.48.48 0 0 0 .29 0 1.27 1.27 0 0 1 .34 0c.12 0 .17.09.1.19s-.16.23-.11.36a.48.48 0 0 1 -.12.54.86.86 0 0 0 -.18.34c-.07.18-.13.37-.19.56a.42.42 0 0 1 -.47.34h-.19c-.35 0-.35 0-.6.14-.17-.25-.06-.5 0-.77l-.44-.06a.64.64 0 0 0 -.2 0 2.29 2.29 0 0 0 -1 .37.6.6 0 0 1 -.22.09.59.59 0 0 0 -.41.4c0 .07-.05.15-.08.23s-.05.11 0 .14c.17.21 0 .37-.09.54s-.19.26-.28.4.14 0 .19.1 0 .06 0 .1a.28.28 0 0 0 0 .09.66.66 0 0 0 .41.08 1.94 1.94 0 0 1 .76 0l.1-.1a1.75 1.75 0 0 1 -.32-.48c-.06-.11-.22-.19-.17-.33s.22 0 .34 0l.23-.07a.3.3 0 0 1 .33.14 1 1 0 0 0 .51.21 2.21 2.21 0 0 1 .37.08c0-.11-.07-.22 0-.34a.2.2 0 0 1 .18-.15.17.17 0 0 1 .17.14.76.76 0 0 1 0 .15 2.47 2.47 0 0 1 .38 0c.1 0 .14.07.11.17a.51.51 0 0 0 .16.61c.16.15.3.31.44.46s0 .1 0 .14-.06.05-.07 0c-.19-.08-.43 0-.59-.2s-.14-.05-.22-.07v.54a.41.41 0 0 1 -.48.43 2.35 2.35 0 0 0 -.91.19.53.53 0 0 0 -.37.3 1.43 1.43 0 0 1 -.12.21.47.47 0 0 1 -.58.13.16.16 0 0 1 0-.08s0-.07 0-.07.23 0 .27-.18a.47.47 0 0 0 0-.33v-.05l-.09-.11c-.06 0-.15 0-.2-.09a1 1 0 0 1 -.17-.5c0-.35-.14-.45-.47-.48h-.3c-.12 0-.26.08-.38 0s0-.23 0-.35 0-.23-.06-.34h-.09-.19s0 .05 0 .07a.36.36 0 0 1 -.11.1h-.09a.29.29 0 0 1 0 .09s0 .07-.06.07-.22.14-.22.07a.28.28 0 0 1 0-.09.29.29 0 0 1 0-.09.43.43 0 0 0 -.1-.09.74.74 0 0 0 -.29-.08.4.4 0 0 0 -.12.4c.07.18 0 .28-.16.37a2.1 2.1 0 0 1 -.26.13.39.39 0 0 0 -.24.35.84.84 0 0 0 .31.22.53.53 0 0 1 .37.28c.21 0 .19.23.31.3h.28c.15 0 .32 0 .37.16a.45.45 0 0 1 -.17.48.76.76 0 0 1 -.16.11l-.26.14c.14.11.28.17.43 0s.27 0 .39.07c0-.05.09-.17.16-.15s.25 0 .33-.15a2.48 2.48 0 0 1 .25.58.16.16 0 0 0 .13.13 1.49 1.49 0 0 1 .66.31.12.12 0 0 0 .17 0 .93.93 0 0 1 .13-.15.22.22 0 0 1 .35.11 2 2 0 0 1 0 .6s0 0 0 0a.79.79 0 0 1 .1.4c0 .28-.15.58.12.82v.13l-.6.31a.12.12 0 0 1 -.17-.06 1.33 1.33 0 0 0 -.34-.41l-.15.31a.2.2 0 0 1 -.05.09v.1a.81.81 0 0 1 .12.38c.21.17.38.41.72.35a.23.23 0 0 1 .22.17c0 .16.09.32.13.48h.02c.06 0 .12-.1.16-.09a1.88 1.88 0 0 0 1-.19c.46-.22 1-.34 1.24-.86a.11.11 0 0 1 .08 0s.07 0 .07.06 0 .29 0 .43c.13 0 .28 0 .38.09a1.39 1.39 0 0 0 .66.39.19.19 0 0 1 .07.29.58.58 0 0 1 -.19.16.82.82 0 0 0 -.43.37 1.2 1.2 0 0 1 -.26.29c-.11.1-.08.29-.23.36-.12-.08-.15-.23-.29-.27s-.18.17-.29.06-.33-.08-.5 0c0 .08.09.08.14.12a.17.17 0 0 1 .08.16c0 .1-.1.11-.19.09s-.14 0-.19 0-.3.09-.43.18l-.11.15c0 .09-.11.09-.19 0a.7.7 0 0 1 -.53 0 .42.42 0 0 0 -.33 0 8.77 8.77 0 0 0 -.86.18 6.69 6.69 0 0 1 -1.34-.07l-.4.19a.26.26 0 0 1 -.24.12h-.23a.66.66 0 0 1 -.31.09c-.07.06-.16 0-.23.07s-.28-.11-.42 0a1.93 1.93 0 0 1 -.4.15s0 0 0 0a1.72 1.72 0 0 0 -.34.06l-.17.06c.18.07.36.16.53.24s.39.43.71.33h.1c.23 0 .45.09.68 0s.5-.51.78 0a.18.18 0 0 0 .29.05c.24-.2.25-.2.49 0q.07.06.12 0a.25.25 0 0 1 .52-.17.39.39 0 0 0 .41.06s.08 0 .07.09 0 .17.1.19.09-.08.12-.13l.09-.11a.08.08 0 0 1 .13 0c.05.08.07.21.2.15s.21 0 .26-.1.17-.12.26 0 .2 0 .3 0 .15 0 .21-.09 0 0 0 0 0 0 .06 0a.17.17 0 0 0 .21 0c.17-.14.41 0 .58-.11s.44-.13.66-.17.25-.12.38 0 0 .22.09.32v.05s.1.12.16.08a2.79 2.79 0 0 1 .81-.12.89.89 0 0 0 .64-.29.18.18 0 0 1 .3 0 .17.17 0 0 0 .18 0c.2-.06.41-.1.61-.15s.29-.28.52-.26a.93.93 0 0 0 .57-.23.16.16 0 0 1 .12 0c.13 0 .25 0 .29-.1s.23 0 .32-.12a.14.14 0 0 0 .05-.13.26.26 0 0 1 0-.19c.12-.14.23-.29.36-.43a2.85 2.85 0 0 1 -.41 0 1.73 1.73 0 0 0 -.71.18.47.47 0 0 1 -.31.06.49.49 0 0 0 -.24 0 .25.25 0 0 1 -.33-.1.52.52 0 0 0 -.58-.14l-.63.26c0-.14 0-.29 0-.43a.19.19 0 0 1 .09-.16c.07 0 .2 0 .2-.1s-.14-.1-.21-.14a.86.86 0 0 1 -.34-.34.43.43 0 0 1 -.24-.34c0-.09 0-.18.08-.21s.33-.22.54-.15a.26.26 0 0 0 .23 0c.12-.12.17-.31.34-.35s.34-.3.4-.51a1.62 1.62 0 0 1 .25-.53.5.5 0 0 1 -.13 0s0 0 0-.07.06 0 .07 0l.1.1a.44.44 0 0 1 .39.26c.06.12.15.25.13.37s.1.22.26.24a.6.6 0 0 1 .21.13.31.31 0 0 1 .2.2c0 .2.22.29.27.46a.45.45 0 0 0 .5.37c.13 0 .17.08.12.2s0 .19.11.22l.16.06c.31-.18.63-.32 1-.48s.26-.09.29.17v.09a.26.26 0 0 0 .3.1.12.12 0 0 0 0-.2c0-.06-.08-.11-.05-.18a.14.14 0 0 1 .05-.08s0 0 .07 0 .17.16.18.29.06.09.1.06 0-.09 0-.13a.22.22 0 0 1 0-.08c.1-.07.26 0 .31-.19.2-.18.52.05.7-.19.08-.32.32-.33.58-.32a.1.1 0 0 1 .1-.07c.2.05.12-.15.19-.22s.15-.13.21-.2.14-.06.19 0 .15 0 .2 0a2.27 2.27 0 0 1 .84-.63 1.14 1.14 0 0 0 .3-.18 2.19 2.19 0 0 1 .78-.49.25.25 0 0 0 .12-.08c.34-.4.78-.72 1.09-1.14a3.78 3.78 0 0 1 .91-1 1.42 1.42 0 0 0 .24-.25.41.41 0 0 1 .36-.21.27.27 0 0 0 .23-.17c.1-.19.2-.38.29-.57a.71.71 0 0 1 .61-.43.37.37 0 0 0 .32-.18c.27-.4.53-.8.79-1.2.06-.09.11-.23.19-.27.25-.1.32-.32.44-.52a2.55 2.55 0 0 1 .46-.63 7.38 7.38 0 0 0 1.3-1.54c.41-.64.8-1.28 1.19-1.93.28-.48.54-1 .81-1.47a2.6 2.6 0 0 1 .25-.46.89.89 0 0 0 .24-.72c0-.17.1-.28.06-.44s.16-.16.07-.29a.11.11 0 0 1 0-.13 1.17 1.17 0 0 0 .23-.83c0-.08 0-.17.05-.23a.25.25 0 0 0 .09-.37.34.34 0 0 1 0-.37.49.49 0 0 0 .07-.47.41.41 0 0 1 .1-.45c.13-.13.1-.22 0-.34a.26.26 0 0 1 0-.28 4.71 4.71 0 0 0 .46-1.27 2 2 0 0 1 .2-.79.39.39 0 0 0 0-.28 1 1 0 0 1 0-.39c.08-.39.37-.74.29-1.17a.18.18 0 0 1 .05-.08.45.45 0 0 0 0-.54c0-.09-.11-.22 0-.33a.74.74 0 0 0 .11-.56.72.72 0 0 1 0-.38c.07-.15-.07-.35.08-.5-.08-.17 0-.37-.09-.54a.14.14 0 0 1 .06-.21.2.2 0 0 0 .07-.33.38.38 0 0 1 0-.5.58.58 0 0 0 .07-.51.27.27 0 0 1 .11-.3c.08 0 .07-.14 0-.22a1.19 1.19 0 0 1 0-.85.18.18 0 0 0 0-.14c-.15-.2-.06-.23.14-.25s.07-.15 0-.23.24-.09.33-.19zm-59.22-4.58.27.06a.14.14 0 0 1 0 .09.46.46 0 0 1 -.31.1.13.13 0 0 1 -.12-.06.14.14 0 0 1 .16-.19zm-.17-1.47c0 .11-.06.16-.12.18a.17.17 0 0 1 -.22-.05.57.57 0 0 1 -.07-.22c0-.09 0-.17.08-.2a.18.18 0 0 1 .21.07 1.72 1.72 0 0 1 .12.22zm20.08 38.07s0 0 0 0zm-8.15-6s.07 0 .07.05a.44.44 0 0 1 0 .32.08.08 0 0 1 -.08 0 .25.25 0 0 1 -.04-.39zm-1.72.11a.17.17 0 0 1 .22 0 .18.18 0 0 1 .09.21.46.46 0 0 1 -.23.3.2.2 0 0 1 -.21-.03s-.06-.07-.08-.1a.69.69 0 0 1 .16-.4zm-5-14.39a.32.32 0 0 1 .21-.25.28.28 0 0 1 .29.13.43.43 0 0 1 -.12.63.23.23 0 0 1 -.35-.13c0-.08 0-.16-.05-.22s0-.13.01-.18zm-.83 1.3.06-.24c.05-.23.13-.3.41-.29l.29.06c.24.06.23.07.23.38a.13.13 0 0 0 0 .09.32.32 0 0 1 -.05.37c-.09.13-.18.26-.29.39a.27.27 0 0 1 -.39 0 .71.71 0 0 1 -.27-.78zm.3 3.29c.08-.1 0-.18.06-.26a.31.31 0 0 1 .37-.3.76.76 0 0 1 .6.39.25.25 0 0 1 0 .27c-.05.05-.08.13-.13.14-.22 0-.45.08-.67.13a.71.71 0 0 1 -.83-.56c0-.07 0-.14.07-.17a.24.24 0 0 1 .14 0c.19.08.23.28.38.34zm-.47-7.1c.07 0 .11 0 .12.1s0 .07 0 .07-.1 0-.12-.1-.03-.09-.01-.09zm-.28.46.15-.08h.14s.06.05 0 .07-.11.11-.19.12a.14.14 0 0 1 -.16-.08.16.16 0 0 1 .05-.05zm-1.74-1.16c-.26-.19-.26-.18-.07-.41a.65.65 0 0 0 .1-.15c0-.06 0-.14.09-.12s.07.05.09.09a1.27 1.27 0 0 1 .06.18 1.09 1.09 0 0 1 .11.1.33.33 0 0 1 0 .4c-.13.13-.26-.01-.38-.09zm-.5 7.81a1 1 0 0 1 -.24 0s0 0 0-.07 0-.08 0-.09a1.73 1.73 0 0 0 .51-.18.41.41 0 0 0 -.45-.39c-.18 0-.18 0-.19-.25a.71.71 0 0 1 .25-.61.44.44 0 0 0 0-.55.31.31 0 0 0 -.53.06 1.94 1.94 0 0 0 -.07.33c0 .13 0 .28-.21.31s-.23-.09-.31-.19a1.84 1.84 0 0 0 -.52-.52c-.18-.11-.17-.26-.13-.43v-.15c-.2-.16-.17-.36-.11-.57-.14-.06-.29.08-.43 0a.29.29 0 0 1 -.09-.1.1.1 0 0 1 .06-.12c.19-.06.37-.16.57-.06l.28.4v.09a.28.28 0 0 1 .13.27 1.85 1.85 0 0 0 0 .23l.11.09h.24a.64.64 0 0 0 .69-.36c0-.08.14-.13.22-.19a.13.13 0 0 1 .2.06.63.63 0 0 1 .08.23.92.92 0 0 0 .4.59c.27.19.47.49.75.69.09.06.12.19.17.29l.22.08a.46.46 0 0 1 .37.38.2.2 0 0 1 -.2.17c-.18 0-.25.08-.26.27s-.05.32-.33.36h-.17l.14.14a.25.25 0 0 1 .08.3.22.22 0 0 1 -.25.11.46.46 0 0 0 -.4.11.12.12 0 0 1 -.19-.11.63.63 0 0 0 -.07-.55c-.1-.09-.21-.06-.32-.07zm1.49 3.66c-.06-.17-.06-.17.1-.22-.26-.14-.57-.17-.78-.39a.27.27 0 0 1 0-.39l-.21-.1c-.12 0-.19 0-.22 0s0-.06 0-.13a1.34 1.34 0 0 1 .01-.16v-.17l.1-.1h-.1a.13.13 0 0 1 .08 0 .11.11 0 0 1 .12.05h.3s0 0 0 0v.08a.31.31 0 0 0 .09.11.36.36 0 0 1 .28.35v.34h.13a.48.48 0 0 0 .2.2 1.79 1.79 0 0 1 .28.2.19.19 0 0 1 0 .26c-.1.03-.2.14-.38.07zm2.75.86c-.06 0-.1 0-.12-.07a.32.32 0 0 1 0-.14s0 0 .07 0 .09.08.11.14-.01.06-.06.07zm.78-1.62a1.56 1.56 0 0 0 -.46.5.7.7 0 0 1 -.44.31.36.36 0 0 0 -.32.32 1.27 1.27 0 0 1 -.41.76.77.77 0 0 0 -.19.34.2.2 0 0 1 -.12.14c-.47.19-.48.19-.57-.32a.43.43 0 0 0 0 0c-.07-.12-.22 0-.3-.12a.28.28 0 0 1 0-.09c.06-.13.13-.25.18-.38a.07.07 0 0 0 0-.09c0-.05-.08 0-.12 0l-.16.1s-.12-.07-.15-.12c-.19-.33-.07-.59.29-.65a3.68 3.68 0 0 1 .58-.07c.15 0 .3 0 .32.2s.11.05.16 0 .09-.16.07-.26a.29.29 0 0 1 -.13-.33c0-.26.33-.23.4-.38s-.2-.37 0-.58l.09-.12a.19.19 0 0 1 .3 0 .4.4 0 0 1 .1.32l-.07.28v.17s.09 0 .13 0 .15-.13.23-.18a.43.43 0 0 1 .58.11c.06-.01.09.09.01.14zm2.37-.91a1.38 1.38 0 0 0 -.34.52.48.48 0 0 1 -.81 0 .28.28 0 0 1 -.05-.23 1.37 1.37 0 0 0 .07-.34.82.82 0 0 1 .16-.64s0-.12 0-.19c0-.3 0-.46.29-.51a.58.58 0 0 1 .77.42 1 1 0 0 1 .08.23.69.69 0 0 1 -.17.74zm5.41 7.67a.17.17 0 0 1 .17.14c0 .08 0 .12-.11.13a.16.16 0 0 1 -.17-.14.11.11 0 0 1 .14-.13zm5.73-48.86a.2.2 0 0 1 .27 0 .21.21 0 0 1 .06.26.37.37 0 0 1 -.35.22.18.18 0 0 1 -.16-.15.48.48 0 0 1 .21-.33zm.13 29.6-.3-.2-.08.11a.11.11 0 0 1 .08-.11l-.08-.19.26.09a.2.2 0 0 1 .12.3zm-1.62-26.93a.6.6 0 0 1 .34-.32 1.38 1.38 0 0 1 .72-.1.67.67 0 0 1 .39-.1.29.29 0 0 1 -.4.1.67.67 0 0 0 -.12.8.89.89 0 0 1 -.45-.15.36.36 0 0 0 -.37 0c-.05 0-.11 0-.12 0a.17.17 0 0 1 .01-.23zm1.13 30.2a.22.22 0 0 1 -.05.08.35.35 0 0 0 .05-.08zm-1.2 1.9c-.23 0-.39-.22-.63-.15-.18-.21-.52-.25-.64-.56 0-.07-.15-.11-.23-.17s-.14-.17 0-.28.31-.16.28-.36-.17-.27-.27-.39-.08-.06-.11-.1 0-.13.11-.1a3.49 3.49 0 0 1 .39.19h.27c0-.16 0-.32 0-.48a.14.14 0 0 1 .1-.14.19.19 0 0 1 .17.07.49.49 0 0 1 .12.25.88.88 0 0 1 .09.48c0 .1.09.13.17.14s.35-.1.52-.11l.19-.07c.06 0 .14 0 .13.06s.11.2.25.18a1.48 1.48 0 0 1 -.17 1.5l-.3.1a.8.8 0 0 0 -.44-.06zm-1.21-2.72a.11.11 0 0 1 .08-.1s.05 0 .06.06a.08.08 0 0 1 0 .12c-.1-.03-.14-.07-.14-.13zm2.18-.2a.12.12 0 0 1 .05.07c0 .09 0 .15-.1.13s0-.05-.06-.07.06-.21.11-.18zm-.15-.63a.11.11 0 0 1 -.15-.07c0-.05 0-.09.06-.11a.12.12 0 0 1 .15.07.08.08 0 0 1 -.06.06zm.08-4.87h-.16c-.11 0-.18-.07-.16-.14s.1-.08.17-.08a.2.2 0 0 1 .13 0 .14.14 0 0 1 .07.11.08.08 0 0 1 -.05.06zm-.27 3.7-.09.19c.14 0 .26 0 .29.2a.38.38 0 0 1 -.15 0c-.16 0-.16 0-.14-.21a.2.2 0 0 1 -.08 0s-.04-.16-.04-.21a.11.11 0 0 1 .13 0zm.37 4.89s.06 0 .07 0 0 0-.06.05h-.09zm0-9.1a.06.06 0 0 1 0 0c.07-.03.04-.02.01-.05zm-4.4-26.23a.5.5 0 0 1 .58 0c.19.06.38.16.58 0v-.08a.76.76 0 0 1 -.08-.11.3.3 0 0 1 -.07-.24v.12c0-.05 0-.09 0-.12a1.07 1.07 0 0 0 -.17-.3.58.58 0 0 1 -.13-.6.26.26 0 0 1 0-.39c.25-.13.5-.25.57-.55a0 0 0 0 1 0 0 .15.15 0 0 1 .18 0 .31.31 0 0 1 .11.21v.78a.31.31 0 0 1 -.15.14c-.22.15-.22.15-.16.41.11.08.22.15.24.29s0 .25 0 .33.24 0 .36 0h.1a.14.14 0 0 1 .09.19c-.15.29-.45.47-.54.8 0 0-.08.06-.12.06h-.34a.35.35 0 0 1 -.42-.25l-.19-.4a.63.63 0 0 1 -.48-.17.12.12 0 0 1 .04-.12zm-1.62 7.45a.15.15 0 0 1 -.16.14.14.14 0 0 1 -.15-.15.16.16 0 0 1 .16-.14.14.14 0 0 1 .15.15zm-.84-11.75c.23-.11.44-.25.66-.38a.58.58 0 0 1 -.33.46 2 2 0 0 0 -.65.44.5.5 0 0 1 .32-.52zm-1 .62a.35.35 0 0 1 .3-.13h.4c-.07.14-.24.13-.34.24s-.28.18-.36-.14a.19.19 0 0 1 -.2.09.27.27 0 0 1 .18-.06zm0 7.36a.12.12 0 0 1 .13-.11c.08 0 .11 0 .11.12a.11.11 0 0 1 -.15.09.1.1 0 0 1 -.1-.1zm0 4.07a.16.16 0 0 1 -.17.14c-.08 0-.16-.1-.13-.17a.16.16 0 0 1 .16-.13.14.14 0 0 1 .17.16zm-.22-11.34a.29.29 0 0 1 -.19.11.2.2 0 0 1 .19-.11zm-.08.29-.1-.1a.13.13 0 0 1 .1.1zm-1.92 1.9c.08-.29.36-.42.47-.67a.53.53 0 0 1 .55-.33c.06-.19.07-.19.21-.12s.15 0 .18-.08l-.09-.11a.29.29 0 0 1 0-.31 2.15 2.15 0 0 1 .62-.28c.13.08.15.19.06.28s-.31.28-.47.42-.23.26-.32.4a.6.6 0 0 1 -.46.28c0 .07.11.14 0 .2s-.1 0-.14-.08-.1.14-.1.22a.22.22 0 0 1 -.07.16.29.29 0 0 0 0 .09.07.07 0 0 1 -.11 0l-.14.19c-.11.13-.11.13-.27 0l-.21-.12c.1-.03.26-.06.29-.14zm1.5 1.92c-.12 0-.21-.06-.22-.14a.19.19 0 0 1 .18-.19.21.21 0 0 1 .22.15c0 .09-.09.17-.18.18zm-3.35.08a1 1 0 0 1 0-.24c0-.11.13-.15.26-.09a1.25 1.25 0 0 1 .12.08 1.86 1.86 0 0 0 -.33.58.41.41 0 0 1 -.55.32s.05-.09.09-.1a.51.51 0 0 0 .39-.55zm.44 1.09a.39.39 0 0 1 .07.23.33.33 0 0 1 -.28.3c-.11 0-.21-.12-.23-.28v-.08a.28.28 0 0 1 0-.09.22.22 0 0 1 .17-.21.24.24 0 0 1 .25.13zm-1-1.09a.54.54 0 0 1 .28-.19c.06 0 .1 0 .09.1a1.53 1.53 0 0 1 -.11.27.12.12 0 0 1 -.2 0c-.04-.03-.09-.1-.03-.18zm-.19.26a.15.15 0 0 1 .16.08c0 .09.06.18.1.27s-.17.17-.28.22l-.09-.43c-.01-.03.03-.08.11-.14zm-.05.65a.12.12 0 0 1 -.08.11zm-2 2a3.72 3.72 0 0 0 .5-.2c.19-.11.1-.37.23-.52l-.14-.13s-.09-.06-.06-.11a.4.4 0 0 1 .13-.13c.08 0 .15 0 .22.05s.12 0 .15-.08a.92.92 0 0 1 0 .18.21.21 0 0 0 0-.18l.12-.07c-.27-.21-.27-.26 0-.44a1.83 1.83 0 0 1 .24-.13.91.91 0 0 0 .09.17c.13.11.12.21 0 .33a.62.62 0 0 0 .05.63.66.66 0 0 1 .13.45.51.51 0 0 0 .47.2c.18 0 .32 0 .37.25a.21.21 0 0 0 .23.15 1 1 0 0 1 .24 0c.2.06.27.15.26.35a4.17 4.17 0 0 1 -.08.58.11.11 0 0 1 0 0 .32.32 0 0 1 .05.23.93.93 0 0 0 .21.68 1.58 1.58 0 0 1 .12.15.35.35 0 0 1 0 .41 1.51 1.51 0 0 0 -.09.18s0 0 .06 0c.12.12.22.25.34.36a.46.46 0 0 1 .09.59 2.26 2.26 0 0 1 -.24.43 1 1 0 0 0 -.27.56.65.65 0 0 1 -.09.23c-.07.12-.16.13-.38.06 0-.18 0-.36-.3-.35a.34.34 0 0 1 -.49-.05.55.55 0 0 0 -.6-.2.14.14 0 0 1 -.09 0c-.15 0-.18-.12-.13-.26s0-.46 0-.69.09-.39.45-.47a.43.43 0 0 0 .33-.25 1 1 0 0 1 .1-.17.33.33 0 0 1 .24-.14.6.6 0 0 0 .24-.05c.13-.09.35-.05.39-.24s-.16-.19-.22-.3l-.14-.25c-.14 0-.24.1-.25.26a.65.65 0 0 1 0 .2.13.13 0 0 1 -.16.07.37.37 0 0 1 -.29-.31 1.36 1.36 0 0 0 -.25-.53 1.21 1.21 0 0 1 -.22-.49.88.88 0 0 0 -.81-.42.5.5 0 0 1 -.37-.24.49.49 0 0 0 -.53-.16.25.25 0 0 1 .15-.14zm3.47-1.11a.21.21 0 0 1 .09-.21.74.74 0 0 1 .45-.1 1 1 0 0 1 .35 0c.07 0 .11.15.06.2a.72.72 0 0 1 -.83.21.19.19 0 0 1 -.12-.05zm0 17.14a.2.2 0 0 1 -.2.17.2.2 0 0 1 -.2-.22.19.19 0 0 1 .22-.19.19.19 0 0 1 .19.29zm-2.21-8a.22.22 0 0 1 -.3-.07.75.75 0 0 1 -.07-.33c0-.06 0-.13.06-.15a.13.13 0 0 1 .13 0 1.79 1.79 0 0 1 .25.22.22.22 0 0 1 -.06.36zm-1.3-3.06s0-.06.05-.06.07 0 .08 0a.58.58 0 0 1 0 .18c0 .07 0 .14-.1.13s-.07-.05-.08-.09v-.15s.03.02.05-.01zm.57 1.29a.26.26 0 0 1 .21.37c-.09.18-.19.35-.4.4 0 0-.06 0-.09 0s-.29-.14-.46-.06c0 0-.09 0-.11-.07a1.69 1.69 0 0 1 -.13-.31c0-.09-.07-.19 0-.27s.16 0 .24.05h.14a.69.69 0 0 1 .6-.11zm-1-5.7c0-.16 0-.16.27-.16v.14s-.17.17-.27.26a1.94 1.94 0 0 1 .02-.24zm-2.19 4.4c.12-.11.18-.22 0-.37s0-.07 0-.08a2.48 2.48 0 0 0 .58-.54s0 0 0 0c0-.17-.2-.36.06-.51.17-.11.17-.11.17-.2s0-.1 0-.11c.22 0 .25-.19.25-.37s.31-.08.45-.16.19-.19.13-.28a.62.62 0 0 1 0-.56 1.22 1.22 0 0 0 0-.57c-.06-.31 0-.53.39-.42h.19c0 .3-.27.3-.47.42.12.15.25.28.18.47s.07.13 0 .19l-.12.23a.8.8 0 0 1 .13 1c0 .09-.07.18-.11.28h-.02s0 0 0 .05l.08.14.09.5a.17.17 0 0 1 .13.13 3.31 3.31 0 0 0 0 .33.44.44 0 0 1 -.17.55c-.09.08-.22.13-.2.3s-.07.23-.19.3a1 1 0 0 1 -.4.18 1.84 1.84 0 0 0 -.49.19 1.64 1.64 0 0 0 -.2-.6c-.06 0-.08 0-.12.05s-.28 0-.27-.15 0-.23-.09-.3.01-.06.04-.09zm1.31 1.77v-.1s.05.07 0 .1zm-.5-.5a.08.08 0 0 1 -.09-.09zm-2.26 1.34s0 .05 0 .07 0 .09-.09.08 0 0 0-.07.02-.1.09-.08zm4.51 4.34a.09.09 0 0 1 -.13 0 2.12 2.12 0 0 1 -.34-.69s0-.09.1-.1.09 0 .11.06c.1.21.2.43.29.66.01.01-.01.05-.03.07zm.75-.56a.92.92 0 0 0 -.45.17c-.06.06-.15 0-.21 0v-.13l.06-.47-.26-.12a1.21 1.21 0 0 1 -.35-.13c-.09-.08 0-.25-.15-.34-.12.24-.12.24-.3.19a.42.42 0 0 1 -.27-.17c-.18-.16-.33-.08-.49 0s-.12.16 0 .23.27.14.3.3a.1.1 0 0 1 0 .13.12.12 0 0 1 -.08 0c0-.06-.07-.14-.11-.21a.15.15 0 0 0 -.22 0c-.06.06-.11.12 0 .2.07.07.13.15.08.25s-.13.08-.21.09a1.93 1.93 0 0 0 -.58.08 1 1 0 0 1 0 .18c0 .12-.1.14-.21.11a.37.37 0 0 1 .18-.36c-.16-.22-.16-.23.08-.3a2 2 0 0 0 .19.1.13.13 0 0 0 .12-.05.18.18 0 0 0 0-.13c-.19-.21-.2-.28 0-.47a.9.9 0 0 1 .4-.26 2.63 2.63 0 0 0 .89-.73.23.23 0 0 0 .01-.16c0-.08 0-.16 0-.24l-.11-.08a2.07 2.07 0 0 0 -.24-.17.17.17 0 0 0 -.22 0 .37.37 0 0 1 -.51.12 1 1 0 0 0 -.62 0l-.1-.07h-.1c0 .17 0 .21-.11.19s0 0-.09 0h-.1l-.08.1v.24s-.08.15-.19.08l-.15-.11v.07c0 .26 0 .26-.29.31 0 .28 0 .3.17.37h.15c.19 0 .24.19.28.35s0 .06 0 .08-.07 0-.09 0l-.28-.19-.4.2c-.31.22-.73.18-1 .41-.09.07-.26 0-.25-.15 0-.29-.1-.59.08-.85 0-.13 0-.26 0-.39a.61.61 0 0 1 .13-.63l.07.05h.1s.14 0 .19-.08a.4.4 0 0 0 -.16-.28c-.07-.06-.18-.1-.13-.22s.14-.06.21-.07h.09c.07-.1.18-.08.27-.11.14-.25 0-.59.28-.81.08-.07 0-.25.14-.29a1.23 1.23 0 0 1 .33 0h.49a.5.5 0 0 0 .34-.16c0-.07 0-.15 0-.23s.07-.09.11-.06c.22.18.49.12.73.17l.11-.19c0 .12.07.26.26.2a.49.49 0 0 1 .53.14c0 .05.09.1.06.17s-.1 0-.16.05a.1.1 0 0 0 -.08 0s0 .07 0 .08.12.05.13.12 0 0 0 .09a.67.67 0 0 0 0 .28.36.36 0 0 1 -.11.51c-.08.06-.09.12 0 .21s.08.17.13.25a.2.2 0 0 1 .09.21c.13 0 .25.06.3.2a.23.23 0 0 1 .38.13.55.55 0 0 1 .1.41c0 .08-.06.15-.08.22s.08.21.22.16a.83.83 0 0 0 .16-.09l.23-.18v-.17a.27.27 0 0 1 .39 0h.08c.08 0 0-.14.11-.18a.36.36 0 0 0 .3-.29.46.46 0 0 1 .23-.3 2.69 2.69 0 0 0 .87-1.08.55.55 0 0 1 .33-.35.75.75 0 0 1 .22.61 1.88 1.88 0 0 1 -.13.94.26.26 0 0 0 0 .15.22.22 0 0 1 -.16.26c-.07 0-.13 0-.15.11s-.12.13-.23.12a1.42 1.42 0 0 0 -.29 0c-.07.21-.23.25-.43.26a.09.09 0 0 0 0 .17c.13.09.2.15.09.31s0 .22 0 .33a.39.39 0 0 1 0 .24.12.12 0 0 1 -.18.07c-.07-.07-.12-.13-.2 0a.77.77 0 0 1 -.48.28zm1.67.59c.11 0 .18.22.13.32s-.17.05-.26 0a1.39 1.39 0 0 1 -.35-.16c-.15-.12-.27-.17-.42 0a.13.13 0 0 1 -.18 0 .22.22 0 0 1 -.06-.17c0-.19.16-.3.39-.3a.77.77 0 0 1 .32.09 1.27 1.27 0 0 0 .39.19zm-.25-2s0 0 0 0-.04.01-.04 0zm.73 11.61h-.15a.88.88 0 0 1 -.43-.1.21.21 0 0 1 -.14-.23.24.24 0 0 1 .18-.21.93.93 0 0 1 .61.1.27.27 0 0 1 .12.26c-.04.13-.13.16-.23.18zm-.15-1.06c.07 0 .12 0 .12.11a.12.12 0 0 1 -.1.14.11.11 0 0 1 -.15-.08.14.14 0 0 1 .13-.17zm1.62-3.52a.56.56 0 0 1 -.09.17.64.64 0 0 1 -.35.25c-.12.19-.24.34-.51.28s-.21 0-.21.21.17.36.07.57v.07c.31.22.33.62.59.88a.37.37 0 0 1 .07.37c0 .1-.18.06-.25.12a.56.56 0 0 1 -.18.07c-.11-.06-.21-.18-.3 0s-.14 0-.2 0l-.11-.09h-.08a.31.31 0 0 1 -.11-.09l-.19-.1a2 2 0 0 1 -.6.11.22.22 0 0 1 -.11 0l-.09.05-.09.1.07.06c.18.2.18.28 0 .43a1 1 0 0 1 -.64.2c.05.44 0 .55-.35.64a.41.41 0 0 1 -.16 0h-.11c-.06-.05-.16 0-.21-.09-.21-.24-.22-.26 0-.43a1.81 1.81 0 0 1 .3-.25c.26-.15.26-.16.18-.46v-.09a.27.27 0 0 1 .04-.26l.3-.15c-.09-.33-.09-.33.06-.74a.34.34 0 0 0 0-.24.57.57 0 0 1 .13-.63.83.83 0 0 0 .07-.13s.07-.09.06-.13c0-.19.08-.27.21-.39.33-.3.38-.35.66-.37.15-.18.38-.16.59-.2a.4.4 0 0 1 .39-.1h.1l.58-.08a.32.32 0 0 1 .42.44zm-.18-19.2a.15.15 0 0 1 .15-.16.18.18 0 0 1 .17.19.15.15 0 0 1 -.18.13.14.14 0 0 1 -.19-.16zm.37 22a.14.14 0 0 1 -.13-.16.14.14 0 0 1 .14-.15.14.14 0 0 1 .14.16c-.06.05-.1.11-.2.11zm0-22.89a.8.8 0 0 1 0 .15.21.21 0 0 1 -.41.09c0-.11 0-.23-.06-.34-.15-.05-.29-.06-.38.1a.3.3 0 0 0 0 .37l.09.11a.17.17 0 0 1 -.08.25.21.21 0 0 1 -.28-.1.62.62 0 0 1 0-.19c0-.27-.09-.35-.33-.4s-.2 0-.3 0 0-.06.06-.07.26-.22.16-.43.09-.08.16-.1a.38.38 0 0 1 .32-.48c.06.16.21.28.08.49s0 .22.16.23a2 2 0 0 0 .24 0c.14-.25.44-.08.62-.24a.15.15 0 0 1 .13 0 .2.2 0 0 1 .17.16.18.18 0 0 1 -.07.18l-.17.07c-.17-.08-.17-.08-.14.11zm.38 23.85c-.11 0-.2-.1-.19-.18a.27.27 0 0 1 .24-.19.2.2 0 0 1 .15.22.17.17 0 0 1 -.23.11zm0-21.34a.43.43 0 0 1 0-.05.09.09 0 0 1 .13 0 1 1 0 0 0 .77.27.25.25 0 0 1 .14 0 .24.24 0 0 1 .17.22.27.27 0 0 1 -.18.26h-.13a.87.87 0 0 1 -.94-.74zm.94 7.4a.16.16 0 0 1 -.13.18.15.15 0 0 1 -.15-.16.14.14 0 1 1 .28 0zm-.26 14.4a.18.18 0 0 1 -.16-.21.2.2 0 0 1 .24-.17.18.18 0 0 1 .16.21.2.2 0 0 1 -.28.13zm.48-.44a.51.51 0 0 1 -.38-.18.21.21 0 0 1 -.06-.19c0-.09 0-.19.05-.28s.11-.16.21-.09a1.06 1.06 0 0 1 .33.59c-.02.03-.11.12-.19.11zm.66-2.9h-.05l-.23.2c-.22.16-.34.13-.44-.12a.65.65 0 0 1 0-.2.54.54 0 0 0 -.12-.09h-.07c-.08-.06-.09-.12 0-.19a.17.17 0 0 0 .06-.06l-.16-.04c0-.11-.06-.24 0-.35a.6.6 0 0 1 .47-.72.55.55 0 0 1 .69.17c.06.07.13.17.22.17.26 0 .3.2.39.37.12.11.08.23 0 .35a.11.11 0 0 0 0 .17h.09a.15.15 0 0 0 .14-.16c0-.05 0-.09 0-.14 0-.21 0-.21.28-.31a1.26 1.26 0 0 1 1-.12c.17 0 .34.09.38.32 0 .07.1.12.15.19s.09.15 0 .22-.15.06-.19.14a1.27 1.27 0 0 1 -.76.64c-.14.19-.32.12-.5.07s-.15-.15-.11-.27c-.05-.07-.15-.05-.2-.11a.68.68 0 0 1 -.41-.21.18.18 0 0 0 -.24-.06l-.22.08a.17.17 0 0 1 -.23 0zm2.68 3.71s0 .1-.09.08 0 0 0-.08 0-.1.07-.1-.01.02-.02.06zm-1.65 1c-.06 0-.13.06-.17 0a1.15 1.15 0 0 1 -.08-.14q0-.14.09-.12a.34.34 0 0 1 .12.05.1.1 0 0 1 0 .13zm.24 1.07c.06-.05.23 0 .26.09a2.66 2.66 0 0 1 .1.38c0 .08-.05.14-.11.11a.44.44 0 0 0 -.5.07l-.49.31-.25-.24s0-.08 0-.08a.31.31 0 0 0 .37-.22c.13-.27.4-.34.58-.5zm-1.19 2.87c0-.17 0-.35-.05-.52.1 0 .18 0 .27-.07s.23-.1.42.16c.07 0 .1-.18.23-.07s.37.12.43-.1 0-.23 0-.34 0-.06 0-.08a.47.47 0 0 0 -.41.08c-.07.06-.15 0-.19-.06a.16.16 0 0 1 .09-.2c.1 0 .21-.07.31-.12a.14.14 0 0 0 0-.21l-.12-.08a.17.17 0 0 1 .17-.08h.52s.3-.12.26-.31a.65.65 0 0 0 -.08-.17c0-.07-.05-.15-.08-.22.16-.21.27-.42 0-.65a.15.15 0 0 1 0-.22.28.28 0 0 0 0-.23c-.07-.05-.22 0-.23-.12s0-.16-.12-.12-.23.08-.27-.17-.05-.32-.07-.48-.23 0-.31-.09c-.12-.11-.12-.13 0-.21a.33.33 0 0 1 .24-.07s0 0 0-.08a.13.13 0 0 1 .18 0l.06.06h.22a.4.4 0 0 1 .3.09.64.64 0 0 1 .32.18.32.32 0 0 0 .24.11.09.09 0 0 0 0-.07.47.47 0 0 1 .09-.12v-.27a.34.34 0 0 1 .18-.21l.31-.09c0-.09 0-.17.06-.21s.19 0 .28-.06.11-.2.26-.18.05.22.08.32.12.15.23.08l.19-.14c.18-.35.36-.7.55-1 0 0 .08-.05.12-.08s0-.12.07-.12c.24 0 .48-.2.74 0a.18.18 0 0 0 .19 0l.18-.08a1 1 0 0 1 .48-.07c.17 0 .11.22.22.29a.52.52 0 0 1 .11.1c.19.2.19.48.36.69v.14a3 3 0 0 1 -.15.31s.07.11 0 .13a1.11 1.11 0 0 0 -.11.78c0 .07 0 .16-.06.23a1.37 1.37 0 0 1 .11.72c0 .15-.16.3.05.43a.14.14 0 0 1 0 .09c-.13.31-.05.66-.15 1a1.54 1.54 0 0 0 -.08.19.05.05 0 0 1 -.09 0s0 0 0 0l.07.09a.27.27 0 0 1 0 .34 1.28 1.28 0 0 1 .43.49c.07.11 0 .19-.07.26a1.7 1.7 0 0 1 -1-.14.46.46 0 0 0 -.33 0h-.29c-.08 0-.12 0-.13-.11s0-.12-.06-.1-.32-.17-.51-.11a.26.26 0 0 1 -.21.11c-.07 0-.15 0-.15.1s-.05.2-.2.2a.3.3 0 0 0 -.29.24 1.06 1.06 0 0 1 -.46.6.27.27 0 0 1 -.17.3 1.13 1.13 0 0 0 -.2.13.65.65 0 0 1 -.36.12 1 1 0 0 0 -.55.27c0 .16.15.2.25.27a.28.28 0 0 1 .16.22.4.4 0 0 1 .34.46c0 .32.13.44.4.5a.82.82 0 0 1 -.33.18.17.17 0 0 1 -.13 0 2.23 2.23 0 0 0 -.41-.59c-.07-.09 0-.15.09-.14s.12 0 .1-.12-.07-.18-.1-.27h-.24c-.25 0-.32-.06-.31-.3a.61.61 0 0 1 0-.18l-.2-.78-.09-.11a3.78 3.78 0 0 1 -.35-.17c-.22-.12-.42-.16-.61.06a.46.46 0 0 1 -.16.11.36.36 0 0 1 -.52-.42zm4.47 3.38c.09.15.14-.05.22-.05h.1c0 .09 0 .19-.05.29s-.11.17-.21.12-.35-.14-.3-.42a1.07 1.07 0 0 0 -.13-.51.32.32 0 0 0 -.37-.25c-.18 0-.36.05-.53.07a.8.8 0 0 1 .6-.28.29.29 0 0 0 .26-.19.49.49 0 0 0 .09-.36c0-.15.19-.33.35-.31s.21.13.15.27a2 2 0 0 1 -.15.29c-.05.06-.16.07-.14.18s.11.11.18.15l.17.11c.19.14.2.21 0 .36l-.22.19c-.15.01-.16.09-.06.26zm-1.56 4.55a.59.59 0 0 0 -.19.33.61.61 0 0 1 -.48.54.69.69 0 0 1 -.2.28c-.2.17-.22.18-.36 0a.48.48 0 0 0 -.69-.1c-.34.22-.62 0-.81-.23a.14.14 0 0 1 0-.18.92.92 0 0 1 .21-.13.36.36 0 0 0 .22-.4c0-.13-.06-.16-.22-.11s-.24 0-.24-.13a.38.38 0 0 1 0-.15.26.26 0 0 1 .37-.2l.26.14a.28.28 0 0 0 .31-.06.27.27 0 0 0 0-.36c-.07-.09-.16-.17-.23-.25a.29.29 0 0 1 0-.4.17.17 0 0 1 .26 0 2.07 2.07 0 0 1 .15.25c.19.34.28.38.67.34h.35c.25 0 .36.2.47.4l.08.05c.19.17.2.19.07.37zm.56 4a.29.29 0 0 1 -.26-.2.33.33 0 0 1 0-.32.15.15 0 0 1 .08 0 .4.4 0 0 1 .36.35c.01.09-.12.19-.22.17zm1.39-3.64a.53.53 0 0 0 -.15.11c-.05.16-.19.15-.32.18s0 .05-.07.05c-.5.16-.61.06-.51-.46-.13-.09-.1-.18 0-.28a1.49 1.49 0 0 1 .3-.81.49.49 0 0 0 .3.35.19.19 0 0 1 .13.27 1.29 1.29 0 0 0 0 .19l.1.09h.1c.3 0 .31 0 .38-.28a1.27 1.27 0 0 0 0-.34.08.08 0 0 1 .1-.07.19.19 0 0 1 .13 0 .19.19 0 0 1 0 .18c0 .16.08.2.2.24l-.09.12a2.36 2.36 0 0 1 -.64.46zm2.35.75c-.09 0-.14 0-.16.12l.11.09a.12.12 0 0 1 0 .17 1.47 1.47 0 0 0 -.1.22l-.15-.07a.28.28 0 0 0 -.23.15.46.46 0 0 1 -.28.19c-.15 0-.33 0-.46.17s-.07.34-.08.52a.09.09 0 0 1 -.05.07.08.08 0 0 1 -.08 0c-.06-.09-.1-.2-.26-.13s-.09-.06-.07-.1c.15-.22.33-.42.48-.65 0-.06.18-.05.28-.06a.25.25 0 0 0 .25-.24c0-.17.17-.19.3-.21a.57.57 0 0 0 .05-.32c0-.22 0-.44 0-.66h.14a2.27 2.27 0 0 1 .44.54.14.14 0 0 1 -.17.2zm.44-2c-.13.06 0 .3-.19.32a.48.48 0 0 0 -.55-.08c-.11.07-.22 0-.33 0s-.21.18-.36.09 0 0 0 0 .12-.2.2-.24c.28-.15.25-.37.2-.61a.27.27 0 0 1 0-.09.74.74 0 0 0 .4-.14.71.71 0 0 1 .31-.22c.28 0 .44-.24.66-.36a.87.87 0 0 1 -.22 1.33.67.67 0 0 0 .24 0 .24.24 0 0 1 .27.21.76.76 0 0 0 -.45 0c-.2.02-.23-.02-.22-.18zm.7 2.2h-.12a.07.07 0 0 1 0 0 0 0 0 0 1 .08 0 .37.37 0 0 1 .05.11h.07v.45a.7.7 0 0 1 -.12-.53zm0-.69a2.3 2.3 0 0 0 -.28-.06c-.12 0-.1.09-.1.17-.17-.1-.2-.15-.13-.24a5 5 0 0 1 .55-.67.35.35 0 0 1 .08.32.59.59 0 0 0 0 .32c0 .15-.07.21-.2.19zm15 16-.2-.09c0-.07 0-.13.12-.1a.14.14 0 0 1 .08.1s-.12.08-.13.11zm4.52-40.2c.22.1.44.21.65.33a.14.14 0 0 1 0 .18.23.23 0 0 1 -.11.09s-.09 0-.07 0a.6.6 0 0 1 -.4-.06.46.46 0 0 1 -.28-.37c-.11-.05.01-.19.08-.15zm-1.41-8.7a.32.32 0 0 0 .3-.37c0-.26.16-.25.33-.23a.46.46 0 0 1 .25.15c.17.19.14.47.32.65v.09c-.1.19-.19.38-.29.56s-.07.06-.1.08h-.06l-.92-.45a.19.19 0 0 1 -.05-.13c.02-.15.04-.3.22-.35zm.45 3.55a.11.11 0 0 1 0 .18c-.05 0-.12.07-.15.12a1.43 1.43 0 0 0 -.12.21c-.08.17-.15.23-.23.18s-.06-.2 0-.3 0-.19.06-.29c.05-.39.05-.39.41-.41h.03c.12 0 .31-.1.35 0s-.22.1-.3.21 0 0-.07.06zm-1.18 5.19c.12 0 .25.17.24.27a.32.32 0 0 1 -.29.21.19.19 0 0 1 -.18-.23c-.02-.16.09-.27.2-.25zm-1.95 32a.48.48 0 0 1 .39-.18 1.1 1.1 0 0 1 .62.28.25.25 0 0 1 0 .09c-.11 0-.16.06-.14.22s-.23.17-.32 0-.1-.08-.17 0-.2.11-.28 0a1.32 1.32 0 0 1 -.12-.2.22.22 0 0 1 -.01-.18zm1.86 4.27c-.06 0-.12 0-.18 0l-.5-.32a.29.29 0 0 0 -.36 0 1.15 1.15 0 0 1 -1.06.17h-.09a.54.54 0 0 1 -.5.19.64.64 0 0 0 -.18-.06.71.71 0 0 1 -.73-.45 1.42 1.42 0 0 1 -.08-.18c-.16-.22-.16-.22 0-.36s.2-.21.29-.32a.66.66 0 0 1 .6-.25h.33.2a4 4 0 0 1 .77 0c.07 0 .14.07.21.11.05.06 0 .15.09.2l.1.1a.75.75 0 0 0 .13-.06.3.3 0 0 1 .43 0 3 3 0 0 1 .54.75 1 1 0 0 1 .07.23.17.17 0 0 1 -.11.28zm1.36-32.67a.13.13 0 0 1 -.08 0c-.42 0-.76-.16-1.12-.16a.31.31 0 0 1 -.28-.3c0-.12 0-.23 0-.35a.21.21 0 0 1 .23-.2c.13 0 .26 0 .39.06a.67.67 0 0 1 .62.35c.07.18.07.38.28.48.02.05-.02.13-.07.15zm0-6.56c0-.08 0-.16.1-.2s.14 0 .16 0 .16.26.25.43a.49.49 0 0 1 -.49-.2zm1.21 12.5a.81.81 0 0 1 -.52.15c-.16 0-.35 0-.42-.18a.5.5 0 0 1 .09-.51s.05 0 .07-.07a1.57 1.57 0 0 1 .53-.42c.07 0 .12-.13.21-.11s0 .14 0 .21a.53.53 0 0 0 .13.2c.29.34.25.57-.07.76zm17.6-5.61s.06 0 .08 0 0 .06 0 .07 0 0-.07 0-.02-.07-.01-.07zm0 .88c0-.06 0-.15.1-.12s.05.08.06.12a.25.25 0 0 1 -.06.31c-.06.05-.12.13-.08.21.14.28 0 .46-.19.65a.38.38 0 0 1 -.09-.35c0-.1.06-.19 0-.28s0-.27.11-.37a.2.2 0 0 0 .13-.17zm-.45-2.87s0 0 0 .06 0 .05-.07.05-.07 0 0-.09a.08.08 0 0 1 .05-.02zm-3-8.62a.29.29 0 0 1 -.11-.19.21.21 0 0 1 .04.19zm-1 .74a.14.14 0 0 1 .23-.08c.13.07.23.19.4.13 0-.09 0-.2.09-.27a1.49 1.49 0 0 0 .33-.52c.11.21.32.35.39.59-.24-.06-.24-.06-.41.2a.5.5 0 0 1 -.13.4c-.08.07-.17.12-.25 0a.18.18 0 0 0 -.25-.07l-.13.06c-.16.05-.27 0-.29-.16a.57.57 0 0 1 -.09-.28zm-1.33-2.6a.9.9 0 0 1 .2-.27c.07-.07.11-.16.21-.19a.34.34 0 0 0 .18-.21.33.33 0 0 1 .13.38l-.15.51.5-.1c-.14.25-.19.26-.5.1h-.1a2 2 0 0 1 -.21.1.23.23 0 0 1 -.26-.1.2.2 0 0 1 0-.22zm-.84 1.26c.07 0 .1.07.11.13s-.08.22-.16.2-.09-.09-.09-.16.04-.19.14-.2zm-.51-4.44s0 0 0 0zm-.77 6.06a.19.19 0 0 1 -.16.16.34.34 0 0 1 -.13 0h-.21a.13.13 0 0 1 -.08-.22.33.33 0 0 1 .44-.11.16.16 0 0 1 .14.17zm-1.26-6.49a.26.26 0 0 1 .28 0 .71.71 0 0 0 .55.25c.06 0 .09.11 0 .16l-.34.27a.9.9 0 0 1 -.18.16.27.27 0 0 1 -.36 0c-.11-.1-.08-.23 0-.35 0-.07-.07-.14-.1-.22s.11-.22.19-.27zm-.3 4.14a.5.5 0 0 1 .27.39.17.17 0 0 1 -.14.18h-.34c-.07 0-.11-.05-.14-.11a.65.65 0 0 1 0-.19c0-.17.25-.34.39-.27zm.07 3.79a.21.21 0 0 1 .12.07.15.15 0 0 1 0 .18.19.19 0 0 1 -.1.1 1 1 0 0 0 -.51.35h-.02s-.12-.08-.11-.14a.78.78 0 0 1 .66-.56zm-1.27-.32c.12 0 .15.09.19.18a.64.64 0 0 1 .06.18.17.17 0 0 1 -.16.2c-.16 0-.36-.14-.36-.26a.33.33 0 0 1 .27-.3zm-.91 1.92a.17.17 0 0 1 .2.1.71.71 0 0 1 0 .16c0 .13-.07.21-.18.24s-.16-.05-.19-.18a.78.78 0 0 1 0-.14.17.17 0 0 1 .17-.18zm-.28-1.67a.11.11 0 0 1 -.13-.11.19.19 0 0 1 .16-.16.11.11 0 0 1 .12.11.18.18 0 0 1 -.15.16zm-.9-3.92h.1l1 .08c-.08.18-.06.36-.21.43a.5.5 0 0 1 -.38 0 1.62 1.62 0 0 1 -.54-.31c-.12-.05-.05-.18.03-.2zm-2 18.12a.9.9 0 0 0 -.43-.05.16.16 0 0 1 -.15-.21c.05-.14.13-.27.29-.29h.29c.07 0 .16-.07.2-.14a.9.9 0 0 1 .83-.37h.24a.41.41 0 0 1 .3-.09h.19c.14.27.13.28-.08.48v.22c.09 0 .2 0 .23.15a.3.3 0 0 1 0 .23c-.16.22-.3.47-.61.52-.13.14-.26.23-.47.09a1.72 1.72 0 0 0 -.42-.11.76.76 0 0 1 -.31-.28zm0 .71c0 .12-.11.28-.21.28s-.16-.11-.17-.21a.22.22 0 0 1 .23-.23.16.16 0 0 1 .13.16zm1-9.91c0-.17.06-.23.16-.22a.2.2 0 0 1 .19.18c0 .09-.1.18-.2.18a.17.17 0 0 1 -.19-.14zm.9 6.18a3.12 3.12 0 0 0 -.62-.4.8.8 0 0 1 -.2-.21c-.07-.08 0-.19.09-.23h.15a2.21 2.21 0 0 1 .37.08 6 6 0 0 1 .63.39c.09.06.21.13.16.26a.35.35 0 0 1 -.3.22.3.3 0 0 1 -.33-.11zm-.3-21.8s0 0 0 0zm-.73.45c0-.14.2 0 .3-.1l.13-.05a.23.23 0 0 1 .28.14 1.11 1.11 0 0 1 .06.41.83.83 0 0 1 -.36.59.29.29 0 0 1 -.43-.07 1.17 1.17 0 0 1 -.14-.41c-.06-.2.08-.34.14-.51zm-.06 7.69a.26.26 0 0 1 -.35.21 1.38 1.38 0 0 1 -.26-.22.56.56 0 0 1 0-.1s.07-.09.1-.08a4 4 0 0 1 .5.1.09.09 0 0 1 -.03.09zm-1.6-4.43a.54.54 0 0 0 .24-.35.83.83 0 0 1 .12-.27c0-.08.1-.14.2-.11s.18 0 .27-.06.27 0 .27.16a.41.41 0 0 0 .17.38.36.36 0 0 1 .1.11.25.25 0 0 1 -.16.41c-.11 0-.24 0-.33.06a.83.83 0 0 1 -.53.14h-.13a.29.29 0 0 1 -.31-.19.21.21 0 0 1 .05-.28zm-.36 4.36c0-.09.11-.11.2-.09a.14.14 0 0 1 .14.16c0 .23-.19.41-.21.64s-.06 0-.06-.05a2.6 2.6 0 0 1 -.07-.36 1.46 1.46 0 0 1 0-.3zm0 5.6-.54-.47a.1.1 0 0 1 0-.09c0-.06.07-.06.12 0s.12.1.17.09c.28-.05.6 0 .85-.19l.1-.09a.42.42 0 0 1 .4-.24c.15 0 .19.11.22.23a.08.08 0 0 0 0 0 .35.35 0 0 1 .3.27s.1.07.16.09l.28.11c.38 0 .53.45.9.51a.16.16 0 0 1 .07.07.14.14 0 0 1 0 .09.14.14 0 0 1 -.06.07.57.57 0 0 1 -.61-.27c-.11-.17-.19-.18-.34-.07s-.1.25-.25.28a.77.77 0 0 1 -.59.13 1.44 1.44 0 0 1 -1.18-.52zm2.55 37.81c-.09.08-.15 0-.18 0a.35.35 0 0 0 -.19-.22 1.07 1.07 0 0 1 .3-.3l.09.29a.23.23 0 0 0 .01.23zm3.13-2.43a.23.23 0 0 1 -.12.06c-.08 0-.07-.09-.08-.15s0-.22 0-.33c-.13.05-.19.16-.27.26a.6.6 0 0 1 -.41.24c0 .14 0 .28-.22.28a.36.36 0 0 0 -.32 0s-.08 0-.1-.08a.19.19 0 0 1 0-.13c.05-.06.12-.13.21-.11.25.07.16-.06.13-.19a1.94 1.94 0 0 1 0-.34.17.17 0 0 1 0-.07c.19-.16.22-.15.38.08h.12a.36.36 0 0 1 0-.2l.39-.29.1.18h.09l.09.1s0 .1 0 .12a.08.08 0 0 1 -.12 0c0-.06 0-.12 0-.18a1 1 0 0 0 -.1.4.39.39 0 0 1 .3.21.17.17 0 0 1 -.04.14zm-.15-1.1-.1.1.11-.1zm.18.17c0-.11 0-.22 0-.33s0-.14.11-.15.08.07.1.13-.06.2.08.24a.38.38 0 0 1 -.26.11zm.7-.57h-.2a.2.2 0 0 1 -.05-.26.66.66 0 0 1 .34-.34v.5s.01.09-.06.1zm.29-17c-.08 0-.13.08-.18.15.1.31.1.31-.16.4l-.43.19a.47.47 0 0 0 -.1.1c0 .12 0 .23-.19.22a1.22 1.22 0 0 0 -.42.06c-.17 0-.26-.19-.39-.27-.1-.05-.21-.14-.31-.12a1.37 1.37 0 0 1 -.86-.29 4.66 4.66 0 0 0 -.88-.4.51.51 0 0 1 -.28-.19 2.08 2.08 0 0 0 -.21-.21 1.19 1.19 0 0 0 -.37-.29c-.2-.08-.2-.23-.13-.4a2 2 0 0 0 -.6-.09.5.5 0 0 1 -.5-.08.34.34 0 0 0 -.09-.12.59.59 0 0 1 -.2-.53.17.17 0 0 0 -.05-.13c-.18-.2-.11-.44-.1-.66a.28.28 0 0 1 .45-.18 1.83 1.83 0 0 1 .24.31c.07.11.12.23.25.29s.12 0 .14 0a5.5 5.5 0 0 0 .64.43.46.46 0 0 0 .54.09.53.53 0 0 1 .6.06.32.32 0 0 0 .32.07 1.87 1.87 0 0 1 .78 0 2.12 2.12 0 0 0 .44 0 .3.3 0 0 0 .29-.28c0-.08 0-.19.11-.2a.49.49 0 0 0 .33-.19.13.13 0 0 1 .13 0c.23.18.48 0 .71 0 .38-.19.47-.17.65.17.1.18.25.32.36.49l.09.11c.1.13.21.25.3.39a.28.28 0 0 1 -.09.42.56.56 0 0 1 -.23.07c-.06.13-.15.25-.2.38s-.1.21-.37.19zm-2.88-14.53s0-.07 0-.08a.27.27 0 0 1 .31 0 .16.16 0 0 1 0 .21.18.18 0 0 1 -.22 0c-.01 0-.08-.04-.09-.13zm1.07 5.87c.1 0 .19 0 .28.06s.26-.07.31-.22 0-.25.13-.23.06.19 0 .29a1 1 0 0 1 -.1.57c-.09.25-.18.33-.32.27a5.59 5.59 0 0 1 -.65-.32.13.13 0 0 1 -.05-.21c.13-.12.21-.24.4-.21zm0-5.39a.21.21 0 0 1 .23-.19.19.19 0 0 1 .2.17.23.23 0 0 1 -.23.25.21.21 0 0 1 -.21-.23zm1.55 3.64a.19.19 0 0 1 .18.14.2.2 0 0 1 -.16.26c-.09 0-.13-.06-.16-.14s.03-.26.13-.26zm.81 26.94a.54.54 0 0 1 -.05-.11c-.13.05-.24.06-.3-.09l.3-.11v.2h.11s-.03.09-.07.11zm2.75-3.11s-.05 0-.06-.06a.11.11 0 0 1 0-.08h.05v.09s.01.04.01.05zm2-2.33-.31.14s0 0 0 .06 0 0 0-.06c-.06.16-.06.16-.27.12-.13.2-.13.2-.32.12a.17.17 0 0 0 -.14.22c0 .09.08.18.1.27s.27.39-.09.51c-.1 0 0 .17 0 .27s-.06.26-.23.27-.25.16-.42.09-.1-.26-.21-.37a.28.28 0 0 1 -.08-.11 1 1 0 0 0 -.39.68.74.74 0 0 1 0 .14.18.18 0 0 1 -.31.08.5.5 0 0 0 .35.21.17.17 0 0 1 .11.09.92.92 0 0 1 .1.32.3.3 0 0 1 -.18.27.19.19 0 0 1 0 .08l-.27.46c0 .05-.07.12-.12.14-.21.08-.3.29-.47.41a.73.73 0 0 1 .11.64.15.15 0 0 1 -.11.14c-.09 0-.19 0-.23-.05a1.05 1.05 0 0 0 -.4-.41c-.22 0-.22-.08-.22-.17a.36.36 0 0 1 -.11-.17c-.06.06-.14.08-.24 0s-.12 0-.17.06a.38.38 0 0 1 -.35.09c.1.09.25.07.4.12a.15.15 0 0 1 .14-.16s.11 0 .12.06-.06.14-.14.16a3.4 3.4 0 0 1 -.53.39c0-.08 0-.16-.08-.22a.23.23 0 0 1 .09-.36c.08-.11.25-.14.28-.3a.19.19 0 0 1 .12-.14c.22-.07.27-.26.35-.43a.2.2 0 0 1 -.08-.08 4.14 4.14 0 0 1 -.18-.6.19.19 0 0 1 .1-.2 2.58 2.58 0 0 1 .09-.83c0-.25 0-.49.07-.74a.11.11 0 0 1 .14-.1c.07 0 .11 0 .13.12a.28.28 0 0 1 0 .09.53.53 0 0 0 .35.54l.14-.19c0-.06.09-.14.14-.2a.26.26 0 0 1 .35 0 .24.24 0 0 1 0 .35 1.18 1.18 0 0 1 -.21.18c-.11.08 0 .17 0 .25a1.94 1.94 0 0 0 .57-.12.68.68 0 0 1 0-.4c0-.08.07-.17.14-.19s.2-.12.12-.26c.19-.15.19-.41.34-.57l.18.15a3.71 3.71 0 0 1 .45-.43 1 1 0 0 0 .14-.2.65.65 0 0 1 0-.19.2.2 0 0 1 .23-.12.18.18 0 0 1 .16.21.42.42 0 0 0 .15-.11.7.7 0 0 1 .43-.21s.1 0 .12.06a.11.11 0 0 1 .05.13zm-2.3 2.33a.08.08 0 0 1 -.1-.08c0-.08.06-.11.13-.13s.06 0 .08 0-.07.2-.15.21zm.45-1.66c0-.16 0-.34.1-.49.09.33.09.33-.14.49zm1.17-14.34c-.07 0-.14 0-.15-.07s0-.08.07-.11.14-.12.21-.11a1.34 1.34 0 0 0 .73-.23 1 1 0 0 1 .33-.09.2.2 0 0 1 .18.06.6.6 0 0 1 .19.38c-.07.22 0 .51-.28.64-.05 0-.09.09-.12.14a.23.23 0 0 1 -.37.1c-.1-.05-.19 0-.27.06a.24.24 0 0 1 -.28 0 .45.45 0 0 0 -.6.11 1.08 1.08 0 0 1 -.26.14c-.09 0-.16 0-.17-.12a.52.52 0 0 1 .11-.4.71.71 0 0 1 .61-.34s.06 0 .09 0a.14.14 0 0 0 .06-.07c.01-.06-.03-.1-.08-.09zm-.32 11.13h.08c.08.06.12.13 0 .19a.42.42 0 0 0 -.21.31c-.17-.35-.15-.4.13-.5zm0-.24a.17.17 0 0 1 .09.19zm1.15 1.6c-.11 0-.17.16-.2.27a1.82 1.82 0 0 1 -.23.39c-.06 0-.12 0-.17 0l-.11.17s-.07.06-.11 0a.2.2 0 0 1 -.06-.2c0-.13 0-.26.05-.38a.1.1 0 0 0 0-.09s0 0-.08 0-.15.18-.25.14a.55.55 0 0 1 -.22-.25c-.07-.15 0-.28.07-.34a1.43 1.43 0 0 1 .61-.08c.09 0 .15.09.15.26s0 .1.08.05a1.09 1.09 0 0 0 .14-.31 1.71 1.71 0 0 1 .23-.6c.1.21.07.5.17.7s0 .25-.08.27zm.26-3.68a.18.18 0 0 0 -.12.27c0 .11 0 .18-.1.24a4.35 4.35 0 0 0 -.89.57c0-.17.09-.27.17-.39a1 1 0 0 0 .16-.88 3 3 0 0 0 -.2-.71.08.08 0 0 1 0-.08.16.16 0 0 1 .09 0 .67.67 0 0 1 .31.24 1.66 1.66 0 0 0 .59.43c.1 0 .15 0 .23-.06a.33.33 0 0 1 -.25.37zm.86 4.48c-.11 0-.22 0-.26.18a.33.33 0 0 1 -.11.15s-.06 0-.09 0-.18-.26-.09-.32.21-.35.35-.5c0 0 0 .09.08.11a.31.31 0 0 1 .11.38zm.73-7.56c0 .08-.12.09-.18.12 0-.07 0-.16.08-.21a.08.08 0 0 1 .08 0 .07.07 0 0 1 .02.09zm.29-11.69a1 1 0 0 1 -.11.27.35.35 0 0 1 -.12.1.23.23 0 0 1 -.27-.11.2.2 0 0 1 .08-.29l.27-.13a.08.08 0 0 1 .12 0 .15.15 0 0 1 .06.16zm.71-3.24a.4.4 0 0 0 -.24 0 .24.24 0 0 1 -.27-.16 1.54 1.54 0 0 0 -.08-.19c-.08-.13-.2-.18-.32-.06a.61.61 0 0 1 -.72.14.38.38 0 0 0 0 .41 3.36 3.36 0 0 0 .24.29c.1.09.14.18.07.3a.46.46 0 0 0 -.06.28h.08c.13.05.27.08.33.24a.5.5 0 0 1 0 .5c0 .14-.13.17-.24.21s-.3.12-.34.31.1.22.18.32a.48.48 0 0 1 -.26.7 2.53 2.53 0 0 0 -1.14.46.25.25 0 0 1 -.42-.06c-.09-.15-.24-.16-.35-.25a.37.37 0 0 0 -.27.06.27.27 0 0 1 -.31 0h-.13-.08c0 .05-.06.08-.07.14l.09.11a1.07 1.07 0 0 1 .61.15.27.27 0 0 1 .1.41.84.84 0 0 1 -.4.34 1.93 1.93 0 0 0 -.34.19.46.46 0 0 1 -.24.29.25.25 0 0 0 -.16.17c-.09.29-.22.58 0 .88a.19.19 0 0 1 0 .27.67.67 0 0 1 -.32.2.15.15 0 0 1 -.19-.11c-.05 0-.12 0-.13.07-.09.29-.33.38-.59.45-.07 0-.17 0-.19.11a.19.19 0 0 1 -.22.14c-.24 0-.35.14-.45.31a.13.13 0 0 1 -.2 0c-.13 0-.26-.16-.4 0a.15.15 0 0 1 -.18 0l-.3-.17a.18.18 0 0 1 -.06-.17 2.1 2.1 0 0 1 .06-.24v-.17a.86.86 0 0 0 -.3.3.09.09 0 0 1 -.07.06.08.08 0 0 1 -.08 0c-.12-.3-.07-.44.22-.62l.09-.2c.23-.23.46-.13.69 0a1.32 1.32 0 0 0 .32-.2.58.58 0 0 1 .67-.1.9.9 0 0 0 0-.23.25.25 0 0 1 0-.17s0-.06 0-.09a.48.48 0 0 1 .09-.11.39.39 0 0 0 .08-.1c0-.08 0-.18.06-.24a.59.59 0 0 0 0-.71 3.62 3.62 0 0 0 -.22-.32.35.35 0 0 1 -.06-.28.21.21 0 0 1 .34-.14.88.88 0 0 1 .12.15c.12.14.12.14.31 0l.08-.06a1.07 1.07 0 0 0 .26-.56c0-.19.18-.23.38-.12a.24.24 0 0 1 .06.08.49.49 0 0 0 .39.11s.07-.06.09-.1a.28.28 0 0 1 .2-.29l.68-.23c.07-.06.19-.07.22-.18a1.56 1.56 0 0 1 -.21.08c-.12-.11-.12-.13 0-.3v-.06a6.46 6.46 0 0 1 0-.88c-.06 0-.06-.08 0-.12s0 0 0-.06h-.18l-.08.23a.19.19 0 0 1 -.19.11.19.19 0 0 1 -.18-.14c-.05-.16-.1-.33-.14-.5a3.61 3.61 0 0 1 -.3-.25c-.23-.22-.23-.22-.48-.06l-.21.12a.19.19 0 0 1 -.26 0 .24.24 0 0 1 -.14-.24 4.21 4.21 0 0 1 .08-1.06c0-.05 0-.08-.08-.1l-.18.21v.05.13a1.41 1.41 0 0 0 0 .2c0 .19-.27.16-.37.29.31.21.31.21.39.57 0 .08.06.16.08.23.22.16.22.22 0 .38l-.11-.09-.39.59a.31.31 0 0 0 0 .1.18.18 0 0 1 -.08.17.13.13 0 0 1 -.17-.05 1.1 1.1 0 0 0 -.64-.4l-.11.08h-.09l-.34.16a1.45 1.45 0 0 1 .4.42c.06.06 0 .13 0 .18l-.15.12a.59.59 0 0 1 -.57.09c-.09 0-.11-.1-.13-.18s-.06-.14 0-.22a1.54 1.54 0 0 1 .12-.72v-.06a.43.43 0 0 1 .2-.29.54.54 0 0 0 .09-.12.19.19 0 0 1 0-.08l.1-.41a.65.65 0 0 0 -.17-.08.29.29 0 0 1 -.25-.2.82.82 0 0 1 -.38 0 .62.62 0 0 0 -.38.27.1.1 0 0 1 -.13 0 .17.17 0 0 1 -.07-.12c0-.15.12-.29 0-.43a.4.4 0 0 1 0-.41c.1-.2 0-.33-.21-.51a.22.22 0 0 1 0 .23.27.27 0 0 1 -.22.09.46.46 0 0 1 -.35-.23.32.32 0 0 1 0-.4.59.59 0 0 1 .36-.11c.2 0 .23-.06.18-.25s-.06-.25 0-.36a.77.77 0 0 1 0-.15.19.19 0 0 1 0-.13s.09 0 .12.05.33.2.39.42.14.07.21 0l.17-.17c.12-.18.13-.19 0-.33s-.08-.19 0-.28v-.1a.79.79 0 0 0 -.37-.85.58.58 0 0 1 -.13-.14l-.57-.28h-.2l-.18.09c-.11.09-.21.17-.38.09a.23.23 0 0 0 -.34.15l-.11.15a.62.62 0 0 1 -.58-.18 1 1 0 0 1 -.08-.11.27.27 0 0 1 0-.09l.09-.2c-.07-.1-.16-.09-.26-.05a.16.16 0 0 1 -.24-.08c-.06-.09 0-.18.05-.26l.19-.21c.06-.07.11-.13.2-.11s.15.11.17.2.28.25.47.1a.34.34 0 0 0 0-.28c-.36-.2-.37-.29 0-.51a.65.65 0 0 1 .23-.09.16.16 0 0 1 .2.09v.19s.07.2.23.2.25-.07.37 0a1.14 1.14 0 0 1 .37.61.24.24 0 0 1 0 .08c.18 0 .32 0 .37-.23s.09-.22.31-.18.2 0 .31-.16.29-.05.35-.23 0-.29.19-.3.21.14.31.22a2 2 0 0 1 .44.39.18.18 0 0 0 .22 0c.07-.06 0-.14 0-.21s0-.12-.08-.17l.09-.21c-.09-.2-.18-.39-.26-.58s0-.14 0-.19a1 1 0 0 0 0-.71.35.35 0 0 0 -.22-.32.28.28 0 0 1 -.07-.48 1.24 1.24 0 0 0 .28-.28l-.09-.1a.53.53 0 0 0 -.32.1.26.26 0 0 1 -.27 0c0 .05 0 .1-.08.13s-.27.14-.37-.05-.06-.12-.1-.17-.05-.21 0-.3a1 1 0 0 1 .2-.11l.11-.1a2 2 0 0 1 .74-.63c.13-.05.22-.19.33-.29s0-.12 0-.16-.09-.06-.1-.1a.52.52 0 0 1 .26-.53c.29-.15.3-.17.27-.48a.32.32 0 0 1 0-.09.16.16 0 0 1 .07-.07l.14.13a.66.66 0 0 1 .22.71s0 .08.07.12a1 1 0 0 1 .55.19c.22.12.28.35.37.56s0 .25-.07.37a.65.65 0 0 0 -.09.32c0 .29-.12.42-.35.51l-.32.12a1 1 0 0 0 0 .38c0 .1-.05.14-.14.13h-.14c-.18 0-.21 0-.22.21a.27.27 0 0 1 -.1.21c-.07.35-.06.38.23.48l.33.09c.08 0 .17.05.19.14s.29.25.46.32.29 0 .42-.1.07-.16.08-.26a.67.67 0 0 1 .07-.18v-.28a1.39 1.39 0 0 0 -.15-.19.41.41 0 0 1 0-.49c.09-.19.2-.2.39 0h.35c.1 0 .12-.09.13-.18a3.59 3.59 0 0 1 -.17-.34.3.3 0 0 1 .26-.45c.11 0 .19 0 .25-.09a.44.44 0 0 1 .66-.19c.4.06.79.15 1.19.24a.82.82 0 0 1 .39.18h.07a.88.88 0 0 1 .33.94.38.38 0 0 0 .08.32 1.2 1.2 0 0 1 .24.42c.05.31.19.58.26.88a.93.93 0 0 1 .09.4.52.52 0 0 1 .08.57s0 0 0 .05 0 .2.11.28a7.53 7.53 0 0 1 .41.8v.28a.24.24 0 0 1 -.07.31.83.83 0 0 1 -.34.2.33.33 0 0 0 -.22.18c-.14.44-.13.75.38 1 .12.05.25.07.37.11a.36.36 0 0 1 .29.49.88.88 0 0 1 -.1.22.34.34 0 0 0 0 .1v.03.19c.06 0 .07.07 0 .11 0 .2 0 .41-.09.6v.27a.16.16 0 0 1 0-.27.78.78 0 0 1 .08-.6v-.11c-.08 0-.17 0-.22.05a.29.29 0 0 1 -.43.16zm-7.62 3.11a.14.14 0 0 1 .08-.16c.24 0 .44 0 .45.3a.17.17 0 0 1 -.07.2.23.23 0 0 1 -.27 0 .45.45 0 0 1 -.19-.34zm1.62-.14a1.83 1.83 0 0 1 .53-.47.16.16 0 0 1 .22.05.18.18 0 0 1 0 .23c-.15.14-.32.27-.48.4h-.09a.18.18 0 0 1 -.17-.08.22.22 0 0 1 -.01-.13zm1.08-.37a.23.23 0 0 1 .25-.18.25.25 0 0 1 .24.26.26.26 0 0 1 -.26.24.27.27 0 0 1 -.23-.32zm5-4.56s0 0 0 0-.06 0 0-.06a0 0 0 0 1 0 .04zm.15 14.65a.7.7 0 0 1 .31-.28.31.31 0 0 1 -.31.26zm.6-4.74c-.21-.13-.11-.32-.09-.49a2.55 2.55 0 0 0 -.24-.31.92.92 0 0 1 -.22-.54.23.23 0 0 1 .13-.24l.23-.09c-.06-.2-.15-.4 0-.6a.69.69 0 0 0 .1.37c.07.11 0 .18-.09.23s0 .22 0 .33a2 2 0 0 1 .05.85.57.57 0 0 1 .13.47zm0-3.77c-.08 0-.15 0-.19.13-.29-.43-.29-.43.08-.77a.63.63 0 0 0 .17.38c.11.07.11.19-.08.24zm-.09-1c0 .1.11.19 0 .3-.06-.09-.14-.19-.02-.29zm.33-.77c-.06.15-.19.17-.33.17l-.07.11a.11.11 0 0 1 .07-.11.27.27 0 0 1 0-.39l.27.18.06-.07s-.01.08-.02.12zm.13 5.34a.09.09 0 0 1 0-.09s.05 0 .06 0z" fill="#ff5100"/></svg>