<svg viewBox="0 0 62.76 69.87" xmlns="http://www.w3.org/2000/svg"><path d="m59.87 35.91c-.09 0-.17 0-.11-.12a.3.3 0 0 0 0-.29 1 1 0 0 1 0-.73.17.17 0 0 0 0-.21.28.28 0 0 1 -.1-.37.45.45 0 0 0 -.11-.43c-.06-.12-.12-.25 0-.38s.12-.25 0-.38-.12-.15-.07-.2 0-.24 0-.33 0-.19 0-.29 0-.26 0-.36a1 1 0 0 1 0-.46.54.54 0 0 0 -.06-.36.35.35 0 0 1 0-.43.26.26 0 0 0 0-.3c-.13-.22-.08-.47-.16-.7s-.17-.46-.25-.7c0-.07-.07-.15-.05-.22a.75.75 0 0 0 -.12-.58.26.26 0 0 1 0-.17 2.54 2.54 0 0 0 -.18-.86c0-.22-.21-.4-.15-.66 0-.1-.16-.18-.12-.29s0-.27-.09-.41a.4.4 0 0 1 -.06-.35.41.41 0 0 0 0-.44c-.05-.08-.11-.17-.08-.26s.14-.35-.08-.49c0 0 0-.15 0-.23a1.14 1.14 0 0 0 -.22-.73c-.06-.05 0-.11 0-.17a.61.61 0 0 0 -.2-.39c-.17-.12-.34-.11-.43.09s-.1.38-.35.34-.53-.09-.66-.37a1.2 1.2 0 0 1 -.08-.27c-.07-.24-.16-.47-.23-.71s-.15-.48.26-.46a.22.22 0 0 0 .14 0 .33.33 0 0 0 .13-.07.28.28 0 0 0 .08-.11.63.63 0 0 1 .22-.33.19.19 0 0 0 0-.31c-.06 0 0-.14-.1-.19l-.94-1.58a.22.22 0 0 0 -.1-.09c-.54.11-.17-.32-.28-.48a2.79 2.79 0 0 1 -.36-.47c-.2-.08-.41-.05-.62-.15a.57.57 0 0 0 -.44 0l.13-.06c.42-.17.44-.23.14-.56-.06-.07-.1-.15-.15-.22l-.09-.11a.12.12 0 0 1 -.09-.09c-.29 0-.25-.26-.27-.45s-.14-.24-.21-.37-.29.08-.43.12a.68.68 0 0 1 -.86-.43c-.07-.21.1-.28.23-.35s.35-.2.22-.45c-.06 0 0-.14-.11-.19l-.14-.18a.28.28 0 0 0 -.23-.12.7.7 0 0 1 -.65-.45c-.06-.14-.14-.27-.21-.41s-.15-.27-.34-.26-.17-.07-.23-.15a3.65 3.65 0 0 0 -.58-.53 1.07 1.07 0 0 1 -.26-.26 5 5 0 0 0 -.85-1 3.27 3.27 0 0 1 -.44-.47.24.24 0 0 0 -.28-.06.5.5 0 0 0 -.23.48.68.68 0 0 1 0 .15s0-.05 0-.06a1 1 0 0 0 0-.3.36.36 0 0 0 -.07-.1.4.4 0 0 1 -.17-.09c-.16-.17.24-.22.09-.4a.21.21 0 0 0 -.09-.1 5 5 0 0 0 -.73-.37 1.81 1.81 0 0 1 -.59-.47c-.07-.1-.16-.15-.25 0a.07.07 0 0 1 -.14 0c0-.14-.24-.15-.27-.3s-.22-.18-.3-.16c-.27.05-.38-.1-.48-.3a.41.41 0 0 0 -.28-.09.28.28 0 0 0 -.27.21c-.05.18-.21.28-.32.42l-.12.14a.65.65 0 0 0 -.13.16.31.31 0 0 0 -.05.12 1.29 1.29 0 0 1 -.28.59 1.15 1.15 0 0 1 -.14.19 4.29 4.29 0 0 1 .48.36.74.74 0 0 1 .37.28.13.13 0 0 1 .12.08l.37.29.36.28c.05 0 .13.06.15.11.07.23.25.31.46.4a4.52 4.52 0 0 1 1.46 1 .65.65 0 0 1 .36.29.38.38 0 0 1 -.36-.29h-.37a.82.82 0 0 0 -.75.51 2 2 0 0 1 -.09.22c0 .08-.12.16-.22.15a.52.52 0 0 0 -.48.2.12.12 0 0 1 -.24-.01.13.13 0 0 1 -.05-.16.36.36 0 0 1 .07-.17c.05-.07.12-.14.18-.21a1 1 0 0 1 -.52-.18.3.3 0 0 0 -.34 0 .31.31 0 0 1 -.46-.16.8.8 0 0 0 -.08.16.48.48 0 0 1 -.42.38l-.18.05a.16.16 0 0 0 0 .27.85.85 0 0 0 .19.14c.07.27.07.29-.2.39l-.24-.14c-.16-.09-.37-.12-.44-.32a1.27 1.27 0 0 1 -.11-.77.87.87 0 0 0 -.05-.55h-.1c-.07 0-.15.08-.21.06a1.42 1.42 0 0 1 -.72-.34.43.43 0 0 1 0-.4.64.64 0 0 0 .06-.18.15.15 0 0 0 -.19-.14c-.07 0-.14.07-.21.09s-.09 0-.12 0a.17.17 0 0 1 0-.18s0 0 0 0 .23-.13.21-.29-.12-.18-.19-.26a1.05 1.05 0 0 1 -.2-.66 3 3 0 0 0 -.16-.66c-.1 0-.11.07-.12.12s-.07.34-.11.5a1.63 1.63 0 0 1 -.11.31.46.46 0 0 1 -.49.29.45.45 0 0 0 -.42.15.42.42 0 0 0 0 .51.49.49 0 0 1 .06.17c.06.23.11.39-.23.51l-.16.1a.17.17 0 0 0 -.06.2l.21.51a.33.33 0 0 0 .17.16.91.91 0 0 1 .48.64.36.36 0 0 0 .07.17.83.83 0 0 1 .09.67.79.79 0 0 1 .47.28c.28.18.42.5.66.72a.44.44 0 0 1 .07.17c.1.3 0 .66.29.91a.09.09 0 0 1 0 .09c-.06.16-.12.32-.19.47s-.11.06-.13 0-.05-.08-.1-.06a.18.18 0 0 0 -.09.1.61.61 0 0 0 0 .19 2.62 2.62 0 0 1 .11.4c0 .23.07.47-.23.57a.09.09 0 0 0 0 .15l.17.06c.35.08.41.15.4.5a1.21 1.21 0 0 1 0 .19.12.12 0 0 1 -.13.11 1.81 1.81 0 0 1 -.94-.22 1.35 1.35 0 0 0 -.51-.21.7.7 0 0 1 -.58-.48.84.84 0 0 0 -.14-.24.19.19 0 0 1 0-.31c.06 0 0-.12 0-.16s-.12-.06-.16 0a.85.85 0 0 1 -.37.28l-.2.11a.29.29 0 0 1 -.37-.1l-.36.08a.39.39 0 0 1 -.28 0h-.18a.19.19 0 0 0 0 .08.08.08 0 0 1 -.06.09l-.1-.09c-.29 0-.32 0-.32.26s0 .15 0 .23 0 .14-.09.15a1.2 1.2 0 0 0 -.55.33l-.16.08a.21.21 0 0 1 -.26-.05s-.07-.1-.11-.15a.31.31 0 0 0 -.24-.12.72.72 0 0 0 -.68.21.55.55 0 0 1 -.32.19 1.84 1.84 0 0 0 -.19.2 1 1 0 0 1 -.79.48.13.13 0 0 0 -.09.23c.42.41.34.49.75 0a.82.82 0 0 1 .7-.36.52.52 0 0 1 .42-.48h.16a.15.15 0 0 1 0 .13.71.71 0 0 1 -.32.32.3.3 0 0 1 -.26 0 2.09 2.09 0 0 1 -.39.72 1 1 0 0 0 -.2.46.2.2 0 0 1 -.33.12 1 1 0 0 1 -.24-.21.55.55 0 0 0 -.52-.24.45.45 0 0 1 -.56.05.18.18 0 0 0 -.36-.01.26.26 0 0 1 -.38 0c-.22-.19-.54-.23-.72-.5-.05-.09-.22 0-.28 0a.78.78 0 0 0 -.09.21.48.48 0 0 1 -.37.38c-.05 0 0 .14-.1.19a1 1 0 0 0 -.6.59 4.69 4.69 0 0 1 -.56.86.17.17 0 0 1 -.2.06.23.23 0 0 1 -.15-.26c0-.18.17-.29.27-.42a.1.1 0 0 0 0-.13h-.08-.09c-.19-.09-.22-.17-.13-.37a1.06 1.06 0 0 0 .11-.21 1.62 1.62 0 0 0 .15-1 .63.63 0 0 1 -.07-.22 1.42 1.42 0 0 1 .53-1c.09-.08.2 0 .24.09s0 .07 0 .1.09.13.17.08a2.25 2.25 0 0 1 .62-.2c.08 0 .18-.09.26 0a.79.79 0 0 1 .24.4.31.31 0 0 1 -.05.12c-.06.07-.14.12-.2.19a.15.15 0 0 0 0 .13.16.16 0 0 0 .11.07.14.14 0 0 0 .09 0 .43.43 0 0 1 .47.08c.21.16.23.15.44 0a.78.78 0 0 1 .37-.24l.09-.09.1-.19c-.06-.16-.1-.32-.16-.48a.63.63 0 0 1 0-.58.44.44 0 0 0 0-.4 1.19 1.19 0 0 1 -.11-.26s0-.08.09-.07a.67.67 0 0 1 .21.1c.14.09.27.2.41.3l.2.11c.09 0 .24-.05.29.08s0 .17-.06.26a.14.14 0 0 0 .12.17 1.44 1.44 0 0 0 .82 0 1.19 1.19 0 0 1 .72-.11.64.64 0 0 0 .6-.19l.13-.13c.1-.09.21-.14.33 0a.21.21 0 0 0 .29 0 .93.93 0 0 0 .34-.37h-.09a.26.26 0 0 1 -.32-.15.51.51 0 0 1 -.4-.19.62.62 0 0 1 -.11-.4 1.47 1.47 0 0 0 -.24-.88.18.18 0 0 1 0-.13c0-.05 0-.08.09-.08a.51.51 0 0 0 .71 0 .82.82 0 0 1 .41-.09c.13-.19.34-.32.41-.56s.16-.1.21 0 .16.26.35.21a.41.41 0 0 1 .27 0c.06 0 .12.07.18.06a1.07 1.07 0 0 1 .8.13s.12 0 .16-.06a.28.28 0 0 0 0-.38c-.1-.16-.21-.31-.32-.46s-.05-.06-.07-.06c-.26 0-.26-.18-.32-.37a1.48 1.48 0 0 0 -.65-.75 1.42 1.42 0 0 0 -1-.3.26.26 0 0 1 -.28-.2 1.64 1.64 0 0 0 -.41-.82.33.33 0 0 1 -.07-.17.56.56 0 0 0 -.25-.33l-.22-.17a.58.58 0 0 1 -.21-.36.57.57 0 0 0 -.18-.37.27.27 0 0 1 0-.34 2.64 2.64 0 0 0 .15-.29c0-.07 0-.17.08-.2a.28.28 0 0 1 .3.09c.09.11.16.23.24.35a.2.2 0 0 0 .16.07.18.18 0 0 0 .17-.15 1.84 1.84 0 0 0 -.1-1.18l-.07-.13c-.06-.12 0-.3-.11-.38a1.7 1.7 0 0 0 -.4-.13l-.09-.1c-.14.15-.19.36-.37.47-.1 0-.2 0-.22-.07-.06-.29-.21-.57-.08-.87a.62.62 0 0 0 -.17-.28.75.75 0 0 0 -.26.27.39.39 0 0 1 -.21.17c-.09 0-.16 0-.2-.08s0-.06 0-.08c-.11-.26-.11-.26-.41-.22-.11 0-.17 0-.19-.14a.51.51 0 0 1 .13-.47.35.35 0 0 0 0-.39c.12 0 .24.13.34 0s.14 0 .21 0a6.18 6.18 0 0 1 .86 0 .58.58 0 0 1 .25.12l.45.24a.8.8 0 0 0 1-.12 2.54 2.54 0 0 1 .87.12 1.15 1.15 0 0 0 .41.08 5.2 5.2 0 0 1 1.35.26l.19.08c.55.25 1.09.53 1.62.83l.17.08c.57.27 1.13.56 1.69.86-.07-.16-.18-.3-.26-.45a.3.3 0 0 0 -.48-.29h.12l.3-.1a.81.81 0 0 1 .48-.08c.2.06.31-.07.42-.2.21-.29 0-.38-.22-.49a3.8 3.8 0 0 0 -.77-.41 1.55 1.55 0 0 1 -.58-.43c-.11-.13-.24-.24-.35-.37-.12-.32-.43-.32-.69-.41a.32.32 0 0 1 -.21-.08c-.07-.07 0-.18-.12-.25a.08.08 0 0 0 -.07 0 .75.75 0 0 1 -.12-.07h-.17c-.21 0-.31-.18-.49-.24a2.69 2.69 0 0 1 -.57-.17.15.15 0 0 0 -.13 0 .23.23 0 0 1 -.3 0 .94.94 0 0 0 -.84-.13.33.33 0 0 1 -.38-.08.47.47 0 0 0 -.12-.07.15.15 0 0 0 -.24.11.78.78 0 0 0 0 .14c0 .19-.06.21-.25.16a10.11 10.11 0 0 0 -1.58-.42.19.19 0 0 1 -.13 0c-.24-.17-.45-.07-.66.07a.26.26 0 0 0 -.21-.28.21.21 0 0 0 -.13 0c-.18.11-.18.11-.3 0s-.05-.08-.11-.06a.11.11 0 0 0 -.07.11c0 .12 0 .24-.15.11s-.19 0-.26.06a.44.44 0 0 1 -.25.11c-.11 0-.14-.11-.2-.18s-.09 0-.11.06a.19.19 0 0 1 0 .08c-.12-.07-.3.08-.41-.08s-.19-.14-.29 0c-.07.07-.17-.1-.24 0l-.14.22c-.09-.06-.07-.13-.08-.18a.11.11 0 0 0 -.08-.11 1.13 1.13 0 0 0 -.41 0c-.09 0-.12.18-.29.1a1.24 1.24 0 0 1 -.28-.11c-.08-.07-.17 0-.24.08h-.11a.36.36 0 0 0 -.42-.1c-.13 0-.2-.06-.29-.1s-.2 0-.21.16 0 .18-.14.17a1.41 1.41 0 0 1 -.57-.14c-.11-.07-.15 0-.22.06s-.11.11-.15 0 0-.12-.11-.11h-.18a1.17 1.17 0 0 1 0 .2.15.15 0 0 1 -.09.1s0 .08-.1.08 0 0 0 0c-.06 0-.21 0-.2-.09.06-.47-.21-.33-.46-.26-.27.09-.43.38-.75.38a.05.05 0 0 0 0 0s0 0 0 0h-.07c-.15-.06-.25-.19-.39-.26a.49.49 0 0 0 -.37.1c-.14.35-.35.53-.74.36-.08-.11-.25-.14-.27-.32s-.12-.11-.21 0c-.18.14.11.45-.2.54-.16 0-.23-.06-.25-.21s0-.15-.14-.14-.12.07-.14.15v.09c0 .09-.09.1-.18 0a1 1 0 0 0 -.18 0c-.16 0-.31.06-.47.07h-.11c-.13 0-.08.26-.26.2h-.08c-.18-.14-.2-.15-.35 0a2.78 2.78 0 0 1 -.59.37h-.13a.07.07 0 0 1 -.08-.08c0-.07.06-.14.08-.21s0-.09 0-.13a.1.1 0 0 0 -.18 0c-.11.19-.11.19-.31.09-.18.24-.39.38-.69.19-.13-.08-.27-.1-.34.09s0 .09 0 .14c0 .21-.12.24-.32.15a1.33 1.33 0 0 1 -.12-.06h.15c.08 0 .06-.1.05-.16s0-.07-.1-.06h-.41l-.14.1-.11.05a.5.5 0 0 1 -.76.09l-.55.09c-.12.18-.09.43-.29.56l-1.16.67c-.27.16-.56.32-.84.46-.12.06-.16.19-.26.26s-.39.15-.48.37a.59.59 0 0 0 -.27.29c0 .08-.11.07-.18 0h-.08c-.19.21-.45.11-.67.17a.13.13 0 0 0 0 .19c.08.18-.09.31-.1.47s-.05.08-.1.09a.5.5 0 0 0 -.28.29c-.14-.06-.28-.16-.39.05a.17.17 0 0 1 -.17.07c-.14 0-.17.1-.22.19s0 .1.05.14.1.11.15.16 0 0 0 0h-.08-.07c-.18-.09-.19-.09-.32 0a.9.9 0 0 0 -.19.2c0 .09.08.2 0 .28-.1-.09-.21 0-.31 0s-.24.2-.37.28-.13.39-.25.55l-.08.06-.14.2c-.06 0-.1.11-.16.15a1.06 1.06 0 0 0 -.17.2h-.12s0 0-.06 0a.05.05 0 0 0 0 0 .22.22 0 0 0 -.09.1c-.07.08-.21 0-.28.1l-.25.45-.28.57a.59.59 0 0 1 0 .08c-.09.14-.1.14-.25 0s-.21 0-.28.11c-.21.17.08.36 0 .55-.38.17-.7.39-.72.85-.15.5.07 1-.12 1.53 0 0 .08.28-.14.11a.49.49 0 0 0 -.28-.11c-.21.09-.23-.22-.4-.2-.3-.08-.58-.15-.6.31a.3.3 0 0 1 -.16.28c-.51.14-.36.54-.36.88-.14.13 0 .32-.09.46s-.14.33-.2.49 0 .12 0 .17c.25.27.43.62.8.7a.28.28 0 0 1 -.27-.08c-.36-.31-.68-.27-.85.17a1.32 1.32 0 0 0 -.14.71c.19.26-.23.27-.19.47 0 .05 0 .14.1.18s.17.16.09.31-.19.28-.13.46l-.3.22a1.35 1.35 0 0 1 -.26.32.83.83 0 0 0 -.25 1c-.27.06-.59-.47-.8.08-.06.12-.11.25-.17.37a.11.11 0 0 1 -.12.06h-.09c0 .12 0 .25-.08.38a.53.53 0 0 0 .11.14.75.75 0 0 1 .31.53c-.15.1-.32 0-.46.06l-.1.06c-.85 5.13-.6 10.38-.56 15.6a2.08 2.08 0 0 1 .64-.16.4.4 0 0 0 0-.54.9.9 0 0 1 -.2-.77c0-.21-.37-.31-.17-.58s.52-.64.32-1.09a.19.19 0 0 1 .07-.21c.31-.21.68-.29 1-.49s.35.08.53.12h.08a2.27 2.27 0 0 0 .58 0 .21.21 0 0 0 .12-.05l.16-.12.09-.1a.31.31 0 0 0 .06-.13.59.59 0 0 0 0-.13.5.5 0 0 0 -.15-.14c-.15-.08-.39 0-.41-.28s.16-.34.36-.41a.74.74 0 0 0 .13-.12 1.27 1.27 0 0 0 .56-1.32c0-.24.12-.2.26-.19.52-.3 1-.58 1.56-.9l.11-.05a.2.2 0 0 1 .11 0c.21.08.58-.1.58.34a.43.43 0 0 0 .06.18c0 .05.12.05.13.13a.31.31 0 0 1 -.16.06c-.15.08-.31 0-.47 0s-.49.46-.87.34a.22.22 0 0 0 -.11.05 3.11 3.11 0 0 0 -.23.28.25.25 0 0 0 0 .11s0 .08 0 .11 0 .08 0 .11l-.06.17c-.08.18-.27.33-.16.55a.54.54 0 0 1 -.25.8c-.18.12-.14.48-.47.43-.13 0-.25 0-.38 0h-.12l-.17.18-.1.08a1.87 1.87 0 0 1 -.73.4.61.61 0 0 0 -.23.22 1 1 0 0 0 0 .51v.12a3.82 3.82 0 0 1 0 .67.39.39 0 0 0 0 .15.72.72 0 0 0 .11.19.38.38 0 0 0 .13.06.75.75 0 0 0 .21 0c.24-.08.34.1.46.24s.14.09.16.16c.17.41.47.41.82.26a.19.19 0 0 1 .11 0c.24.19.14.44.08.67s-.07.36.21.37a.76.76 0 0 0 .25-.19l.06-.1a.36.36 0 0 0 0-.09.25.25 0 0 1 0-.09l.11-.13c.28-.19.43-.4.06-.67-.15-.1 0-.32-.14-.46a.43.43 0 0 0 0 0v-.1s0-.07 0-.11a.54.54 0 0 1 .3-.37 1.06 1.06 0 0 1 .6.16.28.28 0 0 0 .13 0h.13.12c.39-.11.5-.34.31-.7h.18a.16.16 0 0 1 0 .07.39.39 0 0 1 0 .43l-.09.08a.7.7 0 0 0 -.19.15.36.36 0 0 0 -.07.1l-.06.11v.2a2.81 2.81 0 0 0 0 .41c.08.19.33.15.43.31s.31 0 .46.06.33.21.34.47 0 .57.36.64h.06c-.22.08-.23.33-.37.47a.46.46 0 0 0 -.71.16c-.32.23-.12.51-.07.77a1.23 1.23 0 0 0 .53 1.08c.15 0 .28.12.42.18h-.04c-.3.24-.7.26-1 .51s-.27.38-.53.3-.22-.33-.45-.37c-.47 0-.56.07-.49.53a2.56 2.56 0 0 1 0 .27 1.37 1.37 0 0 1 .17 1v.21a.48.48 0 0 0 -.33-.36 1 1 0 0 1 -.37-.26 1 1 0 0 0 -1.15-.2c-.24.12-.37.28-.26.56a2.51 2.51 0 0 1 0 .27c0 .2.48.53-.15.55-.18 0-.39 0-.48.19s.25.53-.19.68a1.71 1.71 0 0 1 -.76.2 8.51 8.51 0 0 1 -1.14-.22.27.27 0 0 0 -.12.06.55.55 0 0 0 .1.39 15.46 15.46 0 0 0 .83 1.48c.19.26.34.16.48 0a.65.65 0 0 0 -.11.55c.07 0 .05.13.11.17a5.85 5.85 0 0 1 .69 1.15 1.77 1.77 0 0 1 .08.31c0 .15.09.16.26 0a.37.37 0 0 1 .47-.1l.08.09c.1.07.16.16.08.28s-.34.24-.17.48a.28.28 0 0 0 .21.08.2.2 0 0 1 .21.07s0 .12 0 .18a.13.13 0 0 0 .08.15c.3.15.4.46.6.69s0 .28.07.34.2 0 .29.11 0 .28.15.37.26 0 .34.14.08.08.07.12 0 .25.18.21h.08s.21.3.31.46a1.32 1.32 0 0 0 .43.48.84.84 0 0 1 .18.15c.3.4.69.71 1 1.08.13.14.26.27.48.2a.09.09 0 0 1 .11.06 1 1 0 0 0 .36.48 8.56 8.56 0 0 1 .89.82.78.78 0 0 0 .15.1 11.47 11.47 0 0 1 1.19.65 4.09 4.09 0 0 0 .42.2.59.59 0 0 0 .27 0c.37 0 .38 0 .52.36a.31.31 0 0 0 .11.14l.48.3a4.71 4.71 0 0 1 .48.29 13.69 13.69 0 0 0 2.83 1.5 12.46 12.46 0 0 0 2.42.86 6.76 6.76 0 0 1 1.17.41c.08 0 .19.1 0 .19s0 0 0 .07l.26.09.73.18a1 1 0 0 0 .63 0 .81.81 0 0 1 .46 0 4.06 4.06 0 0 1 1.17.45h.09.08a.19.19 0 0 0 0-.08c0-.14 0-.17.09-.16a.56.56 0 0 1 .23 0 1 1 0 0 0 .88.09 1.35 1.35 0 0 1 .28 0c.19-.23.6-.26.64-.66 0-.09.1-.1.18-.07s.05.11 0 .19c0 .41.09.52.55.54.1 0 .2.11.31 0a.91.91 0 0 1 .48-.15 1 1 0 0 0 .56-.19.17.17 0 0 1 .17 0 1 1 0 0 0 .59 0 .63.63 0 0 1 .41 0c.1 0 .17 0 .19-.16a2.08 2.08 0 0 1 0-.23.13.13 0 0 1 .22-.07.87.87 0 0 0 .52.24s.06 0 .09 0c.31-.13.64 0 1-.1a.45.45 0 0 1 .46.17.2.2 0 0 0 .13 0 .82.82 0 0 1 .7-.07.62.62 0 0 0 .45-.11c.11-.06.15 0 .2.09a.26.26 0 0 0 .37.08c.14-.09.33 0 .45-.18a.22.22 0 0 1 .3 0 .45.45 0 0 0 .51 0 .79.79 0 0 1 .22-.06c.1-.1.21-.17.25-.32.14-.58.27-.66.82-.5a.28.28 0 0 0 .13 0 .56.56 0 0 0 .27-.3c.18-.19-.11-.45.09-.63.14 0 .15.17.26.21h.13.19a1.15 1.15 0 0 0 .77-1.39 2.42 2.42 0 0 1 0-.38c0-.24 0-.52-.22-.67s-.44.05-.67.27a1 1 0 0 1 .33-1 1.72 1.72 0 0 0 .64-1 1 1 0 0 1 .75-.72 1.85 1.85 0 0 0 .48-.19h-.07c.08-.15.23-.29.07-.47s-.21-.05-.28.06-.22.12-.35.06a.55.55 0 0 1 -.28-.21l-.26-.11c-.12-.06-.19-.17-.35-.2a.35.35 0 0 1 -.33-.37.13.13 0 0 1 .15-.13.78.78 0 0 1 .2.11 1.11 1.11 0 0 0 .32.25c.19-.15.22-.4.4-.56a.3.3 0 0 0 .06-.22 1.38 1.38 0 0 1 .1-.4c0-.06.06-.12.13-.12h-.16c-.15 0-.19-.17-.3-.25a2.32 2.32 0 0 1 -.44-.16c-.6-.32-.63-.68-.09-1.14l.12-.05a.66.66 0 0 0 .3-.15.24.24 0 0 0 .07-.12c-.08-.47-.38-.63-.81-.78-.61-.22-1.26-.08-1.86-.35a1 1 0 0 0 -1.15.39.82.82 0 0 1 -.35.31 1.87 1.87 0 0 1 .06-1.32.66.66 0 0 0 -.12-.27l-.1-.11a.24.24 0 0 0 -.11-.09c-.11 0-.25 0-.34-.12s-.28-.23-.41-.17l.09-.08a1.73 1.73 0 0 1 1.37-.12.59.59 0 0 0 .3 0 .55.55 0 0 0 -.3.43c0 .25.17.34.39.38s.55.37.8.59a1.6 1.6 0 0 0 1.64.3c.31-.13.53.12.64.39s.21.45.5.48h.51c.23 0 .42.14.64.15a3 3 0 0 1 .43 0h.11c.17.11.26.38.54.26s.27-.31.3-.53a.69.69 0 0 1 .57-.65c.27-.05.46-.26.72-.32.1 0 .23-.08.28.06s-.08.14-.16.18a.39.39 0 0 0 -.15.65.68.68 0 0 1 .11.53c0 .29-.08.59.29.73.15.06.1.19.1.31a2.43 2.43 0 0 1 -.77 1.55l-.11.07a.73.73 0 0 0 -.45.29l-.06.28h.08a.33.33 0 0 0 .43 0s0 .08 0 .09a1.63 1.63 0 0 1 -.64.36 1.32 1.32 0 0 1 -.57.74c-.19.12-.15.46-.26.68s0 .46.21.63a.42.42 0 0 1 .1.43.53.53 0 0 0 .15.57l.07.1c0 .06.1.15.17.16.6.1.77.56.9 1 0 .13.07.24.22.25a.29.29 0 0 0 .31-.23 2.1 2.1 0 0 0 .13-.55 2.44 2.44 0 0 1 .56-1.39c.17-.2.07-.45.15-.66a.54.54 0 0 1 .67-.33.28.28 0 0 0 .13 0 .53.53 0 0 0 .16-.55.76.76 0 0 1 .27-.78s0 0 0 0c0 .2.1.38.32.42a1.06 1.06 0 0 1 .68.49 2.45 2.45 0 0 0 1.4-.34.28.28 0 0 0 .1-.09c.07-.11.15-.14.26 0s.23.17.29.29c.3.55.73.55 1.22.29a2.6 2.6 0 0 1 .36-.3c.08-.28.34-.42.49-.64a2.72 2.72 0 0 0 1.2-.86c.08-.32-.09-.36-.32-.26s-.35.12-.49-.06a1 1 0 0 1 -.74-1.08.29.29 0 0 1 .08-.21c.16-.08.32 0 .48 0l.11-.08c.09-.07.18-.12.27-.18.27-.17.4-.28.39-.4l.07.11c.09.21.31.17.43-.06a.29.29 0 0 0 0 .2c.16.33.27.76.8.7l.1-.07a.5.5 0 0 1 -.11-.76l.51-.53a2.28 2.28 0 0 0 0-.74.51.51 0 0 1 .26-.54l.11-.08c.47-.31 1.06-.26 1.55-.52l.14-.14a.9.9 0 0 1 .21-.38 18.15 18.15 0 0 0 1.57-2.07 7.47 7.47 0 0 0 .84-1.92 3.12 3.12 0 0 1 .18-.48c.06-.12.1-.31.31-.27s.07-.06.09-.1c0-.13 0-.27.07-.4.22-1.28.32-2.57.54-3.84a10.81 10.81 0 0 1 1-3.19c0-.11 0-.23 0-.34a1.78 1.78 0 0 1 .07-.65c0-.11.06-.24.2-.3s0-.07 0-.07c-.18-.12 0-.29-.06-.43-.12-.31 0-.63 0-.95 0-.1 0-.2 0-.3s.08-.21 0-.3-.09-.24.07-.34.01-.2-.12-.21zm-19.32-23.29c-.11 0-.29-.07-.46-.13a.2.2 0 0 1 -.07-.31.41.41 0 0 1 .41-.16.56.56 0 0 1 .45.36c.04.13-.08.24-.33.24zm-4.79 2.72a.44.44 0 0 1 .42.24.16.16 0 0 1 -.12.21.37.37 0 0 1 -.39-.32.1.1 0 0 1 .09-.13zm-32.4 35.16a.15.15 0 0 1 .15-.1.23.23 0 0 0 -.15.1zm3.68-1a.73.73 0 0 0 -.45.75c0 .2-.21.25-.29.41 0-.18 0-.35-.18-.46-.66-.35-.78-.57-.67-1.26 0-.28.38-.17.48-.37a.26.26 0 0 0 .07-.06 1 1 0 0 1 .42-.4.58.58 0 0 0 .29-.48s0-.06 0-.09a.73.73 0 0 0 .16.42c.17.2.1.33 0 .5a.32.32 0 0 0 0 .14.25.25 0 0 0 .08.12.31.31 0 0 0 .13.06c.18 0 .36.06.54 0h.11a3 3 0 0 1 -.73.75zm10.54 6c.07-.05.13-.06.18 0zm.94.66a.72.72 0 0 1 -.56-.23c-.05 0 0-.08.07-.13-.21 0-.21 0-.27-.29a.83.83 0 0 1 .27.29l.38.14c.11.06.12.12.11.21zm.89-4.81a.26.26 0 0 1 -.31 0l-.1-.12a.2.2 0 0 1 0-.08 1.06 1.06 0 0 1 -.34.36 1.61 1.61 0 0 0 -.47.43c0 .05-.1.09-.16.05s0-.08 0-.12 0-.21-.11-.23a.52.52 0 0 1 -.48-.43c0-.14-.13-.15-.25-.16l-.08.1c-.18.21-.45.32-.58.57s-.5.29-.79.14l-.29.11a.25.25 0 0 1 -.07.12.23.23 0 0 1 -.19.09.35.35 0 0 0 -.24.08v.18s-.06.17-.13.13a.83.83 0 0 0 -.49-.11c-.15 0-.22-.13-.14-.26a2.56 2.56 0 0 1 .2-.26.07.07 0 0 0 0-.05c-.18-.1-.35-.21-.38-.44-.08 0-.16 0-.2 0s0 .07 0 .09a.74.74 0 0 1 -.43.55.78.78 0 0 0 -.15.1s0 .1 0 .14a.67.67 0 0 0 -.08.59c.05.17-.07.32-.2.45a.2.2 0 0 0 .24-.09l.18-.26a.21.21 0 0 1 .17-.21h.32a1.66 1.66 0 0 1 .49-.11c.08 0 .16 0 .19.1s0 .14-.08.2l-.1.09a.8.8 0 0 1 -.13.13.41.41 0 0 0 -.23.45v.05c0 .2-.06.28-.2.28a.57.57 0 0 1 -.24 0l-.09-.1c-.26-.25-.29-.24-.48 0a.2.2 0 0 0 0 .32 2.06 2.06 0 0 0 .31.28c.32.18.31.46.29.76 0 .11-.09.21 0 .31l.27-.08c.11-.05.16 0 .21.08s.08 0 .11 0a.14.14 0 0 0 .05-.08c.16-.34.17-.37.51-.33a.31.31 0 0 0 .39-.22.6.6 0 0 1 .51-.42h.06l.12-.09.18-.11-.28-.54a.15.15 0 0 1 0-.17.16.16 0 0 1 .21 0l.16.1a.47.47 0 0 0 .44.08.88.88 0 0 1 .93.25c.16 0 .32.14.48 0 0-.07-.06-.15 0-.21a.17.17 0 0 1 .18 0 .53.53 0 0 1 .15.11 1.82 1.82 0 0 0 .49.42.34.34 0 0 1 .18.25c.06.28-.1.43-.37.35a1.61 1.61 0 0 0 -.72-.16.21.21 0 0 1 -.27.13c-.16 0-.23 0-.26.18v.09a.52.52 0 0 1 .12.26c-.08.05-.15.11-.26.05l-.11-.05a.71.71 0 0 1 -.22.06.76.76 0 0 1 -.08.11h-.08a.24.24 0 0 1 -.06.11.49.49 0 0 0 -.09.39.59.59 0 0 1 -.07.41.15.15 0 0 1 -.15.08.16.16 0 0 1 -.15-.08.36.36 0 0 1 0-.09c0-.09 0-.23-.12-.27s-.14.09-.22.14-.27 0-.4 0-.13 0-.16.08a.17.17 0 0 0 0 .17c.2.3.2.32-.11.52a.87.87 0 0 1 -.45-.05.63.63 0 0 1 -.49-.44.58.58 0 0 0 -.75-.42h-.13a.36.36 0 0 1 -.52-.22 1.34 1.34 0 0 1 -.86.27.49.49 0 0 1 -.46-.48.17.17 0 0 1 .13-.18 2.48 2.48 0 0 1 .27 0 .51.51 0 0 0 -.21-.29.52.52 0 0 1 -.2-.4c0-.2-.09-.39-.1-.59a.41.41 0 0 0 -.47-.41h-.09a.49.49 0 0 1 -.58-.28s-.05 0-.08 0a.29.29 0 0 1 -.24.23c0 .09 0 .18-.08.26a.14.14 0 0 1 -.13.11c-.07 0-.11 0-.13-.11a.58.58 0 0 1 -.08-.39c.06-.1 0-.18 0-.27s-.25-.22-.34-.36-.34-.24-.53 0a.44.44 0 0 0 -.11.2.3.3 0 0 1 -.31.28.51.51 0 0 0 -.17.07.19.19 0 0 1 -.25 0 .18.18 0 0 1 0-.25.72.72 0 0 0 .16-.38.61.61 0 0 1 .16-.32.31.31 0 0 0 0-.45.48.48 0 0 0 -.19-.22.46.46 0 0 1 -.24-.51.13.13 0 0 1 .09-.09.21.21 0 0 1 .17 0l.25-.23v-.17a.67.67 0 0 1 .06-.12c.07-.06.15-.12.24-.08a.69.69 0 0 1 .31.18c.16.22.29.46.43.69l-.16.33a3.28 3.28 0 0 0 .87.5c.12 0 .24.1.35 0a.27.27 0 0 0 0-.34 1 1 0 0 1 -.1-.67 1.21 1.21 0 0 0 0-.19.39.39 0 0 0 -.2-.3c-.22-.13-.19-.26 0-.45 0-.06.05-.12.08-.19a.25.25 0 0 1 .13-.23.22.22 0 0 0 .09-.1c.06-.1.21-.13.21-.28l-.28-.07a1.83 1.83 0 0 1 -.25-.08c-.16-.1-.15-.23 0-.36h.08a.8.8 0 0 1 0-.46.32.32 0 0 0 -.21-.15c-.18.19-.38.31-.64.11l-.51-.14c-.1.06-.18.21-.31.17a1.17 1.17 0 0 1 -.39-.27.22.22 0 0 1 0-.26.75.75 0 0 1 .1-.2c0-.07.12-.13.12-.2a.64.64 0 0 1 .36-.59c.11-.06.09-.19.13-.29a.17.17 0 0 1 .3-.07.44.44 0 0 0 .4.17.56.56 0 0 0 .29-.14 1.33 1.33 0 0 1 .72-.46s0-.09 0-.13a1.08 1.08 0 0 1 0-.41c.08-.15.26 0 .39-.09s.08 0 .08-.09a.13.13 0 0 0 0-.12l-.21-.1a.5.5 0 0 1 -.17-.26l-.07.06a.42.42 0 0 0 -.11.38c0 .15-.09.09-.17 0s-.29-.14-.42-.24-.3-.23-.4-.4l-.14-.06h.05l.12.06a.27.27 0 0 0 .2 0 1.73 1.73 0 0 1 .24-.1.55.55 0 0 1 .18 0c.15-.27.24-.3.5-.12a.52.52 0 0 0 .07-.11.17.17 0 0 1 .2 0 .36.36 0 0 1 0 .09v.06a.59.59 0 0 1 .52 0 .59.59 0 0 0 .47.08c.27-.06.36 0 .37.29a.44.44 0 0 0 .33.48h.22c.28.27.7.4.78.85l.21.16c.4 0 .4 0 .52.35l.05.12.09.08.45-.06a1.33 1.33 0 0 0 -.2-.51.08.08 0 0 1 0-.08.11.11 0 0 1 .08 0l.08.05c.07.06.13.13.24.09a.32.32 0 0 0 .2-.24c0-.14 0-.28 0-.41s0-.13.1-.13.09 0 .13 0c.2.21.2.21.43.08v-.18a.6.6 0 0 0 -.26-.16.13.13 0 0 1 -.09-.17v-.14a.19.19 0 0 1 .11-.19c.11-.05.18 0 .24.09 0 .28.23.34.44.41a.5.5 0 0 0 .38 0c.1-.26.15-.27.45-.15a.46.46 0 0 1 .26.58c.11.15 0 .3 0 .45s-.09.07-.15.07-.2-.11-.31-.07a.94.94 0 0 1 -.27.81c0 .09-.11.18-.17.27s-.14.13-.27.07l-.29-.14a1.33 1.33 0 0 1 -1 .19h.1c0 .08.06.09.11.12a.22.22 0 0 1 .09.2.2.2 0 0 1 -.28.21 1 1 0 0 0 -.48-.13.61.61 0 0 0 -.27.15l.25.11c.09 0 .17.09.17.2s-.1.18-.21.21a1.8 1.8 0 0 0 -.22.06c-.07 0-.06.1 0 .16l.2.17a.59.59 0 0 1 .35.29.62.62 0 0 0 .72.3 1.61 1.61 0 0 0 .36-.1c.28-.12.53-.31.81-.43s.27-.29.35-.48a.18.18 0 0 1 .26-.11c.14.07.3.13.25.34a.34.34 0 0 0 0 .31l.15.18c.11.13.28.24.32.38a2 2 0 0 1 0 .64.44.44 0 0 0 .15.42.25.25 0 0 0 .34 0c.08-.07.15-.15.23-.23a.67.67 0 0 1 .06-.12c.14-.23.24-.26.43-.09a.48.48 0 0 0 .32.17s.05 0 .06.07c.03.35.01.45-.11.52zm1.68 6.65a.06.06 0 0 0 0 0c-.25-.1-.28-.32-.3-.55a1.31 1.31 0 0 1 .21.08c.23.23.23.23.09.47zm.95.27a.56.56 0 0 1 0-.12 4.06 4.06 0 0 1 -.7 0s0 0-.06-.06a1.2 1.2 0 0 1 .18-.26c.21-.18.24-.33.53 0 .1.12 0 .22.05.32l.16-.1h.06v.07a2.25 2.25 0 0 1 .08.24c-.23.07-.23.07-.34-.05zm1.8.35c-.19-.23-.41-.1-.61-.08a.5.5 0 0 0 -.13 0c-.06 0-.12.05-.16 0s0-.11 0-.16l.05-.08c.08 0 .2.1.22 0s0-.23.17-.13a1.53 1.53 0 0 0 .39.11c.16.06.27.15.26.33-.03.04-.17.08-.19.05zm.9-51.4a.18.18 0 0 1 -.07 0 .22.22 0 0 0 -.22 0l-.11.08c-.31.16-.5 0-.46-.29a.55.55 0 0 0 -.18-.49c-.07-.08-.13-.17-.2-.26a.42.42 0 0 1 .13 0c.15.11.25.13.39 0a.4.4 0 0 1 .46-.12c.14 0 .31 0 .43.13a1.12 1.12 0 0 0 -.22.16c-.17.2-.16.4.12.5h.09c.07 0 .2 0 .18.16a.27.27 0 0 1 -.34.17zm1.41 13.48a.17.17 0 0 1 .18.21.2.2 0 0 1 -.39 0 .22.22 0 0 1 .21-.21zm.27 40.15s0 0 0 0zm-.55-1.78c-.08 0-.13 0-.1-.11s.08-.23 0-.33c.16-.09.16-.09.3.12h.23a.24.24 0 0 1 .26.21v.19s0 .09-.1.06a1 1 0 0 0 -.59-.14zm.7 1.54a.09.09 0 0 1 -.08-.09c0-.05 0-.09.08-.1s.11 0 .1.13a.08.08 0 0 1 -.1.06zm.25-39.09s-.06 0-.09 0a.18.18 0 0 1 -.16-.08c0-.07-.08-.16 0-.21a.88.88 0 0 0 .27-.52.23.23 0 0 1 .27-.14.16.16 0 0 1 .14.17 1.36 1.36 0 0 1 -.43.78zm5.65-5.26a.2.2 0 0 0 -.2.16.37.37 0 0 1 -.39.27c-.11 0-.21 0-.32 0a.4.4 0 0 0 -.4.33 1.23 1.23 0 0 0 0 .78 2.12 2.12 0 0 1 .11.21v.17s-.08 0-.13 0a.73.73 0 0 0 -.65-.17h-.39a.86.86 0 0 0 -.14.13c0 .05-.07.11 0 .17s.15.35.41.28a.13.13 0 0 1 .14.1.15.15 0 0 1 -.07.16.58.58 0 0 1 -.15.11c-.14.1-.16.09-.31 0a2.1 2.1 0 0 0 -.27-.24c-.19-.15-.19-.14-.4 0a.8.8 0 0 1 -.19.13.13.13 0 0 1 -.2 0 .5.5 0 0 0 -.43-.31.74.74 0 0 1 -.14 0 .49.49 0 0 1 -.43-.51c0-.12 0-.23.05-.31a.53.53 0 0 0 .12-.52.88.88 0 0 1 0-.28.16.16 0 0 1 .09-.09.17.17 0 0 1 .11.06 1.09 1.09 0 0 1 .05.17c0 .07 0 .18.11.17s.07-.1.06-.16a3.7 3.7 0 0 0 0-.47.67.67 0 0 1 .12-.53l.13-.05c.09-.05.16-.1.1-.22a.89.89 0 0 1 -.08-.17.15.15 0 0 1 .06-.16.38.38 0 0 1 .51 0 5.78 5.78 0 0 0 .58.53 1 1 0 0 1 .29.72h.23a.67.67 0 0 0 .57-.1.43.43 0 0 1 .47-.08.34.34 0 0 0 .35-.06.27.27 0 0 0 .13-.35l-.16-.39c-.25-.23-.58-.36-.81-.61a.23.23 0 0 0 -.17-.08.67.67 0 0 1 -.52-.27.61.61 0 0 0 -.76-.15 1.57 1.57 0 0 1 -1 0 1 1 0 0 1 -.25-.12.18.18 0 0 1 0-.31.94.94 0 0 1 .56-.3.28.28 0 0 0 .28-.27c0-.2.11-.38.14-.58a.25.25 0 0 1 .24-.24.6.6 0 0 0 .45-.21c.12.11.09.25.14.36a1.32 1.32 0 0 0 .44.63 2.34 2.34 0 0 1 .45.53.8.8 0 0 0 .65.37 1.23 1.23 0 0 1 .89.45 1 1 0 0 1 0 .51c0 .08-.08.05-.14.05a.16.16 0 0 0 -.16.24 1.67 1.67 0 0 0 .45.47c-.06.1-.15.04-.22.05zm.22-2.16s0 0 0-.07.03.05 0 .07zm-1-3.95.37.09c-.09-.19-.09-.19.11-.24a1.14 1.14 0 0 1 0-.66s.06-.06.1-.09a.23.23 0 0 1 -.13-.25c0-.13.1-.25.15-.38a.72.72 0 0 0 .68 0c.11 0 .21-.07.27.06l.1.09h.08a1.42 1.42 0 0 1 .46.06c.1 0 .22.06.25.18s-.06.2-.15.27l-.37.28a.33.33 0 0 0 -.15.31c0 .13-.1.17-.21.21-.37.37-.55.35-.81-.12a.11.11 0 0 0 -.15 0l-.17.07a.51.51 0 0 1 -.09.27 1.13 1.13 0 0 1 0 .18.11.11 0 0 1 -.18.05.42.42 0 0 1 -.16-.32zm-2.88-1.41a3.29 3.29 0 0 0 .19-.81.65.65 0 0 1 .51-.58l.27-.08a.61.61 0 0 1 .37.08c.24 0 .3 0 .35.16s0 .15 0 .23a.22.22 0 0 0 .2.21 1.18 1.18 0 0 1 .3.05.31.31 0 0 1 .19.25.13.13 0 0 1 -.16.16c-.12 0-.22-.11-.34-.15s-.29-.08-.38.19a.14.14 0 0 1 -.17.11s-.06-.08-.1-.07-.25.14-.25.26-.05.37 0 .55a1.21 1.21 0 0 0 .05.18.34.34 0 0 0 .34.27 3 3 0 0 1 1.09.36l.1.09a.71.71 0 0 1 .1.35.57.57 0 0 0 .32.43c.17.1.35.19.4.42 0 .05.08.09.13.12a.31.31 0 0 1 .13.28s0 .11 0 .13a.41.41 0 0 1 .15.45.19.19 0 0 0 .11.23c.29.15.3.4.27.67v.18s.15 0 .21 0a.2.2 0 0 1 0 .22c0 .07-.07.15-.15.15s-.11-.11-.11-.18a.85.85 0 0 1 0-.22l-.78-.12a.19.19 0 0 1 -.17-.19c0-.16 0-.31 0-.47a.17.17 0 0 0 -.28-.12l-.26.2a.09.09 0 0 1 -.15 0l-.23-.66a.66.66 0 0 1 -.42-.33.33.33 0 0 1 -.06-.3.66.66 0 0 0 -.06-.61.34.34 0 0 1 0-.35c-.1-.08-.22-.13-.27-.26s-.13-.14-.25-.06a.13.13 0 0 1 -.12 0c-.13-.13-.3-.22-.39-.39s-.19-.28-.28-.43a1 1 0 0 0 -.3-.34.19.19 0 0 1 -.1-.26zm-1.05 3.93a.75.75 0 0 1 .06-.13c.1-.16 0-.46.25-.51s.3.19.45.29.17.07.26.12a.21.21 0 0 1 .07.35 1.6 1.6 0 0 1 -.27.25.49.49 0 0 0 -.25.37.48.48 0 0 1 -.17.32.24.24 0 0 1 -.3 0 .25.25 0 0 1 -.1-.29c0-.1.1 0 .15 0s.09 0 .1-.07a.37.37 0 0 0 -.15-.22.43.43 0 0 1 -.1-.48zm-.18 46.56a.43.43 0 0 0 -.09-.38.24.24 0 0 1 .22.28 2.17 2.17 0 0 0 0 .26c-.1-.02-.16-.08-.13-.16zm1.34 2a.06.06 0 0 1 0 0s0 0 .05 0zm0-1.88v.07c-.1-.05-.23-.09-.27-.17s-.29-.21-.47-.19a.22.22 0 0 1 -.09.19.45.45 0 0 0 -.12.27c.08 0 .15-.1.23 0a.08.08 0 0 1 0 .11c-.12.06-.15 0-.19-.11-.1 0-.21 0-.27-.09s.11 0 .11-.07c0-.26.19-.27.37-.3a.31.31 0 0 1 .37-.1 2.17 2.17 0 0 1 .42.17c.09.02-.01.1-.01.18zm.32.17c.09-.14 0-.3 0-.5l.38.23c.01.16-.13.23-.33.23zm.49-.26h.09zm5.82-1.73a.21.21 0 0 1 -.25-.15.2.2 0 0 1 0-.24s.1-.05.12 0a.41.41 0 0 1 .21.32c.11 0 .03.02-.03.03zm.19 2.8a.11.11 0 0 1 0-.08 0 0 0 0 1 .07 0 .11.11 0 0 1 0 .08s.01-.01-.02-.04zm.17.12.06-.12c.14-.33.14-.33.43-.13a.54.54 0 0 1 -.4.21zm1.85-1.12a.52.52 0 0 0 -.06.16c0 .17 0 .32-.23.27a.1.1 0 0 0 -.11.06.21.21 0 0 1 -.3.12c-.13 0-.17.17-.31.14l-.06-.08c-.13-.12-.14-.16 0-.29l.14-.11h.25.09a1.17 1.17 0 0 0 .64-.31zm-.67-.21a.15.15 0 0 1 0 .08.7.7 0 0 1 -.12 0l-.38-.07s-.05 0-.06 0a.1.1 0 0 1 0-.09 1.24 1.24 0 0 1 .18-.14.28.28 0 0 1 .43.18zm-1.49-2.7c.23.22.56.26.79.47s.26.09.39.15a.15.15 0 0 1 .05.23.4.4 0 0 1 -.56.13c-.15-.1-.36-.08-.46-.21a2.73 2.73 0 0 1 -.23-.45 1.3 1.3 0 0 0 -.15-.18s0-.06 0-.09l.06-.06s.14-.06.16-.03zm-.33-2.46a.21.21 0 0 1 .22.18.2.2 0 0 1 -.18.22.16.16 0 0 1 -.18-.16.19.19 0 0 1 .19-.28zm-5.15 5.64c-.11-.07-.2-.12-.19-.27s-.08-.08-.13-.11c.18-.13.38 0 .57 0 0 0 .07 0 .09.09a2.63 2.63 0 0 1 .09.3.54.54 0 0 1 -.38-.05zm.97.04a.32.32 0 0 1 -.25.06.38.38 0 0 1 -.29-.1h.3c0-.13-.13-.18-.14-.28s0-.24.2-.2l.3.12s-.08.11-.07.15.08.14 0 .21zm.19-.4.1.08a.14.14 0 0 1 -.05-.11zm.1.08a.11.11 0 0 1 .09.09zm1.04 1.9a.26.26 0 0 1 -.4 0 .08.08 0 0 1 0-.08.35.35 0 0 1 .43 0 .07.07 0 0 1 0 0s.04.04.02.05zm0-9.49a.35.35 0 0 0 0 .4c.08.1.18.19.07.32s-.23 0-.35 0-.52-.26-.84-.12c-.15.07-.26-.09-.23-.26a2 2 0 0 0 0-.42 2.25 2.25 0 0 0 -.06-.63c-.08-.37-.23-.75.08-1.09 0 0 0-.12 0-.18.24.39.34.88.8 1.11l.13.15a.44.44 0 0 0 .08.11s.11.07.15.11.25.28.41.38a.23.23 0 0 0 -.18.09zm.45 9.4s0 0-.07 0 0 0 0-.07 0 0 .07 0 .07.03.06.04zm0-9.43h.14a.32.32 0 0 1 -.01-.03zm.88-29c0 .07-.07.13-.12.12-.34 0-.59.19-.87.29s-.23.2-.14.37a1.94 1.94 0 0 1 .15.24c.06.11-.07.29-.18.25a.47.47 0 0 0 -.71.26c-.08.17-.28.18-.45.07a3.3 3.3 0 0 0 -.32-.18c-.18-.07-.21-.18-.1-.33a.86.86 0 0 1 .19-.19.32.32 0 0 1 .35 0c.22.1.27.07.34-.13s0-.15.05-.22v-.14c0-.27 0-.34.23-.42a.89.89 0 0 0 .57-.37.17.17 0 0 1 .26-.12l.74.28a.15.15 0 0 1 .1.19zm.25-.7v-.07a.2.2 0 0 1 0 .07zm.2.51s-.05 0-.05 0 .07-.01.06 0zm1.66 28.56c-.13-.13-.28-.25-.44-.12a.71.71 0 0 1 -.14.1c.23-.23.41-.16.6.08l.2.27a3.76 3.76 0 0 0 -.21-.33zm.46-29.57a1.14 1.14 0 0 1 -1 .67l-.1-.07a.12.12 0 0 1 0-.17l.76-.67a.17.17 0 0 1 .21 0 .2.2 0 0 1 .14.24zm4-.14c0 .19-.15.19-.3.12s-.29-.21-.45 0c0 0-.05 0-.05-.06a.47.47 0 0 1 .48-.52l.25.07c.31.09.31.11.03.39zm.59-.14s-.06 0-.07 0 .05-.1.13-.09a.18.18 0 0 1 .07.05s-.04.05-.17.04zm6.6-8a2.05 2.05 0 0 1 .4.38.35.35 0 0 1 .1.25 1 1 0 0 1 -.4-.22.34.34 0 0 1 -.14-.44zm-2.51 1.64a.14.14 0 0 1 .11-.06.29.29 0 0 0 .27-.14c0-.07.11-.05.14 0s.09.19.23.14a.38.38 0 0 1 .43.06.25.25 0 0 0 .22 0l.46-.07a.45.45 0 0 1 .32.05.14.14 0 0 1 .07.1c0 .05 0 .07-.09.08l-.13.07a1.11 1.11 0 0 0 .05.72 1.31 1.31 0 0 1 .06.59.5.5 0 0 1 .17.45c0 .32 0 .34.39.29a.47.47 0 0 1 .17 0 .26.26 0 0 0 .29 0c.13-.09.25 0 .37 0a1.07 1.07 0 0 0 .19-.13c.09-.1.08-.21 0-.25s-.33-.27-.52-.36v-.07a.69.69 0 0 1 -.64 0 .27.27 0 0 1 0-.31.66.66 0 0 1 .08-.78.27.27 0 0 0 .06-.12c0-.34.28-.4.56-.41h.14l.1-.1c.23-.24.24-.24.52 0l.07.06c.09.05.13 0 .17-.09.09.13.08.32.2.44.12 0 .22 0 .28.1a1.18 1.18 0 0 0 .29.3c.18.16.35.35.53.51l.07.08c.22-.05.35.06.32.31s.17.52.48.59c.29.34.56.7 1.1.48.18-.07.29.11.43.18s.43.09.6-.05a.05.05 0 0 0 0 0c-.22.3-.39.38-.62 0a.28.28 0 0 0 -.34-.1.22.22 0 0 0 -.16.29 2.7 2.7 0 0 1 .14.56c-.09-.16-.22-.3-.32-.46a.8.8 0 0 0 -.15-.21 1.78 1.78 0 0 1 -.3-.17c-.13-.07-.2-.26-.35-.31l.07.09.17.21.28.27a.2.2 0 0 1 .09.09l.11.18a.23.23 0 0 1 .09.18.27.27 0 0 1 .16.08s0 0 0 0l.21.26a.39.39 0 0 0 .08.1 2.51 2.51 0 0 1 .28.57h-.16a1.12 1.12 0 0 0 .18.2.76.76 0 0 1 -.19-.21 4.88 4.88 0 0 1 -.83.06 2 2 0 0 0 -.68-.08.19.19 0 0 1 -.24-.15l-.32-.18c-.1-.07-.22-.13-.27-.25s.06-.23.1-.34a1.72 1.72 0 0 0 .09-.63 1 1 0 0 0 -.22.27 1.13 1.13 0 0 1 -.19.44c-.06.11 0 .31-.21.32s-.34-.18-.44-.36c0 0 0-.07 0-.11a.2.2 0 0 1 0-.11.3.3 0 0 1 .08-.08l.2-.08a.68.68 0 0 1 -.13-.27c0-.1-.1-.12-.21-.12s-.21 0-.21-.2v-.27a.17.17 0 0 0 -.06-.06.1.1 0 0 0 -.08 0 .44.44 0 0 0 -.08.3c0 .08-.06.11-.13.09s-.18 0-.17.14a.37.37 0 0 1 -.08.3s0 .11 0 .13a.6.6 0 0 1 .17.62.57.57 0 0 0 .08.48c0-.06.08-.13.13-.18a.21.21 0 0 1 .21-.08.13.13 0 0 1 .13.1.11.11 0 0 1 -.07.14c-.13.05-.26.08-.39.12a.05.05 0 0 1 0 0c-.06.1-.1.26-.25.23s-.16-.2-.16-.34 0-.27 0-.41a.19.19 0 0 1 0-.07.23.23 0 0 0 -.08-.11l-.27.16a.2.2 0 0 1 -.29-.18c0-.07 0-.14 0-.22s-.07 0-.11-.06a2.21 2.21 0 0 1 -.86.3 1.33 1.33 0 0 1 -.09.21.21.21 0 0 1 -.29.07.34.34 0 0 0 -.35 0 .51.51 0 0 1 -.27 0 .39.39 0 0 1 -.28-.46 1.27 1.27 0 0 1 .06-.18.67.67 0 0 0 -.29-.8c-.22-.14-.41-.32-.64-.46a.76.76 0 0 1 -.4-.69.24.24 0 0 1 .12-.23.92.92 0 0 0 .08-.27c-.08-.36.18-.52.36-.73zm8.41 6.52c0 .06 0 .09-.08.09s-.13 0-.13-.09a.08.08 0 0 1 .08-.09.1.1 0 0 1 .11.09zm-1.2-1.55a.09.09 0 0 1 -.1.08.13.13 0 0 1 -.14-.14c0-.05 0-.08.09-.09a.15.15 0 0 1 .13.15zm-2 2.39a.18.18 0 0 1 -.17.17.18.18 0 0 1 -.18-.21.16.16 0 0 1 .19-.15.18.18 0 0 1 .17.19zm-1.75-2.48a.21.21 0 0 1 -.09.2 3.75 3.75 0 0 1 -.44.24.19.19 0 0 1 -.25-.07.18.18 0 0 1 .07-.27 3.18 3.18 0 0 0 .44-.26.19.19 0 0 1 .28.16zm-1.76-.42a.1.1 0 0 1 -.07.1.08.08 0 0 1 -.11-.08.09.09 0 0 1 .08-.09.1.1 0 0 1 .11.07zm-2.13-5.75a.37.37 0 0 1 .14.22.13.13 0 0 1 -.08.15.2.2 0 0 1 -.13 0 .23.23 0 0 1 -.16-.21c.01-.13.13-.15.24-.16zm-1.72 5.75a0 0 0 0 1 0 .07s-.02-.04.01-.07zm-1.55 2.05a.07.07 0 0 1 0-.07s0 0 .07 0 0 0 0 .06a.06.06 0 0 1 -.07.01zm3.27 34.47-.3-.09c-.09.1 0 .26-.11.33l-.16-.16a.22.22 0 0 1 0-.31.3.3 0 0 1 .2-.08c0-.12-.09-.24-.13-.35l-.09-.1a.78.78 0 0 1 -.1-.15c0-.11 0-.19.11-.21h.18c.14 0 .29 0 .38.12a.36.36 0 0 1 0 .43.51.51 0 0 0 0 .45.46.46 0 0 0 .26 0 .23.23 0 0 1 -.24.12zm.21-2.16a.21.21 0 0 1 -.19-.17c0-.08.08-.16.18-.16a.13.13 0 0 1 .15.13.18.18 0 0 1 -.14.2zm-.21-32.53a1.71 1.71 0 0 1 -1.11-.53 4.21 4.21 0 0 0 -.37-.36.17.17 0 0 0 -.25 0 1.35 1.35 0 0 1 -.45.33 1.45 1.45 0 0 0 -.39.41c-.1.11-.14.21 0 .32a.08.08 0 0 1 0 .12.2.2 0 0 1 -.13 0 .3.3 0 0 1 -.19-.12l-.27-.32c-.12-.15-.13-.15 0-.3a2.38 2.38 0 0 1 .31-.4 1.69 1.69 0 0 1 1.13-.49c.3-.21.64-.08 1-.06a1.45 1.45 0 0 0 .8-.17c.16-.09.31-.13.45 0s.26.08.4.07.26-.14.35-.28v-.08c-.06-.05-.12-.09-.13-.17a.41.41 0 0 1 0-.08h.07v.22a.52.52 0 0 1 .42.29.41.41 0 0 1 0 .46c0 .13-.12.24 0 .39s.1.2-.06.27-.38 0-.57-.08a.43.43 0 0 1 -.42.45 1.78 1.78 0 0 1 -.59.11zm1.36 32.23a.26.26 0 0 1 -.2.1.24.24 0 0 1 -.17-.14.15.15 0 0 1 .08-.2 2.33 2.33 0 0 0 .55-.32.31.31 0 0 1 .22-.07.85.85 0 0 0 .44-.11c.1 0 .19 0 .24.15s0 .24-.1.26a1.48 1.48 0 0 1 -.41.05.73.73 0 0 0 -.65.28zm.07-2.38a.52.52 0 0 1 .45-.19.18.18 0 0 1 .17.07c.05.1 0 .13-.1.18s-.16.14-.24.21c-.28-.02-.28-.05-.28-.27zm4.8 2.13c0 .3-.24.52-.22.81a.82.82 0 0 0 .25.6l-.18-.13a3.41 3.41 0 0 0 -.95-.14c-.35.1-.63.24-.51.69 0 .15-.11.24-.14.38a8 8 0 0 0 -.16 1.3s-.06.11-.09.1a3 3 0 0 0 -1.11 0c-.55 0-.76-.3-.9-.74a.28.28 0 0 1 0-.13c-.07-.54.33-.79.7-1 .13-.09.39 0 .41-.23s.17-.49.11-.76 0-.48.39-.4a4.26 4.26 0 0 1 .5.06h.13c.3 0 .52.22.8.27s.52-.17.78-.24a.36.36 0 0 0 .16-.14.31.31 0 0 0 0-.13c0-.16-.05-.38.13-.48-.06.02-.04.18-.06.26zm-1.25-2.69a.26.26 0 0 0 .09.16 3.36 3.36 0 0 0 -.64.82c-.07.1-.1.22-.2.3a.25.25 0 0 1 -.11.18.29.29 0 0 1 .11-.18.32.32 0 0 0 -.2-.18 5.24 5.24 0 0 1 -.73-.41c-.14-.08-.14-.24 0-.34a.68.68 0 0 1 .21-.1.27.27 0 0 0 .26-.27.33.33 0 0 1 .18-.26s.11-.07.17 0a.56.56 0 0 0 .49.05c.32-.13.35-.11.41.18zm-.13-1.15c.09 0 .16 0 .18.11a.1.1 0 0 1 -.1.13c-.08 0-.15 0-.17-.11a.1.1 0 0 1 .13-.18zm-1.54 2.5.05.07a.6.6 0 0 1 -.11.3.09.09 0 0 1 -.12 0 .12.12 0 0 1 -.07-.16.47.47 0 0 1 .29-.26zm1.9-2c0-.06.06-.14.15-.15s.13.06.18.11l-.27.46c-.03-.16-.12-.29-.02-.45zm.34 0 .09-.1a.13.13 0 0 1 -.05.03zm.71-1c-.08.12-.06.28-.12.4a1 1 0 0 1 -.42.42c0-.18.14-.29.2-.43s-.11-.06-.15 0a.22.22 0 0 1 -.24-.18l-.21-.24a.45.45 0 0 0 -.5-.14 1.17 1.17 0 0 1 -.36.21.45.45 0 0 1 -.39 0 .21.21 0 0 0 -.32.08 1.07 1.07 0 0 0 -.17.52.21.21 0 0 1 -.13.18.17.17 0 0 1 -.21 0l-.07-.06c-.05 0-.14-.08-.14 0a1.14 1.14 0 0 1 -.07.41c-.11.3-.1.31-.45.31-.13 0-.27.09-.4 0l-.08-.09a.28.28 0 0 1 0-.09c-.05-.13-.11-.25-.16-.37a.24.24 0 0 1 .16-.32.56.56 0 0 1 .36 0 .62.62 0 0 0 .08-.48c-.09-.24-.07-.27-.31-.21a.39.39 0 0 1 -.46-.1c-.12-.14-.31-.13-.46-.21s-.19-.13-.08-.3a.19.19 0 0 0 .1-.1c.09-.23.17-.47.27-.7a.22.22 0 0 1 .35-.08 1.38 1.38 0 0 0 .52.37c.11 0 0 .16 0 .25s0 .31.07.47 0 0 0 0l.6.31a.13.13 0 0 0 .17 0c.13-.18.38-.21.53-.36l.1-.19a2.14 2.14 0 0 0 .44-1.09.39.39 0 0 1 .22-.28.38.38 0 0 0 .19-.34c0-.23.15-.33.36-.35s.22.11.2.33a.59.59 0 0 0 0 .13l-.25.13a.58.58 0 0 0 -.3.66.42.42 0 0 1 -.12.46.7.7 0 0 0 -.2.5c0 .07 0 .13.08.14s.11 0 .14-.09l.09-.21c.21-.39.2-.29.54-.2a.28.28 0 0 1 .17.14c0 .06 0 .12.05.18a.37.37 0 0 0 .37.29h.84c-.08.18-.26.09-.39.23zm-3.15-.99a.19.19 0 0 1 -.2.19.15.15 0 0 1 -.12-.12c0-.09.1-.19.21-.19a.11.11 0 0 1 .11.16zm-.06-3.48a.18.18 0 0 1 .14-.21.22.22 0 0 1 .22.19.19.19 0 0 1 -.18.18.17.17 0 0 1 -.18-.12zm1.65-.64a.76.76 0 0 1 -.08-.11v-.06a.84.84 0 0 1 .16-.43.14.14 0 0 1 .25.05c0 .08 0 .16.13.21.25.12.35.38.5.58a.21.21 0 0 1 -.07.32l-.31.19c.07.14 0 .22-.08.23a.78.78 0 0 1 -.51-.19.32.32 0 0 0 -.44-.13c-.17.08-.25 0-.31-.14-.12-.07-.24-.14-.35-.22a.17.17 0 0 1 .05-.32.32.32 0 0 1 .38 0 .43.43 0 0 0 .28.13.12.12 0 0 1 .19 0 .35.35 0 0 0 .18-.18zm-.09-2.37a.25.25 0 0 1 .23-.24c.12 0 .23.15.23.3a.22.22 0 0 1 -.21.21.27.27 0 0 1 -.25-.23zm1.51 6.69c0 .09-.06.18-.15.19a.19.19 0 0 1 -.22-.13c0-.09 0-.18 0-.23a1.17 1.17 0 0 0 -.09-.63.5.5 0 0 1 0-.32.18.18 0 0 1 .12-.13.21.21 0 0 1 .17.05.78.78 0 0 1 .11.2 1.86 1.86 0 0 1 .08.41 2 2 0 0 0 -.02.59zm-.12-6.5a1 1 0 0 1 -.52.19.16.16 0 0 1 -.16-.14.58.58 0 0 1 .52-.56.14.14 0 0 1 .12.06.71.71 0 0 1 .11.25.18.18 0 0 1 -.07.24zm.79-3.62a.64.64 0 0 1 -.52-.31.55.55 0 0 1 0-.38v-.13l-.12-.06a.18.18 0 0 0 -.1-.09.73.73 0 0 1 -.3-.28.47.47 0 0 0 -.41-.17 3.43 3.43 0 0 1 -1.19-.13.81.81 0 0 0 -.41 0 .2.2 0 0 1 -.23-.12c-.19 0-.38.1-.56 0a.19.19 0 0 0 -.12-.07h-.07a1.7 1.7 0 0 1 -.22.15.28.28 0 0 1 -.34 0 1.53 1.53 0 0 0 -.27-.17.41.41 0 0 1 -.27-.38.18.18 0 0 1 -.12-.17.52.52 0 0 0 -.2-.24.46.46 0 0 1 -.19-.34 1.78 1.78 0 0 1 -.25-.38 1.47 1.47 0 0 1 -.17-.8.64.64 0 0 1 .22-.4.43.43 0 0 1 .43-.09.79.79 0 0 0 .49-.24c.23-.2.35-.17.49.09 0 .06 0 .12.07.17a1.29 1.29 0 0 1 .17.16c.08.09.15.14.27.07a.21.21 0 0 1 .29 0l.38.4a.26.26 0 0 1 0 .21c-.06.34 0 .34.27.52a.49.49 0 0 1 .24.27.65.65 0 0 0 .24.28c.06 0 .11 0 .13-.06s0-.13.1-.13.37-.13.56-.18a.56.56 0 0 0 .11-.56.4.4 0 0 1 .12-.45 1.72 1.72 0 0 0 .17-.19l.32.31c.15.08.28.2.46.08s.12 0 .17 0a.36.36 0 0 0 .27 0c.06-.06.1 0 .12 0a.23.23 0 0 1 .16.11 1 1 0 0 1 .08.22c0 .08.06.15.15.13s.12-.09.13-.17a1.2 1.2 0 0 0 0-.19l-.17-.38a.13.13 0 0 1 0-.16.17.17 0 0 1 .13 0l.21.09c.18.08.18.08.29-.08a.86.86 0 0 1 .1-.16c.43-.39.47-.36.83 0 .13.14.12.23 0 .34s-.32.15-.42.29 0 .17.08.21a.42.42 0 0 1 -.33.1h-.31a1.29 1.29 0 0 0 -.08.26.54.54 0 0 1 -.34.51.26.26 0 0 0 -.13.39.59.59 0 0 1 -.09.69l-.11.15a.27.27 0 0 1 -.36.08 2 2 0 0 0 -.26-.06c-.07 0-.1.05-.09.12s.17.25.14.42a.28.28 0 0 0 .29 0h.32c.09 0 .18-.1.26 0a.42.42 0 0 1 .11.29 0 0 0 0 1 0 0 .23.23 0 0 0 .09.35.12.12 0 0 1 0 .17s-.1.07-.12.06c-.19-.11-.35 0-.52 0s-.04.07-.07.07zm.35 16.6a.53.53 0 0 1 .11-.09zm.19-7c-.1.08-.26.12-.2.32 0 0-.05.1-.07.15a1.45 1.45 0 0 0 -.18-.32.16.16 0 0 1 .1-.22.43.43 0 0 1 .35.06l.1-.08a.15.15 0 0 1 -.1.15zm2-3.45a1 1 0 0 0 -.11.25c-.22.41-.39.85-.64 1.24l-.1.09a.2.2 0 0 1 -.09.18.23.23 0 0 1 .09-.18.45.45 0 0 0 -.26-.23.38.38 0 0 1 -.21-.33l-.12-.05a1.23 1.23 0 0 1 -.5.06.19.19 0 0 1 -.17-.19 1 1 0 0 1 .1-.53 1 1 0 0 1 .09-.3.88.88 0 0 0 .11-.42v-.23a.35.35 0 0 1 .27-.38 2 2 0 0 0 .42-.19.56.56 0 0 1 .78.23.75.75 0 0 0 .33.37.61.61 0 0 1 -.02.67z" fill="#673277"/></svg>