<svg viewBox="0 0 71.76 69.87" xmlns="http://www.w3.org/2000/svg"><path d="m68.21 36.37a.71.71 0 0 1 0-.25 1.43 1.43 0 0 0 0-.68 5.72 5.72 0 0 1 -.11-.57s0-.08 0-.09c.18-.12.1-.2 0-.29s0-.1 0-.14.13-.23.14-.36-.24-.23-.24-.39a.91.91 0 0 1 .13-.3c0-.13-.19-.15-.2-.3 0-.32-.19-.63-.07-1a.16.16 0 0 0 -.06-.17c0-.05-.13-.07-.14-.12s0-.15.09-.21a.27.27 0 0 0 .1-.22c-.06-.3-.31-.17-.49-.22a.21.21 0 0 1 -.15-.27v-.13a.39.39 0 0 1 .42-.28c.21 0 .25-.08.17-.22a1.22 1.22 0 0 1 -.17-.29 6.59 6.59 0 0 1 -.36-1.37c0-.08-.07-.14 0-.21a.68.68 0 0 0 -.51-.33c.24 0 .43 0 .37-.36a14.13 14.13 0 0 0 -.49-1.72.62.62 0 0 0 -.22-.37.29.29 0 0 0 -.13 0 7.52 7.52 0 0 1 -.69 1c-.2.26-.46.3-.71.43-.43.22-.41-.28-.65-.36s-.35.09-.5.22c-.49.45-.37-.16-.52-.3l-.22-.16c-.13-.28-.34-.31-.61-.21a1 1 0 0 0 -.71 1 1 1 0 0 1 -.09.51.49.49 0 0 0 0 .52.59.59 0 0 0 -.18-.13 1.49 1.49 0 0 1 -.64-.9 2.07 2.07 0 0 1 -.17-.24c-.29-.39-.42-.4-.76 0-.14.19 0 .43-.05.61s-.42.11-.63.17c-.39 0-.71.32-1.11.36a.12.12 0 0 0 -.05.05c.07-.15.11-.31.19-.46a1.3 1.3 0 0 0 -.42-1.2c-.16-.23-.21-.59-.63-.52a.5.5 0 0 0 -.65.42c-.21 0-.39-.18-.62-.08a.06.06 0 0 1 0-.08c.23-.33 0-.55-.21-.74a.45.45 0 0 1 -.1-.6c.1-.13.25-.22.3-.39s.17-.35.08-.56a2.81 2.81 0 0 0 -.29-.31l-.1-.1h-.06-.13-.13a.72.72 0 0 0 -.25 0h-.12c-.2 0-.28-.15-.36-.3a.11.11 0 0 1 0-.08s0 0 0 0c.12.41.38.5.75.29l.12-.06.12-.08a.52.52 0 0 0 .06-.13 1.16 1.16 0 0 1 .32-.57.61.61 0 0 1 .51.05l.09.07.08.07s0 0 0 .05c0 .18.28.26.25.45-.07.47.19.52.55.45h.17.1l.1.05h.12a.7.7 0 0 0 .32-.05c.21-.22.08-.32-.12-.44s-.47-.23-.44-.56a.3.3 0 0 1 .06-.11c.37-.15.59-.37.41-.8a.65.65 0 0 1 0-.24c0-.2-.08-.4.16-.52a1.15 1.15 0 0 0 .14-.17.25.25 0 0 0 0-.15.43.43 0 0 0 -.06-.22.27.27 0 0 0 -.09-.12 3.88 3.88 0 0 1 -.47-.53.47.47 0 0 0 -.1-.1.94.94 0 0 0 -.37-.37.56.56 0 0 0 -.34 0 1.93 1.93 0 0 1 -.84.24h-.14-.13a.35.35 0 0 0 -.12.07c-.09.1-.2.18-.29.28-.21.28-.45 0-.68 0a.57.57 0 0 1 -.78-.41c-.08-.24-.34-.21-.54-.29l-.16-.08-.1-.06-.1-.08h-.11c-.13 0-.25-.05-.38-.05a.23.23 0 0 0 -.12.06c-.2.37-.59.3-.91.39-.14.1-.21.27-.38.32a.45.45 0 0 1 -.17.08c-.05-.07 0-.14 0-.2a.58.58 0 0 0 -.08-.18c-.33-.33.07-.47.17-.69a.21.21 0 0 1 .1-.06h.12c.62-.14 1.23-.33 1.84-.5.1-.11.18-.26.34-.06a1.32 1.32 0 0 0 1.4.57.41.41 0 0 0 .19 0c.2-.08.4-.16.58 0s0 .35-.1.52a.5.5 0 0 0 0 .21.36.36 0 0 0 .08.12h.14.15.21a.31.31 0 0 0 .13-.06 2.44 2.44 0 0 0 .43-.42.36.36 0 0 0 0-.09c.1-.16.1-.43.3-.48.38-.09.72-.31 1.1-.38a.19.19 0 0 1 .21.1c.2.49.68.44 1.06.57s.17.39.3.57a.91.91 0 0 1 .44.71c0 .27.19.35.41.39.24-.15.42-.36.75-.37s.3-.26.23-.45c-.16-.37.12-.51.33-.63s.29-.13.22-.34a.07.07 0 0 0 -.06-.08c-.23 0-.3-.29-.49-.36s-.21-.06-.18-.2v-.06a.22.22 0 0 0 0-.14l-.12-.14a2.37 2.37 0 0 0 -.72-.69v-.07c-.08-.1-.1-.27-.28-.27h-.13a.28.28 0 0 1 -.14-.18.29.29 0 0 0 -.16-.21c-.12 0-.07-.21-.2-.22a1.16 1.16 0 0 1 -.64-.49l-.27-.4a.33.33 0 0 1 -.1-.26c0-.18-.08-.23-.22-.25l-.38-.07c-.28 0-.16-.4-.42-.43a.55.55 0 0 1 -.42-.28c-.14-.2-.19-.44-.34-.63 0-.17-.22-.26-.29-.42s-.24-.15-.38-.2-.15-.07-.16-.16-.15-.26-.32-.31-.12-.13 0-.3 0-.16.06-.23-.05 0-.07-.06c-.11.24-.16.07-.19 0a.35.35 0 0 0 -.34-.25.54.54 0 0 1 -.54-.41.33.33 0 0 0 -.21-.19 1.49 1.49 0 0 1 -.73-.47c-.13-.12-.28-.22-.42-.33a.86.86 0 0 0 -.42 0c-.11 0-.14.17-.21.25a.21.21 0 0 0 0 .36.09.09 0 1 1 -.12.14c-.09-.06-.19 0-.28 0s-.15-.17-.27-.17a.56.56 0 0 1 -.41-.23c-.07-.09-.16-.17-.29-.09s-.08 0-.08 0c0-.18-.25-.07-.31-.15s-.22-.12-.34-.16-.13-.05-.15-.1-.25-.31-.21-.53c-.06 0-.14 0-.17 0s-.07.15-.13.09-.35-.13-.47-.3-.22-.08-.35 0-.21.26-.39.3a.83.83 0 0 1 -.17-.63.42.42 0 0 0 0-.19c0-.14-.17-.18-.27-.25s-.08.08-.11.12a.12.12 0 0 1 -.13 0l-.41-.15c-.56-.25-.41.38-.65.54a.89.89 0 0 0 -.84-.57 1.29 1.29 0 0 1 -.44 0h-.31c-.09-.19-.29-.2-.45-.25s-.16-.17-.16-.29-.06-.14-.06-.21c-.12-.18-.44.12-.49-.21a1.49 1.49 0 0 0 -.64-.42c-.45-.2-.73 0-.76.5a.29.29 0 0 1 -.15.27c.22-.33.1-.73.08-1.12 0 0 0-.13-.1-.15s-.35-.14-.52-.21-.21-.29-.42-.28c-.26-.26-.44-.67-.94-.39-.09.05-.23 0-.32-.09-.36-.33-.51-.06-.67.22-.14.12.08.35-.14.45a.46.46 0 0 0 -.13.29c0 .29-.13 0-.19 0-.51-.22-.75-.78-1.24-1a1.06 1.06 0 0 0 -1.19-.09c-.2-.07-.12-.43-.42-.4-.13 0-.25 0-.28.13s0 .21-.19.18a.32.32 0 0 1 -.09 0l-.63-.21-.47-.2c-.14 0-.17.14-.29.14a.23.23 0 0 0 -.14 0h-.05s0 0 0 .07v-.01h-.2a1.32 1.32 0 0 0 -.28 0h-.23-.11-.18c-.21 0-.38-.19-.6-.22s-.34 0-.48.07-.22.08-.23.23-.13-.16-.22-.19a1 1 0 0 0 -.3 0c-.18 0-.19 0-.26.22v.09s-.05 0-.08 0a0 0 0 0 1 0 0 .66.66 0 0 1 0-.24c0-.08 0-.12-.06-.14s-.21-.09-.31 0a.19.19 0 0 1 -.18.07c-.24-.07-.27.1-.33.26a.58.58 0 0 0 -.43 0 .17.17 0 0 1 -.14 0c-.13-.1-.35-.07-.43-.26 0-.09-.05-.13-.13-.14-.21.11-.33.39-.62.37a.18.18 0 0 0 -.07 0c0 .09-.05.14-.15.13a.56.56 0 0 0 -.42 0c-.23-.1-.41.11-.63.08s-.25 0-.38 0c-.32.11-.65.2-1 .3l-1.39.47c-.25.06-.41-.16-.63-.2l-.14.11a.53.53 0 0 1 -.63.5h-.12-.06-.18l-.34.26a.1.1 0 0 0 0 .13s.07.12.15.08l.15-.08a.86.86 0 0 1 0 .13c-.08.22-.17.25-.36.13l-.15-.06c-.19-.09-.28 0-.32.19-.08.37-.34.42-.65.38-.07.22-.07.22-.3.16a.11.11 0 0 0 -.13.14.23.23 0 0 0 .06.12l.22.1a.07.07 0 0 1 0 .12.75.75 0 0 1 -.13.06 3.5 3.5 0 0 1 -.71.17c-.2 0-.21 0-.24.29a.29.29 0 0 1 0 .09c-.09.18-.24 0-.34.05h-.12c-.13.11-.28.19-.41.3a.91.91 0 0 0 -.11.16c0 .09-.07.13-.17.09a.2.2 0 0 1 -.08 0c-.08 0-.15-.08-.23 0s0 .14 0 .21a.22.22 0 0 1 0 .34c-.3.17-.32-.28-.55-.25-.12 0-.2.11-.13.19s0 .3 0 .44c-.16.42-.46.44-.82.28a.58.58 0 0 0 -.36.21 3.7 3.7 0 0 1 -.08.48l-.05.07s0 0 0 0 0 0 0 .07c-.23.25-.58.15-.85.28-.23.14-.54.24-.14.55.06 0-.07.13-.09.21s0 0 0 0 0 0-.06 0a.14.14 0 0 1 -.14 0 .22.22 0 0 1 -.14 0l-.19-.12-.14.13c-.07.06 0 .1 0 .17s.07.16-.08.13-.18 0-.21.12a1.37 1.37 0 0 1 -.32.53c-.08.1-.1.1-.23 0s-.22-.12-.28 0 0 .23-.14.29a.38.38 0 0 0 -.23.39h-.12c-.1 0-.23 0-.24.13s-.09.2-.12.29-.21.09-.3.14-.2.2-.3.31a.12.12 0 0 0 0 .14c0 .05.1.08.08.19l-.27-.06c-.14 0-.09.16-.2.16h-.05c-.17 0-.24.05-.21.22s-.2.22-.24.37h-.09c-.06 0-.12-.07-.12 0s0 .19 0 .28a.38.38 0 0 1 -.27.1c-.09 0-.21.05-.23.16s-.12.12-.2 0a.1.1 0 0 0 -.13 0c-.06 0 0 .07 0 .12 0 .2 0 .21-.2.26 0 0-.07 0-.11.08a.26.26 0 0 0 0 .37c-.26.05-.49.14-.54.45 0 0 0 .08-.08.12a10.79 10.79 0 0 0 -.92 1.39c-.11.17-.14.17-.31.06s-.07-.07-.11-.09a.17.17 0 0 0 -.27.1.89.89 0 0 0 0 .14.39.39 0 0 1 -.22.35 1 1 0 0 0 -.53.72c0 .12-.06.22-.2.25a.15.15 0 0 0 -.09.1 2.73 2.73 0 0 1 -.3.56c-.09.18 0 .4-.18.55l-.11.15a.58.58 0 0 1 0 .14s0 0 0 .06.1.17.09.28a.34.34 0 0 1 -.1.22c-.12.26-.35.49-.19.82a4.69 4.69 0 0 0 0 .53 1.78 1.78 0 0 1 -.11.76 3.87 3.87 0 0 0 -.26.88c-.07.23-.17.47.2.54.18 0 .36 0 .46-.17a.75.75 0 0 1 .42-.3 2.69 2.69 0 0 0 .11-.01h.12a.31.31 0 0 0 -.15.41 2.16 2.16 0 0 0 .23.69.56.56 0 0 1 0 .65c-.14.23-.38.17-.58.12a1.48 1.48 0 0 1 -.64-.22.38.38 0 0 0 -.13-.06 1.49 1.49 0 0 0 -.21 0h-.24a1.64 1.64 0 0 1 -.54-.07.29.29 0 0 0 -.36 0 .51.51 0 0 0 -.15.28h.05c.08.22.12.42-.13.58-.07.05-.27.18-.09.35s0 .28 0 .42 0 .12-.1.11-.2.07-.18.19a1.91 1.91 0 0 1 -.08.79 5.56 5.56 0 0 0 -.19.7.22.22 0 0 0 0 .14c0 .24.36 0 .37.23a.6.6 0 0 1 -.06.19.25.25 0 0 0 0 .12c.05.1.15.15.23.23v.05s-.08-.07-.12-.1a.54.54 0 0 0 -.54-.18.24.24 0 0 0 -.16.24 2.66 2.66 0 0 1 0 .69 5.63 5.63 0 0 0 .1 1.36 1 1 0 0 1 0 .39 2.9 2.9 0 0 0 0 .83c0 .11 0 .21-.06.28a.38.38 0 0 0 -.07.45c0 .16.1.31.16.47a.73.73 0 0 1 -.15.81.31.31 0 0 0 -.08.27v.24c0 .08.07.14.06.22.09.29.29.23.51.17s.32-.13.42.09a.7.7 0 0 1 -.32 1c-.13.08-.32.07-.4.24s0 .3.12.43.33.3.14.54a.14.14 0 0 1 0 .14v.14a1.25 1.25 0 0 1 0 .29c0 .46.09.49.53.3l.14-.05a.63.63 0 0 0 -.31.35c-.07.23-.25.37-.34.58a3.29 3.29 0 0 1 .08.62c0 .19.64.24.15.57a.22.22 0 0 0 0 .14l.48 1.89c0 .08.07.13.07.21a.2.2 0 0 0 .26.2.65.65 0 0 1 .41.08.22.22 0 0 0 .14 0 .24.24 0 0 0 .15 0 .27.27 0 0 0 .12-.09c.29-.33.39 0 .54.15s.23.47.37.7a2 2 0 0 1 .14.25.88.88 0 0 1 -.22.78c-.15.22-.33.09-.52 0s-.34 0-.38.25a.62.62 0 0 0 .15.44s.11.06.11.14a1.18 1.18 0 0 0 .55.58c0 .06.16.13.15.18-.06.27.13.33.31.43a.33.33 0 0 1 .13.25.45.45 0 0 0 .29.37c.14 0 .19.19.22.3s0 .3.24.38 0 .24.13.3.25.41.38.61.26.57.52.77a.3.3 0 0 1 .08.17.8.8 0 0 0 .35.51c.06 0 .09.14.13.21.11.23.22.47.34.71s.33.37.4.63a.27.27 0 0 0 .24.21.36.36 0 0 1 .32.32c0 .14.13.22.23.31a1.28 1.28 0 0 1 .32.37c.05.11.2.17.26.27s.07.19.2.24.12.21.29.21.1.1.09.2 0 .21.27.3.23.15.28.29 0 .31.24.4a.32.32 0 0 1 .21.35c0 .09.05.15.13.18a1 1 0 0 1 .54.54.33.33 0 0 0 .22.21c.13 0 .08.09 0 .17s0 .23.06.21.26 0 .31.2.23 0 .25.2.13.16.21.24c.22.25.55.39.7.72.06.14.31.14.27.36a.1.1 0 0 0 .08 0 .4.4 0 0 1 .37.08 1.58 1.58 0 0 1 .54.42 7.58 7.58 0 0 0 1 .92.61.61 0 0 0 .29.19 1 1 0 0 1 .68.52c.17.24.35.47.54.7a1.26 1.26 0 0 0 1 .53c.23 0 .27.07.33.33s.11.26.34.26a.31.31 0 0 1 .26.1 1.61 1.61 0 0 0 .72.4 11.62 11.62 0 0 1 1.9.68c.05 0 .1.06.14 0s.3-.08.44 0a3.06 3.06 0 0 1 .49.22 8.89 8.89 0 0 0 2.06.8 18.13 18.13 0 0 0 2.53.36.92.92 0 0 1 .51.17c.63-.12 1.06-.68 1.69-.81a.32.32 0 0 1 .14 0 .51.51 0 0 1 .6.2 1.39 1.39 0 0 0 1.07.63c.34 0 .35.28.5.45a.32.32 0 0 0 .4.07c.44-.34.2-.75.07-1.12a.34.34 0 0 0 -.11-.17c.25.07.45-.06.37-.28a.65.65 0 0 1 0-.13c.08.09.26.08.59 0l.33-.07h.14c.15-.1.22-.27.39-.33a.33.33 0 0 1 .23.1 1 1 0 0 1 .25 1.35c0 .24-.12.33-.32.41s-.34.26 0 .44a2.88 2.88 0 0 0 1.53-.26 2.24 2.24 0 0 1 .85.11 2.72 2.72 0 0 1 .49 0c.56-.17.88-.48.69-1.12a1.3 1.3 0 0 1 0-.44c0-.15.08-.19.22-.16h.14a2.57 2.57 0 0 0 1.21-.87 1.15 1.15 0 0 1 .13-.87s0 0 0 0a1.18 1.18 0 0 1 -.28-.31 2.13 2.13 0 0 0 .33.11.78.78 0 0 0 -.14-.33s0 0 0 0a.81.81 0 0 1 .78.38h.34a.26.26 0 0 1 .35.2.57.57 0 0 1 .71-.21l.16.1a.63.63 0 0 1 .38 0 .22.22 0 0 1 .16.25 2.45 2.45 0 0 1 .55.13c0-.08-.11-.11-.14-.19s-.1-.11 0-.17a.14.14 0 0 1 .19 0c.1.08.18.17.27.25a.57.57 0 0 1 -.18.12 2.75 2.75 0 0 1 .71.43.4.4 0 0 1 .07-.38.93.93 0 0 0 -.39-.21 1.51 1.51 0 0 1 .09.18s0 .11 0 .12-.09 0-.1-.08 0-.1 0-.15a.27.27 0 0 1 .01-.07l-.06-.22.52-.08a.36.36 0 0 1 .19.08l.06-.09c0-.27 0-.32.15-.35a1 1 0 0 1 .15-.29c0-.07 0-.16 0-.25a.59.59 0 0 0 -.01-.1.57.57 0 0 0 -.31-.53.45.45 0 0 1 -.26-.4c0-.28 0-.51-.31-.63s-.47-.36-.7-.3a2.14 2.14 0 0 1 -1.67-.54.72.72 0 0 0 -.55.12h-.14a2.56 2.56 0 0 1 -1.73-.58c-.1-.09-.23-.14-.16-.3.17-.38-.08-.58-.33-.77a.72.72 0 0 1 -.32-.47.41.41 0 0 0 -.59-.37c-.1 0-.21.1-.26 0s.07-.19.16-.25.54-.13.78-.3a.72.72 0 0 1 .91.06.62.62 0 0 0 .63.17c.29-.12.16-.39.19-.6l.06-.12c.08-.13.24-.18.33-.31s.17-.43.37-.58l.13-.13.08-.09a.6.6 0 0 0 .09-.08.2.2 0 0 0 .09-.09c.2-.24.12-.47 0-.73s-.16-.63.17-.77a1.7 1.7 0 0 0 1-1.45 1.77 1.77 0 0 1 .15-1c.13-.19.21-.4 0-.57a.59.59 0 0 0 -.57-.1.56.56 0 0 0 .27-.19c.3-.4.55-.84 1.11-.94h.14c-.15.06-.22.19-.19.44s-.11.22-.16.34a.39.39 0 0 0 0 .15s0 .11 0 .16a1 1 0 0 0 .11.29 2.07 2.07 0 0 1 1.05.93 1 1 0 0 1 -.51 0 1.06 1.06 0 0 0 -1.14.57c-.25.64-.83 1-1.12 1.66a1 1 0 0 0 0 1.18.35.35 0 0 0 .14 0 .65.65 0 0 0 .34-.11l.12-.05c.75-.06 1 .23.79.92a2.19 2.19 0 0 1 -.2.44c0 .14.08.3 0 .41a9.21 9.21 0 0 1 -1.34 1.1c-.24.16-.39.27-.37.54s.25.42.54.46a9.71 9.71 0 0 1 1.22.1 2.1 2.1 0 0 0 1.7-.21 1 1 0 0 1 1.1 0 1.84 1.84 0 0 0 1.22.26 1.07 1.07 0 0 1 1 .51c-.33 0-.61 0-.69.31s.17.46.34.65.18.19.26.3a1.21 1.21 0 0 0 1.61.46h.06a.31.31 0 0 0 .09-.11.44.44 0 0 0 .08-.11c0-.11-.06-.25 0-.35.28 0 .26.39.53.4a.58.58 0 0 0 .43 0 .25.25 0 0 0 .12-.08c.29-.53.45-.57 1-.25a.68.68 0 0 0 .42.06c.07 0 .13-.11.2-.12a.47.47 0 0 0 .36-.41.24.24 0 0 1 .24-.21c.21 0 .3-.17.48-.2s.27-.16.21-.33 0-.19.09-.22a.71.71 0 0 0 .41-.26.82.82 0 0 1 .57-.47.21.21 0 0 0 .11-.1.53.53 0 0 1 .27-.26c.3-.17.46-.51.79-.64 0 0 0-.06.05-.09a1 1 0 0 0 .2-.57.14.14 0 0 1 .22-.11c.07 0 .13.1.2.15s.19.07.25 0a.73.73 0 0 1 .34-.27.9.9 0 0 0 .46-.42c0-.06.07-.11.15-.12a.9.9 0 0 0 .55-.27 1 1 0 0 1 .47-.26c.15 0 .15-.15.21-.24.33-.36.34-.53 0-.82 0-.05-.15-.05-.11-.16s.12-.14.19-.08c.33.26.65 0 1 0a1.06 1.06 0 0 1 .23-.19 1.09 1.09 0 0 0 .6-.72.43.43 0 0 1 .14-.2c.08-.09.11-.08.18.06a.43.43 0 0 1 0 .07l.08-.06s0-.06 0-.09a4.09 4.09 0 0 1 .53-1.21.78.78 0 0 1 .33-.36 1.14 1.14 0 0 0 .45-.5c.14-.22.27-.45.4-.67s.09-.18.13-.27 0-.07 0-.06c-.19.06-.16-.07-.12-.16a6.18 6.18 0 0 1 .57-1.19 13.6 13.6 0 0 0 1.2-2.5 15.41 15.41 0 0 0 1-3.25c0-.19.09-.38.13-.57s.1-.39.14-.58a.41.41 0 0 0 0-.19c-.19-.4-.19-.42.11-.66a.53.53 0 0 0 .17-.23 3.75 3.75 0 0 0 .17-.47 10.72 10.72 0 0 1 .34-1.38.43.43 0 0 0 0-.19 9.13 9.13 0 0 1 0-1.28 1.1 1.1 0 0 0 -.09-.62.09.09 0 0 1 0-.13c.21-.11.21-.31.2-.51a13.72 13.72 0 0 0 .1-1.57zm-45.03-5.8c.09 0 .2 0 .22.08a.54.54 0 0 1 -.18.6 3.11 3.11 0 0 0 -.14-.53c-.08-.07.03-.12.1-.15zm-1.68-2 .08-.07c.3-.27.3-.27.64 0 .09.06.18.13.27.18s.24.09.21.25-.13.11-.32 0a1.17 1.17 0 0 0 -.25-.07.76.76 0 0 0 -.21 0c-.1 0-.15 0-.16-.13h-.1c-.15 0-.27.28-.4.07s.15-.14.24-.24zm-1.17 8.13c.23-.33 0-.78.29-1.1.05-.1.1-.19.14-.29s.07-.15 0-.2a.39.39 0 0 1 0-.45s0 0 0 0-.12-.21 0-.33a.46.46 0 0 1 .49-.13h.16c.36 0 .54-.33.8-.51 0 0 0-.14.06-.2s.06-.09.12-.06.07.05.07.07l-.06.78a1.59 1.59 0 0 1 -.51 1.33.84.84 0 0 1 -.56.36c-.14.09-.27 0-.41 0s-.26.09-.21.31a.63.63 0 0 1 -.27.68s-.07 0-.1 0a.17.17 0 0 1 -.06-.08s.03-.16.05-.18zm2 .87a.2.2 0 0 1 -.29 0 .22.22 0 0 1 0-.29c.07-.08.15-.07.29.05a.17.17 0 0 1 .01.24zm-1 1.66a.2.2 0 0 1 -.2.13.16.16 0 0 1 -.15-.18.31.31 0 0 1 .25-.23s.07 0 .1 0a.25.25 0 0 1 .01.28zm-.43 1.28a.24.24 0 0 1 -.37 0 .22.22 0 0 1 0-.29.24.24 0 0 1 .33 0 .23.23 0 0 1 .05.29zm-2.52-14.77c.12-.15.24-.28.44-.08a.36.36 0 0 0 .52.06c.17-.11.31 0 .43.09a.17.17 0 0 1 .07.14c-.11.36-.24.71-.36 1.06 0 0 0 0-.05.06a.53.53 0 0 1 -.13 0c-.23-.06-.45-.14-.66-.21 0 0-.08-.05-.08-.07 0-.28-.24-.48-.25-.75a.55.55 0 0 1 .07-.3zm-.5 4.26a.17.17 0 0 1 .23-.07 1.5 1.5 0 0 1 .24.2c.09.11.18.22.26.34s0 .06 0 .09c-.2-.17-.46-.19-.66-.34s-.13-.16-.07-.22zm.5 7a.27.27 0 0 1 -.32 0 .79.79 0 0 1 -.08-.16.18.18 0 0 1 .07-.23.2.2 0 0 1 .25 0 .54.54 0 0 1 .09.12c.08.04.07.16-.01.2zm-1.72-5.61a3.56 3.56 0 0 1 .31-.48s.09 0 .13 0 .07.07.07.1a1.54 1.54 0 0 1 0 .37.29.29 0 0 1 -.44.11s-.08-.16-.07-.17zm.34 3.61a.21.21 0 0 1 -.25 0 .12.12 0 0 1 0-.18.2.2 0 0 1 .25 0 .13.13 0 0 1 0 .18zm-1.12.72a.39.39 0 0 1 .44 0 .42.42 0 0 1 -.08.49.18.18 0 0 1 -.28 0 1.11 1.11 0 0 1 -.09-.19c-.06-.12-.11-.23-.01-.32zm-.79 1.28a.86.86 0 0 1 .95-.06c.05 0 .06.17 0 .2a1 1 0 0 0 -.66.13.29.29 0 0 1 -.16 0 .16.16 0 0 1 -.13-.15.17.17 0 0 1 0-.12zm-1.84-10.24c.1 0 .21-.05.26-.16s.15-.1.24-.08a1.57 1.57 0 0 1 .3.12.58.58 0 0 0 .46.09.23.23 0 0 1 .3.16.31.31 0 0 1 -.09.39l-.11.09a1.07 1.07 0 0 1 -.52.3c-.14 0-.2.14-.31.2a.27.27 0 0 1 -.44-.19.43.43 0 0 1 0-.16.48.48 0 0 0 -.16-.43c-.18-.09-.1-.25.07-.33zm1.58 4.58a1.7 1.7 0 0 1 -.17.67.6.6 0 0 1 -.31.28c-.17.05-.29-.09-.49-.17l.68-.82.09-.06c.08-.04.22.02.2.1zm-1.61 5.17c.13 0 .19.13.11.23l-.14.18-.12.09a.21.21 0 0 1 -.25 0 .17.17 0 0 1 0-.24.38.38 0 0 1 .4-.26zm-1-2.53a.35.35 0 0 1 .51-.1.67.67 0 0 1 .11.18.17.17 0 0 1 0 .2l-.16.14a1.31 1.31 0 0 1 -.11.12.16.16 0 0 1 -.23 0 .53.53 0 0 1 -.13-.52zm-2-8.27a.47.47 0 0 1 .15-.06c.12 0 .17-.25.31-.16s.38.1.48.3a1.15 1.15 0 0 1 .21.43.3.3 0 0 1 -.25.35.87.87 0 0 1 -.73-.18 1.08 1.08 0 0 1 -.27-.36.25.25 0 0 1 .12-.32zm.64 11.19c-.05.09-.19.07-.28 0s-.08-.13 0-.19.17 0 .24 0 .1.12.06.19zm-1.03-11.21a.06.06 0 0 1 0 0zm-1.5 6.23a.82.82 0 0 0 .24-.63.11.11 0 0 1 0-.05c0-.11.06-.21.18-.23s.21 0 .28.2a2.5 2.5 0 0 1 .09.25c.16 0 .28.11.28.27s-.15.23-.3.26a2.11 2.11 0 0 1 -.26 0h-.48c-.01.08-.08.01-.03-.07zm-.77.92a.05.05 0 0 1 0 0zm-1.18 9.22a1.32 1.32 0 0 0 -.16-.66.94.94 0 0 1 .16.66zm1.46-2.88c-.14.12-.27 0-.4-.08a1.28 1.28 0 0 1 -.44-.18 1.36 1.36 0 0 0 -1 .15c-.28.12-.1.41-.16.62a2.14 2.14 0 0 1 -.09.34.81.81 0 0 0 0 .27c0 .19 0 .4.1.59a2.82 2.82 0 0 1 -.31-.53.24.24 0 0 0 -.34-.09.29.29 0 0 0 -.18.32c.09.44-.1.51-.48.44.23 0 .48-.1.49-.42 0-.15 0-.37.18-.45.57-.24.49-.71.46-1.18.17-.29.24-.55-.09-.8s-.19-.39.1-.51h.1a.31.31 0 0 1 .1.05c.24.11.2.29.1.47.09.7.33.83 1 .59a5.58 5.58 0 0 1 .69-.35h.12l.09.08.06.1c.06.18.06.39-.1.57zm.37-1.9.47-.3-.51-.29a.35.35 0 0 1 -.17-.39.37.37 0 0 0 .31 0h.31a.76.76 0 0 1 .36.06c.09 0 .16.07.17.17a.24.24 0 0 1 -.12.27 1.84 1.84 0 0 1 -.25.09l-.1.11c-.11.34-.17.37-.47.28zm.4 2.07a.28.28 0 0 1 .05.23.23.23 0 0 1 -.05-.23zm.2 1a3.3 3.3 0 0 1 -.15-.76 1.67 1.67 0 0 0 .66.15c.12 0 .2.07.28.14.18-.09.16-.26.2-.41a.16.16 0 0 1 .24-.12.69.69 0 0 1 .25.2.22.22 0 0 1 -.1.35l-.19.1a.2.2 0 0 0 -.14.25c0 .15-.09.17-.2.18a.57.57 0 0 1 -.42-.21c-.24-.1-.24-.1-.43.13zm4.28 8.34s-.06 0-.09 0 0-.07 0-.08a.07.07 0 0 1 .08 0c.04-.01.05.04.01.08zm.17-.38s0-.05 0-.08.03.05 0 .08zm.93 2.33h-.08a.2.2 0 0 1 0-.08h.08s.02.07 0 .08zm1.06 1a.21.21 0 0 0 -.23-.1.3.3 0 0 1 -.29-.19s-.06-.12 0-.15.12 0 .17 0a.21.21 0 0 0 .24 0c.16 0 .33 0 .38.2s.13.15.21.22a.42.42 0 0 1 .21.34c-.31-.02-.58-.02-.69-.34zm1 .73c-.1.11-.22.2-.38.12s-.11 0-.1-.08h.1l.08-.35a.29.29 0 0 1 .3.29.12.12 0 0 1 .14 0zm.46.46c.18 0 .2.13.23.25-.16-.03-.17-.17-.23-.27zm.7.83c-.19.1-.31 0-.31-.16a.57.57 0 0 0 -.16-.42c.55 0 .55 0 .65.54a.25.25 0 0 0 -.18.02zm.9-1.76a.51.51 0 0 1 -.18 0 1.48 1.48 0 0 1 -.29-.12.22.22 0 0 1 -.08-.13s0-.09.08-.11l.3-.11a.23.23 0 0 1 .29.16.26.26 0 0 1 -.12.29zm1.59 4.83h-.09s0-.07 0-.07.05 0 .07.06.02-.03.02-.01zm.41-.13a.65.65 0 0 1 -.31-.46c-.3-.15-.43-.46-.62-.7a3.15 3.15 0 0 1 -.22-.29c-.12 0-.22 0-.24-.11a.82.82 0 0 0 -.21-.36c.26.05.34.27.45.47l.25-.1a.22.22 0 0 1 .28.08.9.9 0 0 1 .25.58 3 3 0 0 0 .06.43c.14.1.37.17.31.44zm3.69 3.21a.77.77 0 0 1 .45 0 .33.33 0 0 1 -.45 0zm2.09-5.41a1.09 1.09 0 0 1 -.31.08c-.27 0-.47.09-.55.39a.26.26 0 0 1 -.24.19c-.1 0-.22 0-.25.17s-.17.25-.36.2-.16 0-.22 0c-.32.13-.48-.16-.7-.28a.68.68 0 0 1 -.15-.45.23.23 0 0 1 .09-.18 1.32 1.32 0 0 1 .33-.18 1.52 1.52 0 0 0 .74-.39c.05-.06.17-.06.25-.08a.19.19 0 0 1 .15 0c.05.08 0 .12-.07.17a.08.08 0 0 0 0 .13.11.11 0 0 0 .1 0 .15.15 0 0 0 .09 0 .74.74 0 0 1 .73-.21.49.49 0 0 1 .4.23.13.13 0 0 1 -.04.21zm1.29 6.16c-.08 0-.15.08-.24 0a.1.1 0 0 1 0-.08s0-.05.06-.06.15.06.22.1zm3.97 1.39c-.11 0-.21 0-.26-.1a.19.19 0 0 0 -.3-.12.38.38 0 0 1 -.52-.1c.08 0 .18 0 .22-.14a1.76 1.76 0 0 0 .13-.79.68.68 0 0 1 .06-.42.11.11 0 0 1 .08-.05.13.13 0 0 1 .09 0c.06.28.28.46.39.7a1.09 1.09 0 0 0 .82.56c.15 0 .33 0 .43.17a5.67 5.67 0 0 0 -1.15.34zm1.24-10.61c-.09.06-.1.22-.15.33 0 .17 0 .35-.09.51a1.16 1.16 0 0 0 -.37.29c-.12.12-.22.06-.32 0a.75.75 0 0 1 -.15 0c-.16.07-.33.12-.48.2s-.27.13-.44-.19c-.09 0-.2 0-.26 0a.37.37 0 0 1 -.51.09c-.15-.06-.3-.09-.45-.14a.68.68 0 0 1 -.24.12.32.32 0 0 1 -.4-.26c0-.17 0-.35-.06-.53v-.15a5.16 5.16 0 0 0 -.1-.67c-.12-.4-.07-.48.38-.62.18-.19.49-.25.53-.58 0 0 .08-.08.12-.08a.47.47 0 0 0 .39-.11c.08-.06.17 0 .24.07a.34.34 0 0 0 .45 0 1.74 1.74 0 0 0 .36-.31 2.05 2.05 0 0 1 .63-.58.35.35 0 0 0 .19-.3.6.6 0 0 1 .42-.52.5.5 0 0 0 .36-.48 8.28 8.28 0 0 0 .16-.84s.06-.07.1-.11a.75.75 0 0 0 0-.42 1.57 1.57 0 0 1 0-.43.3.3 0 0 1 .48-.21c.18.17.42.3.43.59a.17.17 0 0 0 .07.14.7.7 0 0 1 .26.57.29.29 0 0 0 0 .16.55.55 0 0 1 -.32.45 2.36 2.36 0 0 0 -.4.54c.19.08.3.19.21.41a1.46 1.46 0 0 0 -.06.51v.32a.49.49 0 0 1 -.07.36 6 6 0 0 0 -.37 1 1.51 1.51 0 0 1 -.55.87zm2.75 11.47a.24.24 0 0 1 0-.38 3.57 3.57 0 0 1 .81-.69c.18-.1.32 0 .34.17a.69.69 0 0 1 -.07.47.45.45 0 0 1 -.41.2.1.1 0 0 0 -.1.11.15.15 0 0 0 0 .09l.37.22a.2.2 0 0 1 .09.23.17.17 0 0 1 -.17.12h-.2c-.13 0-.18.1-.25.18a2.28 2.28 0 0 1 -.58 0 .48.48 0 0 0 -.46 0c-.12.09-.2.05-.22-.1s-.29-.47-.34-.75a1.66 1.66 0 0 1 .75.18 1 1 0 0 0 .42.06c.03.02.09-.04.01-.11zm-1.63-.19c-.12 0-.15 0-.14-.15a.38.38 0 0 0 .1 0c.3-.14.35-.11.44.26a.44.44 0 0 0 -.41-.11zm-.21-.38.07.23a.19.19 0 0 1 -.08-.23zm-.12 4.94a.36.36 0 0 1 .14 0zm5.36-3.28h.26a.59.59 0 0 0 -.14-.69l-.07-.08a.14.14 0 0 1 0-.2.13.13 0 0 1 .21.07c.21.16.41.34.62.51.38.17.61.54.95.76.05 0 .07.12.09.19a1.14 1.14 0 0 0 .18.44 1.45 1.45 0 0 1 -1.09-.46.32.32 0 0 0 -.29-.09 1.28 1.28 0 0 0 -.48.24 2.84 2.84 0 0 1 .02.41.2.2 0 0 1 -.3.18l-.14-.08-.18-.1a.82.82 0 0 1 -.27.83c-.27.28-.67.44-.84.82 0 0-.09 0-.13 0a9 9 0 0 0 -1.14-.88c-.11-.09-.29 0-.38-.18-.25-.42-.56-.32-.9-.13a4.05 4.05 0 0 0 -.6.81q0 .14 0 .24a.83.83 0 0 0 -.27-.63c-.2-.24-.57-.2-.76-.45-.1-.06-.18-.17-.32-.15.21-.06.3.18.46.26l.12.08a.33.33 0 0 0 .22 0c.25-.15.6-.1.77-.4s.15-.59.39-.81l.08-.11c.08-.16.24-.27.33-.42.21-.34.36-.33.58 0s.45.31.66.48.25 0 .37-.09c-.21 0-.23 0-.36-.32.19 0 .29.18.42.28.46-.1.94-.21 1.31.24a.75.75 0 0 0 .07.12l.06.14a.45.45 0 0 1 .13.17 2.28 2.28 0 0 0 .54-.35c-.06-.08-.08-.2-.22-.17a1.73 1.73 0 0 1 -.32 0 .26.26 0 0 1 -.24-.29.28.28 0 0 1 .29-.25zm4.26-11.59c-.22 0-.24.21-.24.41s0 .28 0 .42l-.06-.35c0-.32 0-.51.39-.51h.06zm2.26-1.24a.25.25 0 0 0 .1-.08.25.25 0 0 1 -.15.08zm1.74-.78c-.35.14-.36.48-.54.73-.07.1-.1.26-.27.24s-.19-.16-.19-.26a.33.33 0 0 0 -.27-.31.24.24 0 0 0 -.28.11 3.88 3.88 0 0 0 0-.59 1.25 1.25 0 0 0 0-.19.76.76 0 0 0 0-.15 1.36 1.36 0 0 1 0-.21c.16-.51-.13-1-.24-1.42 0 .06.06.14.12.15.49 0 .65.41.88.75a1.91 1.91 0 0 0 .43.51 1.88 1.88 0 0 0 .32.31c.14.04.18.27.04.33zm1-17.93a2.11 2.11 0 0 1 -.31.21c-.09.06-.19.11-.23.21s-.14.09-.22 0a.38.38 0 0 1 -.19-.09.56.56 0 0 0 -.68-.15c-.1.17-.21.32-.43.33a3.23 3.23 0 0 0 -.15.34.38.38 0 0 1 -.37.33.33.33 0 0 0 -.14 0s0 0 0 .06.16.21 0 .34a.29.29 0 0 1 -.39 0h-.1c-.12 0-.2 0-.23.16a1.29 1.29 0 0 0 0 .48c0 .07 0 .17-.06.18-.24 0-.26.12-.12.3s0 .18-.1.19-.32 0-.36.23c0 0-.09.09-.15.13s-.2.09-.27 0-.08-.2-.17-.19c-.34 0-.49-.24-.72-.4l-.22-.14a1 1 0 0 1 .16.36v.47c0 .2 0 .2-.27.27l-.24.28a.26.26 0 0 1 -.27.12c-.06.1-.08.19 0 .27l.16.13a.94.94 0 0 1 1.24.18 1.1 1.1 0 0 0 .5.29 1.22 1.22 0 0 1 .27.15c.16 0 .17.06.14.17l-.14-.17c-.23.15-.41.05-.59-.08.34.53 0 .92-.31 1.29s-.5.07-.74 0a.86.86 0 0 0 -.48 0 .2.2 0 0 1 0 .07 1.19 1.19 0 0 1 0 .62c-.1.25-.41.21-.56.39a1.25 1.25 0 0 1 -.78.66l-.09.1a.61.61 0 0 0 -.07.1v.06c-.09.12-.18.22-.35.13a.62.62 0 0 0 -.63.23c0 .36 0 .4-.32.46 0 .19-.2.23-.34.33a1.54 1.54 0 0 0 -.62.62 1.87 1.87 0 0 0 -.6.52c-.22.38-.6.22-.92.26.16-.08.28 0 .39.11l.07-.08a.12.12 0 0 1 .19 0 .18.18 0 0 1 0 .1c0 .09-.1.09-.18.07h-.05l-.06.06-.37-.26a.94.94 0 0 0 -.22.51c0 .16-.12.23-.26.28a1.73 1.73 0 0 1 -.22.91 2.4 2.4 0 0 0 -.87-.52.69.69 0 0 1 .22-.4 1.29 1.29 0 0 0 .4-.73c.06-.15.24-.18.33-.3-.1-.24-.35-.25-.54-.35a1 1 0 0 1 -.43-.35 1.83 1.83 0 0 0 -.14-.28.82.82 0 0 1 -.15-.75.83.83 0 0 0 -.74-.36.2.2 0 0 0 -.21.2c0 .23 0 .46.06.69s-.08.2-.2.15a.37.37 0 0 0 -.31 0 1.37 1.37 0 0 0 -.64.55 1.5 1.5 0 0 1 .24.53.48.48 0 0 0 .38.39l.35.14a.57.57 0 0 1 .15.68.16.16 0 0 1 0 .06.12.12 0 0 1 -.15 0l-.2.11s0 .11 0 .16c.09.42 0 .56-.4.51h-.27c-.11 0-.24.15-.34 0a2.35 2.35 0 0 1 -.28-.46.17.17 0 0 1 0-.1c.19-.32 0-.66 0-1 0 0 0-.09 0-.1a.62.62 0 0 0 .07-.7.8.8 0 0 1 0-.21l-.14-.14h-.06a2.4 2.4 0 0 0 .07.6l-.03.42v.15a.41.41 0 0 0 0 .11c0 .15-.12.26-.29.26a.27.27 0 0 1 -.26-.22.65.65 0 0 1 -.05-.2l-.42.18.21.16a.29.29 0 0 1 .1.12.65.65 0 0 1 0 .36.21.21 0 0 1 0 .21 1 1 0 0 1 -.19.42.16.16 0 0 1 -.23 0c-.07-.11-.07-.25-.19-.32l-.27-.18v.11a1.61 1.61 0 0 0 -.25.41c-.05.27-.22.3-.43.29a1.1 1.1 0 0 1 -.87.07.33.33 0 0 1 -.2-.17c-.06-.1 0-.21.07-.3a.69.69 0 0 1 -.2 0 .61.61 0 0 1 -.17-.15c-.09 0-.12-.11-.18-.3a1.23 1.23 0 0 0 -.54-.17l-.34-.15a.53.53 0 0 1 -.36-.6c0-.12 0-.25.05-.37a.42.42 0 0 1 .3-.41l.39-.19h.19s0 .13 0 .19-.12.08-.11.17h.31c.1 0 .16 0 .17-.14a.14.14 0 0 1 .17-.13 1.53 1.53 0 0 1 .41.62c.07.23.23.24.42.24 0-.08 0-.18.07-.22s.18 0 .25.11a1 1 0 0 0 .5-.16 4.27 4.27 0 0 0 .68-.33s.07 0 .11 0l.24-.21c0-.27.05-.55.08-.82s.15-.17.28-.16.22 0 .18-.16c0 0 0 0 0-.05a1.33 1.33 0 0 1 .14-.19.7.7 0 0 1 -.06-.23.76.76 0 0 0 -.06-.26c-.05-.06-.2-.07-.13-.19s.16-.06.24-.08l.33-.08c-.18 0-.27-.17-.43-.2l-.12.09c-.21.21-.22.22-.44 0a.31.31 0 0 0 -.38-.1.91.91 0 0 0 -.14.07c-.19.05-.33.25-.49.28s-.33-.17-.54-.16a1.65 1.65 0 0 1 -.74.44c-.2.07-.42 0-.62.11a.28.28 0 0 1 -.3 0 .54.54 0 0 0 -.55 0 .43.43 0 0 1 -.27.5.43.43 0 0 1 0 .11s0 .05-.08 0l-.59-.48c-.11-.09-.12-.15 0-.24a1 1 0 0 0 .25-.28c0-.09-.05-.2-.09-.29a.41.41 0 0 1 .05-.43c0-.1.05-.21.07-.31-.05 0-.07 0-.06-.07l-.29-.2a.14.14 0 0 1 -.18-.07l-.15-.33a1.1 1.1 0 0 0 -.53-.14l-.09.12c-.07.08-.13.2-.25.15s-.11-.2-.09-.32a.34.34 0 0 1 0-.1c0-.07 0-.16-.09-.18s-.11 0-.15.11a1 1 0 0 1 -.08.14.52.52 0 0 1 .12.26.09.09 0 0 1 0 0l.05.09v.15a1 1 0 0 1 -.14.7c0 .14.16.22.25.32a.85.85 0 0 1 -.16 1 1.19 1.19 0 0 0 -.25.69.29.29 0 0 0 .09.25.48.48 0 0 1 0 .72.37.37 0 0 0 0 .53l.48.66a.16.16 0 0 1 -.07.23l-.91.32s-.1 0-.16 0h-.09a1.54 1.54 0 0 0 -.08.19c-.05.39-.37.49-.67.6a.21.21 0 0 1 0 .23.66.66 0 0 1 -.51.37h-.22a.13.13 0 0 1 -.15-.12 3.27 3.27 0 0 1 0-.54h-.1a.17.17 0 0 0 -.09.21 2 2 0 0 1 0 .24.16.16 0 0 1 -.07.07s0 0 0 0a2.68 2.68 0 0 1 -1.27 1.44.34.34 0 0 1 -.35 0 .37.37 0 0 1 -.2-.45l.05-.58c-.23 0-.26 0-.23-.3a1 1 0 0 0 -.11-.24.71.71 0 0 1 -.14-.75c-.18 0-.33.18-.51.06l-.2.09c-.07 0-.1 0-.1-.1h-.31v.14c.37.17.58.52.88.76a.28.28 0 0 1 .09.3c0 .1-.1.19-.23.18l-.25.07c-.32.07-.32.07-.32.42v.42s.19.34.27.51a.21.21 0 0 1 0 .24.21.21 0 0 1 -.24.06l-.24-.11-.12.15a.1.1 0 0 1 0 0c.07 0 .11 0 .09.1a5.46 5.46 0 0 1 .68.68h.07c.18.07.19.1.19.27a1.11 1.11 0 0 1 -.05.25c.11.06.21 0 .32 0l.7-.35a.32.32 0 0 1 .38.07h.11a.55.55 0 0 0 .21-.39.17.17 0 0 1 0-.1c.07-.24.2-.32.38-.21a1.26 1.26 0 0 0 .64.24h.11c.24-.05.24-.05.22-.26a1.48 1.48 0 0 1 0-.21.22.22 0 0 1 .36-.15.33.33 0 0 1 .17.26c0 .14.05.28.08.42.08.3.21.52.54.57.08 0 .15.09.23.13a.22.22 0 0 0 .14 0h.15l.08.07a.26.26 0 0 1 .15.12c0 .07.11.13.16.19a.65.65 0 0 1 .6-.44 2.17 2.17 0 0 0 .41-.09c.06-.29.16-.54.52-.55l.22.08h.06c.37-.09.51 0 .65.31a.12.12 0 0 1 0 .08.12.12 0 0 1 -.1 0 .84.84 0 0 0 -.47 0l.12.14.23.14a.18.18 0 0 1 .08.19c0 .12-.06.24-.09.36a.14.14 0 0 1 -.15.12c-.21 0-.22.2-.28.35a.14.14 0 0 1 -.15.16c-.22-.06-.43-.1-.59.1a.2.2 0 0 1 -.28.06c-.1-.05-.17 0-.24.07a.77.77 0 0 1 -.8.11s-.1 0-.15 0c0 .1 0 .18-.07.23a.72.72 0 0 1 -.41.1.21.21 0 0 1 -.23-.17c-.07-.4-.4-.52-.7-.68a.28.28 0 0 0 -.25 0 .56.56 0 0 1 -.42 0 1.93 1.93 0 0 0 -.41.12.93.93 0 0 1 -.57 0 .29.29 0 0 1 -.24-.4 1.25 1.25 0 0 1 .35-.58v-.16a.28.28 0 0 0 -.16-.05h-.08a.37.37 0 0 1 -.14.07.3.3 0 0 1 -.27.22.42.42 0 0 0 -.25.16c0 .15-.13.27-.08.46a.28.28 0 0 1 -.28.37 3 3 0 0 0 -1.25.53.52.52 0 0 1 -.74-.34c0-.14.05-.29-.1-.39a.49.49 0 0 0 -.51 0c-.11 0-.23.12-.35 0a.52.52 0 0 1 -.39-.37.48.48 0 0 1 .06-.45v-.1a.69.69 0 0 0 -.27-.17c-.14 0-.18-.14-.18-.28a3 3 0 0 0 0-.42.4.4 0 0 0 -.28-.34.7.7 0 0 1 -.67.45c-.18 0-.25.13-.2.3s.06.13.08.2a.25.25 0 0 1 -.08.33c-.07 0-.17.1-.19.18a.32.32 0 0 1 -.42.22c-.1 0-.16.07-.21.15l.08.09c.26 0 .39.22.53.39.15 0 .22.07.2.22l-.2-.22c-.24 0-.35-.27-.53-.39s-.1 0-.08-.09l-.3-.12a.6.6 0 0 0 -.08-.08 1.3 1.3 0 0 1 -.25-.1.4.4 0 0 1 -.15-.6c.06-.13.15-.24.21-.38.22-.55 0-.8-.46-1a.34.34 0 0 0 -.31 0 1 1 0 0 1 -.42.11.26.26 0 0 1 -.29-.19c-.08-.07-.2-.13-.22-.21a7.89 7.89 0 0 1 -.3-.94c0-.13 0-.25-.14-.31a.58.58 0 0 1 -.38-.5 1.17 1.17 0 0 1 -.24-.38c-.17-.29-.28-.61-.48-.89a1.32 1.32 0 0 1 -.14-.51.42.42 0 0 0 -.18-.31 1 1 0 0 1 -.47-1 .1.1 0 0 1 0-.05 1 1 0 0 1 .16-.45c.24-.38.48-.75.74-1.11a.48.48 0 0 1 .49-.26c.12 0 .18 0 .27-.13a.31.31 0 0 1 .54.14c.06.13.09.27.14.41a.18.18 0 0 0 .24 0l.22-.26c0-.28.11-.36.33-.29a.46.46 0 0 1 .36.4 2.3 2.3 0 0 0 0 .26l.2.24a1.11 1.11 0 0 1 .19.09c.08.06.13.18.27.14s.33-.07.4-.25.23-.37.1-.6a.25.25 0 0 1 0-.26c.06-.11.13-.21.19-.33.14-.3.13-.33-.2-.54a.29.29 0 0 1 -.23-.09c-.16-.14-.21-.14-.34 0l-.08.13c-.07.09-.15.11-.21 0a.9.9 0 0 0 -.28-.3l-.35.15c-.25.11-.47.14-.66-.12a.82.82 0 0 0 -.33-.19c-.13-.05-.28-.08-.34-.23a1.21 1.21 0 0 1 -.15-.72 1.18 1.18 0 0 1 .28-.57s0-.13 0-.15a.73.73 0 0 1 -.37-.72 1.48 1.48 0 0 1 0-.21 0 0 0 0 1 0 0s.08 0 .1 0 0 .06.06.09c.21.26.23.27.57.16a.56.56 0 0 1 .61.21s0 .1 0 .15 0 .15.1.15a1.1 1.1 0 0 0 .48 0 2.13 2.13 0 0 1 1.06-.09h.16a.78.78 0 0 1 .25-.07.22.22 0 0 1 .26.2 1.17 1.17 0 0 0 .05.2c.07.23 0 .32-.25.33a.4.4 0 0 1 -.15 0c-.05.1-.11.19-.22.2a.62.62 0 0 0 -.32.17v.15a1.19 1.19 0 0 0 .42 0c.25 0 .42.19.33.43a.38.38 0 0 0 .08.42c.14.23.26.46.55.55.05 0 .09.1.12.16s.17.43.25.65l.23.09a1.67 1.67 0 0 1 .08.2c0 .08.06.17.16.16s.15-.08.18-.16 0 0 0 0a2.32 2.32 0 0 1 0-.64c0-.13 0-.3.07-.41s.26 0 .38.1.29-.11.45-.11.24.08.37-.11.16-.23.37-.1a.34.34 0 0 0 .47-.1.2.2 0 0 1 -.05-.09 1.25 1.25 0 0 1 -.19-.76c0-.17.16-.22.26-.32s.13-.17 0-.33-.1-.1-.12-.17a.18.18 0 0 1 .07-.23 1.3 1.3 0 0 1 .25-.1c.44-.1.51 0 .38.41v.06a.38.38 0 0 0 .22.21c.27 0 .26-.25.28-.44s-.1-.19 0-.3.15-.07.24-.07.21 0 .31 0 .22.05.25.17a.2.2 0 0 1 -.13.25c-.11 0-.19.1-.16.23l.23.09.06.07a.77.77 0 0 1 0 .15.65.65 0 0 1 -.31.58 1.38 1.38 0 0 1 -.2 0 .26.26 0 0 0 -.38.15c-.07.19-.2.21-.36.22l-.21.08-.15.15c-.08.22-.16.44-.23.66a.74.74 0 0 1 0 .21.85.85 0 0 0 .37.94l.08.08c.13 0 .23 0 .22.2s0 .24.24.28h.48c.11 0 .2-.08.16-.17s0-.42 0-.63c0-.06 0-.12 0-.13a.18.18 0 0 1 .13.08s.06.09.09.13c.17 0 .24.13.31.25s.16.19.34 0 .2-.19.36-.19a.34.34 0 0 1 .34.28.51.51 0 0 1 -.1.46.24.24 0 0 1 -.23.09c-.11 0-.13-.11-.16-.2 0 .32 0 .49.23.57a.42.42 0 0 1 .31.32c0 .18.25.19.36.31a.21.21 0 0 1 0 .14.1.1 0 0 1 -.12.08.68.68 0 0 0 -.52.09c-.05.14-.18.21-.28.3a.32.32 0 0 1 0 .35s0 .13-.08.19h.07c.3.1.65 0 .94.16h.3c.08 0 .22.07.21-.08a.2.2 0 0 1 -.22-.11.21.21 0 0 1 0-.25.18.18 0 0 1 .23 0 .64.64 0 0 1 .1-.13l.34-.41c.15-.19.15-.2 0-.44a.12.12 0 0 1 0-.18.61.61 0 0 1 .14-.07c.65-.32.78-.67.49-1.33-.21 0-.31-.09-.36-.3-.09-.38-.06-.42.36-.47a.1.1 0 0 0 .05 0 .43.43 0 0 1 .12-.56.89.89 0 0 1 .38-.26.18.18 0 0 0 0-.23.24.24 0 0 1 0-.28.44.44 0 0 1 0-.39c0-.05 0-.1 0-.15h-.16c-.22-.11-.25-.12-.24-.35a.2.2 0 0 1 0-.11 1.29 1.29 0 0 0 -.44-.36.23.23 0 0 1 -.13-.16.42.42 0 0 1 .52-.41c.22 0 .38 0 .4-.31 0-.11.14-.16.2-.24a.79.79 0 0 0 .13-.84 1.54 1.54 0 0 0 -.4-.73.15.15 0 0 1 0-.2l.56-.92s.06-.07.1-.1c.07-.25.14-.49.23-.73 0-.09.23-.08.28 0a.57.57 0 0 1 .11.27 1.08 1.08 0 0 0 .1-.27 1.57 1.57 0 0 1 .22-.66v-.06l.24-.44c.05-.09.1-.19.14-.28s.07-.12.06-.14c-.24-.36.08-.54.24-.77a.09.09 0 0 1 0-.06.7.7 0 0 1 .25-.29.19.19 0 0 1 0-.08.55.55 0 0 1 .3-.33 1.91 1.91 0 0 0 .67-.59l.3-.32c.07-.18.21-.21.39-.22s.15-.09.07-.18-.17-.19-.07-.32a.34.34 0 0 0 .38-.1 1.3 1.3 0 0 0 .21-.31.83.83 0 0 1 .36-.38 5 5 0 0 0 1.13-1 1.41 1.41 0 0 1 .46-.35 6.41 6.41 0 0 1 .91-.45 1.52 1.52 0 0 0 .33-.18s0 0 0 0a1.83 1.83 0 0 1 .45-.15c.18 0 .17-.26.35-.3s.14-.11.24-.1a.74.74 0 0 1 .33-.13l.2-.15a.27.27 0 0 1 .28-.07l.48-.1c.27-.44.76-.62 1.1-1 .32-.1.56-.33.86-.44.12-.05.24-.09.29-.22s.26-.28.43-.38.09-.14.2-.1a1.39 1.39 0 0 0 .19.06c.17 0 .3-.18.5-.14s.12-.06.16-.12.14-.12.23-.05 0 .12 0 .19-.09.12 0 .2c.18-.07.36-.13.4-.37s.17-.14.29-.15 0-.28.06-.43.29.14.44.16a1.21 1.21 0 0 1 .43.06.83.83 0 0 0 .62 0 .63.63 0 0 1 .27 0 .2.2 0 0 1 .14.29 1.54 1.54 0 0 0 -.3.79c0 .15-.15.24-.26.33l.3.37a.1.1 0 0 1 0 .09.08.08 0 0 1 -.09 0 2.38 2.38 0 0 0 -1.64.11 1.89 1.89 0 0 0 -1 .54s-.14 0-.21 0l-.08.06c.07.16.15.32.21.49a.24.24 0 0 1 -.07.3c-.32.18-.32.5-.37.8a.83.83 0 0 1 .16.4l.07.08a.19.19 0 0 1 .09 0l.35.16a1.42 1.42 0 0 0 0-.58.14.14 0 0 1 .1-.17l.73-.14s.09.07.09.11c-.07.39.22.57.45.78a.71.71 0 0 1 .19.41 1.77 1.77 0 0 1 .42.51.23.23 0 0 1 -.23.32 1.55 1.55 0 0 1 -.21 0c-.08 0-.16 0-.17.08a1.64 1.64 0 0 1 -.36.72.18.18 0 0 0 0 .2 2.55 2.55 0 0 1 .18.67c-.14-.05-.28-.1-.39.09s-.15 0-.24 0c0 .16-.06.32-.28.31s-.3.14-.35.32l.32-.06h.21a.51.51 0 0 1 .47.3c.08.18-.08.29-.2.39l-.24.19c0 .15.12.33-.06.47a.58.58 0 0 1 -.12.49.81.81 0 0 0 -.11.41.41.41 0 0 0 .43.13 1.7 1.7 0 0 1 .31-.06.33.33 0 0 1 .4.19c.06.19.21.23.37.27a.76.76 0 0 0 .2-.27.59.59 0 0 0 0-.14v-.09s0 0-.05-.09 0-.1 0-.13.06 0 .1 0l.08.07.08-.06a.45.45 0 0 1 .16 0l.06.06.18-.11.06-.08-.18-.32c-.06-.12-.29-.13-.23-.32s.22-.17.33-.26a1.57 1.57 0 0 0 .25-.2c.27-.25.29-.41.08-.73a1.08 1.08 0 0 1 -.2-.54c0-.08.09-.13.11-.21v-.08a.54.54 0 0 0 -.2-.31c-.13-.09-.24 0-.35 0s-.07 0-.09 0a.12.12 0 0 1 0-.1.52.52 0 0 1 .58-.29 1.09 1.09 0 0 1 .25.1.63.63 0 0 0 .52 0 2.87 2.87 0 0 0 .9-.47.45.45 0 0 1 .71.05l.4.44c0-.07.14-.15.14-.22 0-.28.26-.37.37-.57h.09s.11.07.11.11q0 .34-.06.69a.55.55 0 0 0 .28.64c.09.07.11.16 0 .22a2.67 2.67 0 0 1 -.36.22.63.63 0 0 1 .11.12.19.19 0 0 1 0 .24.23.23 0 0 1 -.26 0c-.11-.07-.14-.2-.21-.31a2.6 2.6 0 0 1 -.25.33 1.22 1.22 0 0 0 -.3.53.33.33 0 0 1 -.19.35l-.24.09c-.12.06-.14.31-.33.19s-.05-.26-.08-.39a1.72 1.72 0 0 1 0-.64h-.16a2.22 2.22 0 0 1 -.64.54.74.74 0 0 0 -.3.35l.06.08a.07.07 0 0 1 .06.09c0 .09-.09.13-.1.22.17.05.34.11.52.15s.44.11.44.41c0 0 .08.06.12.09l.22.14a.63.63 0 0 0 .62.06.78.78 0 0 1 .34-.15 2.71 2.71 0 0 0 1.15-.39.78.78 0 0 0 .18-.11c.12-.11.22-.23.35-.36-.24-.19-.51-.33-.54-.66.34 0 .34 0 .61-.29l.16-.14a.48.48 0 0 1 .64 0l.54.35a1.32 1.32 0 0 0 .39.17.52.52 0 0 1 .47.38c0 .14.2.19.34.23s.15.09.01.18zm-21.38 9.69a3 3 0 0 0 -.17.79.42.42 0 0 1 -.57.33c-.14-.06-.1-.21-.08-.33s.11-.53.19-.78a1.59 1.59 0 0 1 .22-.35l.16-.09a.15.15 0 0 1 .24.11 1.16 1.16 0 0 1 .01.32zm-1 2.41c-.08.25-.16.51-.26.76s-.19.15-.46 0a1.1 1.1 0 0 1 -.52-.35c-.08-.08-.29-.12-.18-.27s.19 0 .28.08.28 0 .41-.07a.65.65 0 0 1 .17-.26c.12-.18.27-.14.43-.11a.15.15 0 0 1 .13.22zm-2.4 2.22a.26.26 0 0 1 -.19.23.19.19 0 0 1 -.21-.11c-.21-.22-.1-.43.12-.57a.15.15 0 0 1 .19.05.52.52 0 0 1 .09.4zm-1.42 1.06s-.05 0-.08.06c-.23 0-.46.05-.69.06a.2.2 0 0 1 -.18-.17.18.18 0 0 1 .13-.21 1.86 1.86 0 0 1 .78 0s.09.06.1.1a.22.22 0 0 1 -.06.16zm-1.11.65a.28.28 0 0 1 -.39 0 .27.27 0 0 1 0-.38.26.26 0 0 1 .34-.06.3.3 0 0 1 .05.44zm37.31-19.49c0 .18-.1.33-.13.5s0 .2-.15.1a.4.4 0 0 0 -.36-.19.46.46 0 0 0 -.46.29s-.06 0-.08 0a.72.72 0 0 0 -.11-.19l-.06-.1a.3.3 0 0 1 0-.1.16.16 0 0 1 .16-.13c.39.11.53-.26.78-.42l.25-.1a.31.31 0 0 0 .14-.16.69.69 0 0 0 .05-.13s0 0 0-.06a.49.49 0 0 0 0 .12c-.03.18.07.38-.03.57zm5.93 1.29a.79.79 0 0 0 -.93-.19 2.92 2.92 0 0 1 -1 0s0 0 0 0a.16.16 0 0 0 0-.1c.15-.12.22-.31.36-.44a.25.25 0 0 0 .06-.14.28.28 0 0 0 0-.15.27.27 0 0 0 -.11-.1c-.2 0-.35-.1-.37-.36a.84.84 0 0 0 -.19-.44l.07.05a.66.66 0 0 0 .58.15 1 1 0 0 1 .61 0h.14c.22.07.39-.26.63-.09.6.44.68.68.45 1.44 0 .2.1.33.22.48-.21-.09-.45.06-.55-.11zm2.56-2.26a.22.22 0 0 0 -.17.05.2.2 0 0 1 .2-.05z" fill="#f5333f"/></svg>