<svg viewBox="0 0 67.76 69.87" xmlns="http://www.w3.org/2000/svg"><path d="m64.2 34c-.15-.1-.15-.19-.07-.34s-.13-.19 0-.31 0-.2 0-.31c0-.32-.12-.64 0-1 .05-.13-.12-.31.06-.43 0 0 0-.07 0-.08s-.16-.19-.2-.3a1.46 1.46 0 0 1 -.07-.66 7.94 7.94 0 0 0 0-1.29.58.58 0 0 0 -.07-.32 1 1 0 0 1 -.11-.82c0-.28.08-.57.11-.85a1.26 1.26 0 0 0 -.31-1c-.13-.17-.13-.22 0-.45s.11-.25 0-.41a.26.26 0 0 1 -.11-.24 1.57 1.57 0 0 0 -.22-.77 10.61 10.61 0 0 1 -.84-1.77s0-.1-.08-.09c-.23 0-.26-.15-.33-.28a3.23 3.23 0 0 1 -.18-.49 8 8 0 0 0 -.87-2 15.94 15.94 0 0 0 -1.48-2 .91.91 0 0 1 -.23-.46 4 4 0 0 1 -1-.14 1.79 1.79 0 0 0 -.69-.08.2.2 0 0 1 -.25-.16l-.33-.19a.67.67 0 0 1 -.27-.26c-.06-.14.07-.23.1-.34a1.19 1.19 0 0 0 0-1 2.15 2.15 0 0 0 -.1-.27.37.37 0 0 1 0-.51.42.42 0 0 0 -.19-.29.62.62 0 0 0 -.4.22 1.35 1.35 0 0 0 -.2.57.37.37 0 0 0 .18.36l.32.2a.58.58 0 0 1 0 .14c0 .23 0 .26-.29.31a.48.48 0 0 1 -.23-.34c0-.11-.1-.13-.22-.13s-.21 0-.21-.2a1.92 1.92 0 0 0 0-.24s0-.05-.06-.06-.06 0-.07 0a.48.48 0 0 0 -.1.31c0 .08 0 .11-.13.09s-.18 0-.17.14a.39.39 0 0 1 -.08.31s0 .11 0 .13a.61.61 0 0 1 .18.63c0 .14 0 .28.09.39l.14-.19a.21.21 0 0 1 .2-.07.13.13 0 0 1 .14.1.12.12 0 0 1 -.07.15l-.4.12a.08.08 0 0 1 0 0c-.07.1-.1.26-.26.23s-.16-.2-.16-.35 0-.28 0-.42 0 0 0-.07 0-.08-.08-.12-.18.12-.28.17a.19.19 0 0 1 -.29-.18c0-.08 0-.15 0-.23s-.07 0-.11-.06a2.48 2.48 0 0 1 -.88.3.81.81 0 0 1 -.1.21.2.2 0 0 1 -.29.07.41.41 0 0 0 -.36 0 .62.62 0 0 1 -.27 0 .41.41 0 0 1 -.29-.48 1.27 1.27 0 0 1 .06-.18.68.68 0 0 0 -.29-.82c-.22-.15-.42-.33-.65-.47a.79.79 0 0 1 -.41-.71.31.31 0 0 1 .12-.24.7.7 0 0 0 .08-.27c0-.33.25-.49.42-.71a.13.13 0 0 1 .12-.05.29.29 0 0 0 .27-.15c0-.07.11 0 .14 0s.1.2.24.15a.38.38 0 0 1 .44.07c.06.06.14 0 .22 0l.47-.08a.51.51 0 0 1 .32 0 .18.18 0 0 1 .08.11s0 .07-.1.09l-.12.06a1.07 1.07 0 0 0 0 .73 1.41 1.41 0 0 1 .06.61.53.53 0 0 1 .17.46c0 .33 0 .35.4.3a.47.47 0 0 1 .17 0c.1.05.19.09.3 0s.26 0 .38.05a2.31 2.31 0 0 0 .19-.14c.09-.1.08-.21 0-.25s-.33-.28-.53-.37v-.07a.73.73 0 0 1 -.66 0 .27.27 0 0 1 0-.31.69.69 0 0 1 .08-.8.2.2 0 0 0 .06-.12c0-.35.29-.42.58-.42h.14l.1-.1c.24-.25.25-.25.53 0l.07.06c.1 0 .14 0 .18-.09a2.75 2.75 0 0 0 -1.35-.67 1.07 1.07 0 0 1 -.4-.23.34.34 0 0 1 -.1-.42.41.41 0 0 1 -.37-.31h-.37a.83.83 0 0 0 -.77.52c0 .08-.06.15-.1.22a.21.21 0 0 1 -.22.15.54.54 0 0 0 -.49.21.14.14 0 0 1 -.18.09.17.17 0 0 1 0-.17.51.51 0 0 1 .07-.17l.19-.21a1.08 1.08 0 0 1 -.53-.18.3.3 0 0 0 -.35 0c-.21.11-.36 0-.47-.17 0 .06-.06.11-.08.17a.5.5 0 0 1 -.43.39l-.18.05a.16.16 0 0 0 -.05.27 1.3 1.3 0 0 0 .18.15c.08.27.07.29-.19.39l-.25-.14c-.16-.1-.38-.13-.45-.33a1.33 1.33 0 0 1 -.11-.79.75.75 0 0 0 -.05-.55h-.1c-.07 0-.15.08-.21.06a1.57 1.57 0 0 1 -.74-.34.48.48 0 0 1 0-.42.55.55 0 0 0 .06-.18.15.15 0 0 0 -.19-.15 1 1 0 0 1 -.21.09.16.16 0 0 1 -.13 0 .15.15 0 0 1 0-.17v-.05c.06-.1.23-.13.21-.29s-.12-.19-.19-.27a1.09 1.09 0 0 1 -.21-.67 2.5 2.5 0 0 0 -.16-.68c-.1 0-.11.07-.12.12s-.07.34-.12.51a1.42 1.42 0 0 1 -.11.31.47.47 0 0 1 -.5.3.47.47 0 0 0 -.43.15.42.42 0 0 0 -.05.52.64.64 0 0 1 .06.18c0 .23.11.39-.23.52a.59.59 0 0 0 -.17.1.15.15 0 0 0 -.06.2c.06.18.14.35.21.53a.38.38 0 0 0 .17.16.91.91 0 0 1 .49.66.36.36 0 0 0 .07.17.81.81 0 0 1 .09.68.8.8 0 0 1 .48.3c.29.18.43.5.67.73a.44.44 0 0 1 .07.17c.1.31 0 .67.29.94v.09a4.89 4.89 0 0 1 -.2.48c0 .07-.1.05-.13 0s0-.09-.1-.06a.18.18 0 0 0 -.09.1.55.55 0 0 0 0 .18 3.25 3.25 0 0 1 .11.42c0 .23.07.47-.24.58a.09.09 0 0 0 0 .15.64.64 0 0 0 .18.06c.35.09.41.16.41.52a1.23 1.23 0 0 1 0 .19.12.12 0 0 1 -.13.11 1.77 1.77 0 0 1 -1-.23 1.39 1.39 0 0 0 -.52-.21.7.7 0 0 1 -.59-.49.89.89 0 0 0 -.14-.25.2.2 0 0 1 0-.32c.06 0 0-.12 0-.16s-.12-.07-.17 0a.87.87 0 0 1 -.37.29l-.21.11a.3.3 0 0 1 -.38-.1c-.12 0-.25.05-.37.09a.44.44 0 0 1 -.28 0h-.19a.31.31 0 0 1 0 .08.13.13 0 0 1 -.07.1l-.1-.09c-.3 0-.33 0-.32.26s0 .16 0 .24a.12.12 0 0 1 -.09.15 1.23 1.23 0 0 0 -.56.33.56.56 0 0 1 -.17.09.21.21 0 0 1 -.26-.05l-.11-.15a.36.36 0 0 0 -.25-.13.73.73 0 0 0 -.69.21.53.53 0 0 1 -.33.19 1.9 1.9 0 0 0 -.19.21 1 1 0 0 1 -.82.48c-.14 0-.18.14-.09.24.43.42.35.5.77 0a.82.82 0 0 1 .71-.37.52.52 0 0 1 .43-.48h.16a.15.15 0 0 1 0 .13.73.73 0 0 1 -.33.32.27.27 0 0 1 -.26 0 1.94 1.94 0 0 1 -.4.73 1 1 0 0 0 -.2.47.21.21 0 0 1 -.34.12.88.88 0 0 1 -.25-.22.58.58 0 0 0 -.53-.24.47.47 0 0 1 -.54-.06.17.17 0 0 0 -.22 0 .27.27 0 0 1 -.39 0c-.22-.2-.55-.24-.73-.52-.06-.09-.23 0-.29 0a.85.85 0 0 0 -.09.22.54.54 0 0 1 -.38.39c-.06.05 0 .14-.1.19a1 1 0 0 0 -.62.6 5 5 0 0 1 -.57.87.18.18 0 0 1 -.21.07.26.26 0 0 1 -.16-.27c0-.19.18-.3.29-.43a.1.1 0 0 0 0-.13h-.09-.09c-.19-.09-.22-.17-.13-.38a1.43 1.43 0 0 0 .12-.21 1.67 1.67 0 0 0 .15-1 .94.94 0 0 1 -.07-.22 1.49 1.49 0 0 1 .55-1c.09-.08.2 0 .24.11s0 .06 0 .09.09.14.17.09a2.38 2.38 0 0 1 .64-.2c.08 0 .18-.09.27 0a.68.68 0 0 1 .23.4.15.15 0 0 1 0 .12l-.2.2a.17.17 0 0 0 0 .14.3.3 0 0 0 .11.07.15.15 0 0 0 .09 0 .47.47 0 0 1 .49.09c.21.16.23.15.44 0a.84.84 0 0 1 .33-.19l.09-.09.1-.19c-.05-.17-.1-.34-.16-.5a.62.62 0 0 1 0-.59.43.43 0 0 0 0-.41 1.39 1.39 0 0 1 -.1-.26s0-.09.09-.08a1 1 0 0 1 .21.1l.42.31.2.12c.1 0 .25-.06.3.08s-.05.17-.06.26a.14.14 0 0 0 .12.18 1.39 1.39 0 0 0 .83 0 1.28 1.28 0 0 1 .75-.11.64.64 0 0 0 .6-.19l.14-.13a.23.23 0 0 1 .34 0 .22.22 0 0 0 .3 0 1 1 0 0 0 .34-.38h-.09a.28.28 0 0 1 -.25 0 .53.53 0 0 1 -.41-.2.62.62 0 0 1 -.11-.4 1.38 1.38 0 0 0 -.24-.9.65.65 0 0 1 0-.13.08.08 0 0 1 .09-.09h.05a.54.54 0 0 0 .73 0 .63.63 0 0 1 .41-.09c.13-.2.34-.33.42-.57s.16-.1.21 0 .17.26.37.21a.37.37 0 0 1 .27 0 .35.35 0 0 0 .18.06 1.07 1.07 0 0 1 .82.14c.05 0 .12 0 .17-.06a.3.3 0 0 0 0-.39l-.33-.47s0-.06-.07-.06c-.27 0-.27-.19-.32-.38a1.53 1.53 0 0 0 -.67-.77 1.43 1.43 0 0 0 -1-.31.25.25 0 0 1 -.28-.21 1.68 1.68 0 0 0 -.42-.84.33.33 0 0 1 -.07-.17.57.57 0 0 0 -.25-.34 3.36 3.36 0 0 1 -.29-.24.61.61 0 0 1 -.21-.37.62.62 0 0 0 -.18-.38.27.27 0 0 1 0-.35 2.64 2.64 0 0 0 .15-.29c0-.07 0-.18.09-.21a.29.29 0 0 1 .3.1c.09.11.16.23.25.35a.16.16 0 0 0 .16.07.18.18 0 0 0 .17-.15 1.8 1.8 0 0 0 -.1-1.21l-.06-.12c-.07-.13 0-.31-.12-.4a1.87 1.87 0 0 0 -.4-.13.05.05 0 0 1 0 0l-.1-.1c-.14.15-.2.37-.38.48-.1 0-.21 0-.23-.07-.06-.3-.21-.59-.07-.9a.54.54 0 0 0 -.18-.27c-.12 0-.18.16-.26.27a.37.37 0 0 1 -.22.16.16.16 0 0 1 -.2-.07.32.32 0 0 1 0-.09c-.11-.26-.11-.26-.42-.22-.11 0-.17 0-.19-.14a.55.55 0 0 1 .13-.49c.13-.12.1-.25 0-.39a.79.79 0 0 1 -.22-.06.45.45 0 0 0 -.53 0 .22.22 0 0 1 -.3 0c-.12-.16-.32-.08-.47-.18a.26.26 0 0 0 -.37.08c-.06.11-.1.16-.21.09a.69.69 0 0 0 -.46-.11.84.84 0 0 1 -.71-.06.14.14 0 0 0 -.14 0 .52.52 0 0 1 -.37 0c-.32-.08-.66 0-1-.1 0 0-.06 0-.09 0a.85.85 0 0 0 -.53.25c-.06.08-.2 0-.23-.08a2.08 2.08 0 0 0 0-.23c0-.11-.08-.19-.19-.16a.67.67 0 0 1 -.42 0 1 1 0 0 0 -.6 0c-.06 0-.13 0-.18 0a1 1 0 0 0 -.56-.19 1 1 0 0 1 -.5-.15c-.11-.09-.21 0-.31 0a1.37 1.37 0 0 0 -.23.17c-.18.2-.16.41.12.51h.09c.07 0 .2 0 .18.18s-.21.19-.34.15l-.08-.05a.18.18 0 0 0 -.22 0l-.34-.15c-.31.15-.51 0-.47-.3a.56.56 0 0 0 -.17-.51 1.64 1.64 0 0 1 -.2-.26 2.58 2.58 0 0 1 -.29 0 1 1 0 0 0 -.9.09.56.56 0 0 1 -.23 0c-.12 0-.14 0-.09-.17s0-.05 0-.08h-.09-.09a4.22 4.22 0 0 1 -1.19.47.76.76 0 0 1 -.47 0 1 1 0 0 0 -.65 0l-.74.19a2.67 2.67 0 0 0 -.26.09s-.05.06 0 .07.06.16 0 .19a6.36 6.36 0 0 1 -1.2.43 12.75 12.75 0 0 0 -2.47.88 14.28 14.28 0 0 0 -2.88 1.55c-.16.12-.33.2-.49.3l-.49.3a.3.3 0 0 0 -.11.14c-.15.41-.16.42-.53.38a.66.66 0 0 0 -.28 0 3.42 3.42 0 0 0 -.43.21 11 11 0 0 1 -1.21.81.31.31 0 0 0 -.15.1 8 8 0 0 1 -.91.84.93.93 0 0 0 -.36.49.09.09 0 0 1 -.12.06c-.22-.07-.36.06-.49.21-.34.37-.74.7-1 1.11a.54.54 0 0 1 -.18.15 1.48 1.48 0 0 0 -.44.49 4.76 4.76 0 0 1 -.31.47.12.12 0 0 1 -.08.05c-.2-.05-.2.07-.18.21s-.05.08-.08.12-.24.07-.34.14 0 .29-.16.38a1.19 1.19 0 0 1 -.29.12c-.12.06 0 .23-.07.34s-.3.56-.61.71a.14.14 0 0 0 -.08.16v.18a.23.23 0 0 1 -.21.08.25.25 0 0 0 -.22.08c0 .09.08.17.18.2s.13.13.2.19a.7.7 0 0 1 .19.26.22.22 0 0 1 0 .22.22.22 0 0 1 -.25.09 1 1 0 0 1 -.21-.1h-.14c-.3.16-.35.15-.48-.1-.18-.12-.23-.11-.27 0a1.67 1.67 0 0 1 -.08.32 6.67 6.67 0 0 1 -.7 1.18.2.2 0 0 1 -.09.16 1.3 1.3 0 0 0 .32.51c.08.06.07.16.09.26.16.06.26-.06.38-.14s.18 0 .22.09a.5.5 0 0 1 0 .27.19.19 0 0 1 -.28.16.67.67 0 0 1 -.12-.06.18.18 0 0 0 -.25.07c-.07.11-.16.05-.23 0a.47.47 0 0 1 -.13-.39c-.17-.25-.17-.25-.4-.19a16 16 0 0 0 -.84 1.51.58.58 0 0 0 -.1.4h.07a.79.79 0 0 1 .38-.18c.38-.08.76-.17 1.15-.23a.42.42 0 0 1 .47.23c.06.09.14.08.24.09a.29.29 0 0 1 .26.43c0 .11-.12.22-.17.33s0 .16.13.17h.33c.19-.17.29-.16.38 0a.39.39 0 0 1 0 .47l-.14.18v.28a.58.58 0 0 1 .06.17c0 .09 0 .2.09.26s.24.16.4.09.37-.09.44-.31.11-.12.18-.14l.28-.02c.28-.1.29-.13.21-.47a.23.23 0 0 1 -.08-.2c0-.18-.05-.21-.22-.21h-.13c-.1 0-.16 0-.14-.12a.87.87 0 0 0 0-.36l-.31-.12c-.22-.09-.38-.21-.34-.49a.77.77 0 0 0 -.09-.32c0-.11-.12-.23-.06-.36s.14-.42.35-.54a1.16 1.16 0 0 1 .53-.2s.08-.09.07-.12a.63.63 0 0 1 .22-.68l.14-.13s.06 0 .06.06 0 .06 0 .09c0 .29 0 .32.26.46a.51.51 0 0 1 .25.51s-.06.07-.1.1-.09.09 0 .15a1.05 1.05 0 0 0 .31.29 1.83 1.83 0 0 1 .72.6l.1.1a1 1 0 0 1 .2.11.19.19 0 0 1 0 .29 1.29 1.29 0 0 0 -.09.16c-.11.19-.2.2-.37 0a.47.47 0 0 1 -.07-.12.26.26 0 0 1 -.27 0 .53.53 0 0 0 -.3-.09l-.09.1a1.11 1.11 0 0 0 .27.26.27.27 0 0 1 -.07.47.36.36 0 0 0 -.21.32.94.94 0 0 0 0 .68s0 .12 0 .18-.17.37-.25.56l.08.2a.87.87 0 0 1 -.07.17c0 .07-.07.14 0 .21a.18.18 0 0 0 .21 0 1.69 1.69 0 0 1 .43-.37c.1-.08.15-.23.3-.22s.14.19.18.3.25.11.34.22.11.19.3.15.25 0 .3.17.19.23.35.23a.11.11 0 0 1 0-.08 1 1 0 0 1 .35-.59c.12-.11.24 0 .37 0s.18 0 .22-.19a.57.57 0 0 1 0-.18.16.16 0 0 1 .19-.1.81.81 0 0 1 .21.1c.34.21.34.29 0 .49a.32.32 0 0 0 0 .27c.19.14.31 0 .45-.1s0-.18.17-.2a.23.23 0 0 1 .19.11c.06.07.13.13.19.21a.21.21 0 0 1 .05.25.17.17 0 0 1 -.24.08c-.1 0-.18-.05-.25.05l.09.19a.28.28 0 0 1 0 .09.61.61 0 0 1 -.07.1.56.56 0 0 1 -.56.17 1.21 1.21 0 0 1 -.1-.14.24.24 0 0 0 -.34-.15.28.28 0 0 1 -.36-.09l-.18-.08h-.19l-.56.27a.55.55 0 0 1 -.12.14.77.77 0 0 0 -.36.82.27.27 0 0 1 0 .09c.09.09.13.17 0 .27s-.14.15 0 .32a1.37 1.37 0 0 0 .17.17c.06.06.17.07.2 0s.27-.26.38-.41.08-.07.11 0a.16.16 0 0 1 0 .12.58.58 0 0 1 0 .14c.1.11.07.23 0 .36s0 .2.18.23a.56.56 0 0 1 .35.11.3.3 0 0 1 0 .39.42.42 0 0 1 -.34.22.22.22 0 0 1 -.21-.09c-.06-.07 0-.15 0-.21-.23.16-.3.3-.21.49a.39.39 0 0 1 0 .39c-.09.14 0 .28 0 .42a.14.14 0 0 1 -.07.11.08.08 0 0 1 -.12 0 .62.62 0 0 0 -.38-.27.88.88 0 0 1 -.36 0 .28.28 0 0 1 -.24.19c-.06 0-.11.05-.17.07 0 .14.07.27.1.4a.19.19 0 0 1 .26.03.33.33 0 0 0 .09.11.48.48 0 0 1 .19.29v.06a1.64 1.64 0 0 1 .18.69c.05.08.07.15 0 .22s0 .16-.13.17a.6.6 0 0 1 -.56-.09.81.81 0 0 1 -.14-.12.12.12 0 0 1 0-.17 1.38 1.38 0 0 1 .39-.41l-.33-.15h-.09l-.1-.08a1.06 1.06 0 0 0 -.62.39.14.14 0 0 1 -.17.05.16.16 0 0 1 -.07-.17s0-.06 0-.09l-.38-.57a.87.87 0 0 0 -.11.09c-.21-.16-.21-.22 0-.37 0-.08.06-.15.08-.22.08-.35.08-.35.37-.56-.09-.13-.31-.09-.35-.28v-.19a.08.08 0 0 1 0-.12v-.05l-.25-.21s-.09.05-.07.1a3.53 3.53 0 0 1 .07 1 .22.22 0 0 1 -.13.23.18.18 0 0 1 -.25 0l-.2-.12c-.25-.16-.25-.16-.47.06a3.36 3.36 0 0 1 -.29.24 4.5 4.5 0 0 1 -.14.49.17.17 0 0 1 -.17.13.18.18 0 0 1 -.18-.11 1.43 1.43 0 0 1 -.06-.24h-.17v.06s0 .08 0 .11a6.17 6.17 0 0 1 0 .86s0 0 0 .05.07.18 0 .29-.12.08-.18.13.14.11.21.18l.65.21a.28.28 0 0 1 .19.28l.1.1a.43.43 0 0 0 .37-.11s0-.06.06-.07c.2-.1.32-.07.36.11a1 1 0 0 0 .26.55l.07.05c.19.12.19.12.3 0l.12-.14a.2.2 0 0 1 .33.13.32.32 0 0 1 -.06.27c-.08.1-.14.21-.21.31a.59.59 0 0 0 0 .7s0 .14.06.22a.25.25 0 0 0 .08.1l.09.1v.09a.21.21 0 0 1 0 .17v.22a.57.57 0 0 1 .65.1 1.61 1.61 0 0 0 .31.19c.22-.13.44-.23.67 0l.09.19c.28.17.33.3.21.59 0 0-.05 0-.07 0a.09.09 0 0 1 -.07 0 .83.83 0 0 0 -.29-.3v.17a2 2 0 0 1 .06.23.18.18 0 0 1 -.06.17l-.29.16a.14.14 0 0 1 -.17 0c-.14-.12-.26 0-.39 0a.12.12 0 0 1 -.19 0c-.1-.17-.21-.32-.44-.3a.17.17 0 0 1 -.21-.14c0-.09-.11-.09-.19-.11a.68.68 0 0 1 -.57-.43s-.08 0-.12-.06a.14.14 0 0 1 -.18.1.6.6 0 0 1 -.32-.2.19.19 0 0 1 0-.25c.2-.29.08-.57 0-.86a.25.25 0 0 0 -.16-.16.46.46 0 0 1 -.23-.28 1.79 1.79 0 0 0 -.33-.18.77.77 0 0 1 -.45-.27.25.25 0 0 1 .09-.4 1.1 1.1 0 0 1 .59-.14l.09-.11a.54.54 0 0 0 -.07-.13h-.07a.29.29 0 0 1 -.13 0 .27.27 0 0 1 -.3 0 .42.42 0 0 0 -.27-.06c-.1.08-.25.1-.33.24a.25.25 0 0 1 -.41.07 2.48 2.48 0 0 0 -1.11-.46.46.46 0 0 1 -.24-.67c.07-.1.21-.15.18-.31a.45.45 0 0 0 -.34-.3c-.1 0-.22-.07-.23-.2a.44.44 0 0 1 0-.48c.05-.16.18-.2.31-.24l.08-.05a.53.53 0 0 0 -.06-.27.22.22 0 0 1 .06-.29 2.2 2.2 0 0 0 .24-.28.36.36 0 0 0 0-.4.6.6 0 0 1 -.7-.13c-.11-.11-.23-.07-.31.06a1.34 1.34 0 0 0 -.07.02c-.06.11-.13.18-.26.15a.66.66 0 0 0 -.24 0 .27.27 0 0 1 -.39-.11c0-.08-.14-.06-.22 0v.1a.74.74 0 0 1 .08.58c.1.09.11.18 0 .26h-.06s-.07.07-.08.12v.17c.1.1.21.2.11.36s0 .18 0 .27a.36.36 0 0 1 -.09.34s0 .05 0 .08a.26.26 0 0 1 0 .37.12.12 0 0 1 .07.11.22.22 0 0 1 0 .21.3.3 0 0 0 0 .26c.12.1.05.2 0 .29.35.33.35.33.07.74l-.09.46a.38.38 0 0 1 -.11.25c-.14.1-.1.21 0 .32l.21.3a.24.24 0 0 1 .06.11.86.86 0 0 1 -.16.46l.22.09a.2.2 0 0 1 .13.23.92.92 0 0 1 -.21.52 2.17 2.17 0 0 0 -.23.3c0 .17.11.35-.09.48 0 .16.06.27.12.4s.06.15 0 .22a.36.36 0 0 0 0 .43c0 .12 0 .18-.18.24a.8.8 0 0 0 -.19.13s0 .05 0 .08c.23-.09.16.06.11.15a.33.33 0 0 0 0 .4.52.52 0 0 1 .1.65.32.32 0 0 0 0 .27 1.6 1.6 0 0 1 .18.83 4.43 4.43 0 0 0 .06.51h.08a.77.77 0 0 1 .3.27h.31s.25-.09.25-.26a.08.08 0 0 1 .14-.11.09.09 0 0 1 .09.08c0 .11.12.14.19.2s0 .22.07.3a.5.5 0 0 1 .12.44c0 .11 0 .22.14.26s.05.06 0 .07c-.1.16.11.22.1.32s.07.23.12.33.06.13 0 .18 0 .38-.22.5c0 .06.07.12.14.1s.15 0 .15 0 .15.33.11.52.1.21.22.27.31 0 .47.06a.79.79 0 0 1 -.31.55.44.44 0 0 0 -.12.15c-.06.12 0 .24 0 .36s.1 0 .16 0a.11.11 0 0 1 .12.06l.18.38c.07 0 .12.1.21.06a1.63 1.63 0 0 0 .58-.42.69.69 0 0 1 .3-.23.13.13 0 0 1 .08 0 .08.08 0 0 1 0 .08 3.28 3.28 0 0 0 -.19.68 1 1 0 0 0 .29.87c.07.12.2.21.16.37l.25.19c-.06.18.06.32.14.46s0 .23-.1.32l-.06.12s0 0 0 .07h.08c.26.09.28.14.14.38a1.33 1.33 0 0 1 .36.58.78.78 0 0 0 .22.3h.12a.22.22 0 0 1 .23-.25 3.26 3.26 0 0 1 .93.08c.17 0 .22.18.11.32a.66.66 0 0 1 -.34.25.42.42 0 0 1 -.38-.14.09.09 0 0 0 -.13 0s0 .06 0 .08l.09.37a.18.18 0 0 1 -.09.2.16.16 0 0 1 -.18 0l-.17-.16c-.08-.08-.17 0-.27 0h-.11a.61.61 0 0 0 0 .17l.22.51c.11.14.06.31.09.47.15.17.15.41.33.56-.08.13 0 .2.12.25a.23.23 0 0 1 .13.18.64.64 0 0 1 0 .39 1.88 1.88 0 0 0 .55.12c0-.08.07-.17 0-.24a1.24 1.24 0 0 1 -.21-.18.22.22 0 0 1 0-.33.24.24 0 0 1 .34 0 1.18 1.18 0 0 1 .13.18l.14.19a.52.52 0 0 0 .34-.52.28.28 0 0 1 0-.09.13.13 0 0 1 .13-.12.11.11 0 0 1 .13.1c0 .24 0 .48.07.71a7.79 7.79 0 0 1 .07 1.11.25.25 0 0 1 -.07.17 1 1 0 0 0 -.15.39c.09.17.13.38.36.44a.22.22 0 0 1 .11.14c0 .16.19.18.28.29a.23.23 0 0 1 .09.35.76.76 0 0 0 -.08.21l.29.11c.15-.14.15-.14.25 0a.2.2 0 0 1 0 .08.7.7 0 0 1 .34.32.21.21 0 0 1 -.06.26c.07.15.13.3.19.46.14-.05.05-.16.08-.24s0-.14.1-.12.1.07.1.14 0 .21 0 .32a.18.18 0 0 0 .09.1h.09l.1-.18.38.28a.49.49 0 0 1 .06.17h.1c.15-.22.18-.22.37-.08a.11.11 0 0 1 0 .08 1.15 1.15 0 0 1 0 .32c0 .12-.12.25.13.19a.19.19 0 0 1 .19.1.12.12 0 0 1 0 .13s-.07.09-.09.08a.34.34 0 0 0 -.31 0c.13.08.21.25.38.27s.2.1.31 0c.11.09 0 .2 0 .29a.88.88 0 0 0 .18.21c.14.12.15.12.33 0s.05 0 .08 0 .05 0 .07 0 0 0 0 0a.87.87 0 0 1 -.16.17c-.07 0-.09.08 0 .14s.08.21.23.19a.22.22 0 0 1 .17.07c.11.22.26.12.4.06a.81.81 0 0 1 .29.29.13.13 0 0 1 .1.09.78.78 0 0 1 .15.1c.14.14.13.18 0 .37v.19l.35.05c.24-.06.29 0 .37.28a.08.08 0 0 0 .08 0 .14.14 0 0 1 .12 0 .1.1 0 0 1 .07.05.78.78 0 0 1 .28.29l.38.15a.17.17 0 0 1 .11.22c.1.08.14.21.26.27l.87.46 1.18.69a.78.78 0 0 1 .21.09c.24.14.24.14.1.43a.07.07 0 0 0 0 0h.16a1.24 1.24 0 0 1 .19-.26c.21-.19.25-.34.54 0 .1.13 0 .22 0 .33l.17-.11h.07v.07l.09.25h.41c.06 0 .09 0 .1-.06s0-.13 0-.16l-.16.01.12-.07c.2-.09.29-.06.33.16a.71.71 0 0 1 0 .14c.08 0 .21.1.23 0s0-.23.17-.13a1.52 1.52 0 0 0 .4.12c.16.06.27.15.26.34.2-.11.2-.11.31.09a.11.11 0 0 0 .19 0 .21.21 0 0 0 0-.13c0-.07-.06-.14-.08-.22s0-.09.09-.08h.13a3.73 3.73 0 0 1 .6.37c.15.12.18.11.36 0h.08c.16-.09.16-.09.3.12h.24a.23.23 0 0 1 .26.22.65.65 0 0 0 .19 0h.18v.09c0 .08.05.16.14.16s.13-.06.14-.15.1-.23.25-.21a.27.27 0 0 1 .23.29v.26s.12 0 .12-.07c0-.26.19-.27.37-.3a.33.33 0 0 1 .38-.1 2 2 0 0 1 .43.17c.13.07.07.15 0 .23v.07a.58.58 0 0 0 .38.1c.1-.14 0-.3 0-.5l.39.23h.08.1c.19-.13.39 0 .58 0 0 0 .08.05.09.09a2.81 2.81 0 0 1 .1.31h.3c0-.13-.13-.18-.14-.28s.05-.25.21-.2l.3.11s0 0 0 0a.11.11 0 0 1 .1.09.11.11 0 0 1 .09.09l.05.21h.19c.08 0 .09 0 .11-.11s.06-.16.15 0 .11.14.23.07a1.16 1.16 0 0 1 .58-.14c.12 0 .13 0 .14.17s.06.23.21.16.17-.15.3-.11a.37.37 0 0 0 .43-.1h.1c.08.06.17.14.25.07a1.24 1.24 0 0 1 .28-.11c.18-.09.21.07.3.1a1 1 0 0 0 .42 0s.07-.05.08-.1 0-.13.08-.19l.15.23c.07.12.17 0 .24 0 .1.14.2.13.3 0s.29 0 .42-.08v.08c0 .07 0 .14.11.06s.09-.17.2-.18.18.06.26.11.17.12.26.06.16 0 .16.11a.09.09 0 0 0 .07.11h.11s.12-.16.31 0a.27.27 0 0 0 .13 0 .26.26 0 0 0 .26-.25.54.54 0 0 0 .68.06.19.19 0 0 1 .13 0 10.64 10.64 0 0 0 1.59-.31c.18 0 .21 0 .25.16a.59.59 0 0 0 0 .14.16.16 0 0 0 .25.12l.12-.08a.35.35 0 0 1 .38-.08 1 1 0 0 0 .86-.14.24.24 0 0 1 .31 0 .15.15 0 0 0 .13 0 2.87 2.87 0 0 1 .59-.17l.06-.12c.14-.34.14-.34.43-.13h.18a.29.29 0 0 1 .12-.07h.07l-.11-.08c-.14-.12-.15-.16 0-.29l.14-.11h.27s.05 0 .08 0a1.15 1.15 0 0 0 .69-.28v.1a.3.3 0 0 0 0-.1 4.17 4.17 0 0 0 .36-.37 1.67 1.67 0 0 1 .6-.45 3.26 3.26 0 0 0 .94-.68c.08-.15.24-.29.08-.48s-.22 0-.29.06-.23.12-.36.07a.58.58 0 0 1 -.29-.22l-.31-.13c-.12-.07-.19-.18-.35-.21a.36.36 0 0 1 -.34-.38.13.13 0 0 1 .15-.13.7.7 0 0 1 .21.11 1.14 1.14 0 0 0 .32.26c.19-.15.23-.41.42-.57a.38.38 0 0 0 0-.22 1.53 1.53 0 0 1 .11-.42c0-.06.06-.12.13-.11a.5.5 0 0 0 .43-.26.31.31 0 0 1 .11-.09.15.15 0 0 1 .23.07.32.32 0 0 1 0 .14.48.48 0 0 0 .36.49.9.9 0 0 1 .19.15.37.37 0 0 1 .15.42.53.53 0 0 0 0 .18h.08a.11.11 0 0 1 .09.1v.19c.05 0 .1.09.15.1s.21.14.22.29l.12.26h.39a.44.44 0 0 1 -.1-.15c0-.09-.06-.19 0-.27a.31.31 0 0 1 .3-.09.52.52 0 0 1 .13.06.33.33 0 0 0 .43 0c0-.15.23-.16.28-.3s.11-.06.15 0 .18.09.25 0a1.64 1.64 0 0 1 .6-.48 5.88 5.88 0 0 0 .6-.35.21.21 0 0 0 .09-.1l-.15-.16a.22.22 0 0 1 0-.32.31.31 0 0 1 .2-.09l-.13-.35-.09-.1a.86.86 0 0 1 -.1-.16.14.14 0 0 1 .11-.21h.19c.14 0 .29 0 .38.12a.38.38 0 0 1 0 .44.53.53 0 0 0 0 .46.46.46 0 0 0 .26 0 3.56 3.56 0 0 1 .46-.49 5.48 5.48 0 0 0 .86-1 1.12 1.12 0 0 1 .26-.27 3.14 3.14 0 0 0 .6-.55c.06-.07.12-.15.22-.15s.28-.12.36-.26l.21-.43a.72.72 0 0 1 .66-.45.26.26 0 0 0 .23-.13l.15-.19a.22.22 0 0 1 .11-.18.36.36 0 0 0 -.22-.22 4.59 4.59 0 0 1 -.74-.43c-.15-.08-.14-.24 0-.34a1 1 0 0 1 .21-.1c.16 0 .26-.11.27-.27a.38.38 0 0 1 .19-.27s.11-.08.17 0a.62.62 0 0 0 .5.06c.27-.06.3 0 .37.26a.24.24 0 0 0 .09.16c.06-.13.19-.22.2-.37s-.15-.27 0-.43.06-.15.15-.16.13.06.18.12c0-.05 0-.07.09-.09l.02-.14c0-.18.14-.3.2-.43s-.1-.07-.15 0a.23.23 0 0 1 -.29-.08l-.21-.24a.46.46 0 0 0 -.51-.16.9.9 0 0 1 -.36.22.46.46 0 0 1 -.41 0 .21.21 0 0 0 -.32.08 1 1 0 0 0 -.18.54.23.23 0 0 1 -.14.18.16.16 0 0 1 -.21 0l-.07-.06s-.14-.08-.14 0a1.48 1.48 0 0 1 -.07.42c-.11.31-.11.31-.46.31-.14 0-.28.1-.41 0a.34.34 0 0 1 -.08-.09.28.28 0 0 1 0-.09c-.06-.13-.12-.25-.17-.38a.25.25 0 0 1 .17-.33.72.72 0 0 1 .36 0 .59.59 0 0 0 .09-.49c-.09-.24-.07-.27-.31-.21a.42.42 0 0 1 -.48-.1c-.12-.15-.31-.14-.46-.22s-.2-.13-.09-.31a.18.18 0 0 0 .11-.1c.09-.24.18-.48.28-.71a.23.23 0 0 1 .36-.08 1.3 1.3 0 0 0 .52.38c.11 0 .06.16 0 .25l.08.48s0 0 0 0l.61.32h.17s.39-.21.55-.36l.1-.19a2.27 2.27 0 0 0 .46-1.11.39.39 0 0 1 .22-.29.42.42 0 0 0 .2-.35c0-.24.15-.33.36-.36.23.11.23.11.21.33a.68.68 0 0 0 0 .14l-.23.09a.57.57 0 0 0 -.32.67.43.43 0 0 1 -.12.47.74.74 0 0 0 -.21.51.12.12 0 0 0 .08.15.12.12 0 0 0 .14-.1 2.14 2.14 0 0 0 .1-.22c.21-.39.21-.29.56-.19.1 0 .15.1.19.19s0 .12.05.18a.38.38 0 0 0 .38.3h.85c.08-.19.26-.31.37-.48a1.32 1.32 0 0 0 -.18-.33.15.15 0 0 1 .1-.22.45.45 0 0 1 .36.06l.1-.09 1-1.62a.23.23 0 0 1 .09-.19.51.51 0 0 0 -.26-.24.39.39 0 0 1 -.22-.33.2.2 0 0 0 -.09-.09 1.1 1.1 0 0 1 -.51 0 .19.19 0 0 1 -.17-.19 1 1 0 0 1 .1-.54 1.32 1.32 0 0 1 .09-.3.88.88 0 0 0 .12-.44c0-.08 0-.16 0-.24a.37.37 0 0 1 .29-.38 2.35 2.35 0 0 0 .43-.19.57.57 0 0 1 .79.24.71.71 0 0 0 .33.37.59.59 0 0 0 .2-.4c0-.06 0-.12 0-.17a1.12 1.12 0 0 0 .23-.75c0-.07 0-.2 0-.22.22-.15.13-.32.08-.51s0-.18.08-.26a.41.41 0 0 0 .05-.45.41.41 0 0 1 .06-.36c.07-.14.17-.24.09-.42s.14-.2.12-.3c-.06-.26.11-.45.16-.68a2.86 2.86 0 0 0 .17-.87.3.3 0 0 1 .06-.18.76.76 0 0 0 .11-.59c0-.07 0-.15.05-.23.09-.24.17-.47.25-.71s0-.49.17-.71a.29.29 0 0 0 0-.31.34.34 0 0 1 0-.44.52.52 0 0 0 .06-.37 1.26 1.26 0 0 1 0-.47c0-.11 0-.25 0-.36s.08-.18 0-.3.06-.23-.06-.34 0-.14.08-.2.14-.15 0-.39c-.13 0-.18-.12-.1-.24l.1-.15a.42.42 0 0 0 .11-.44.32.32 0 0 1 .1-.38c.08 0 .07-.14 0-.22a1 1 0 0 1 0-.74.3.3 0 0 0 0-.29c-.06-.11 0-.11.11-.13s.26-.09.18-.18zm-17.73-23.49c-.11 0-.29-.07-.47-.13a.19.19 0 0 1 -.06-.31.4.4 0 0 1 .41-.17.55.55 0 0 1 .46.37c.04.13-.08.25-.34.24zm-4.9 2.76a.43.43 0 0 1 .42.25.15.15 0 0 1 -.12.21.39.39 0 0 1 -.4-.32.11.11 0 0 1 .1-.14zm-32.46 5.19c-.08 0-.17-.07-.16-.19s0-.13.11-.13.12.09.13.17a.14.14 0 0 1 -.08.15zm1.63 1.43h-.2-.13a.23.23 0 0 1 -.16-.16.16.16 0 0 1 .14-.17.33.33 0 0 1 .42.11.12.12 0 0 1 -.07.22zm.7-5.54c-.1.1-.23.06-.34 0a1.3 1.3 0 0 1 -.18-.15l-.33-.27c-.05 0 0-.15 0-.15a.75.75 0 0 0 .54-.24c.09-.05.17-.09.27 0s.1.16 0 .3a2 2 0 0 1 -.1.21.24.24 0 0 1 .14.3zm.07 3.49a.45.45 0 0 1 .25-.37c.14-.08.38.09.38.25a.53.53 0 0 1 0 .18.15.15 0 0 1 -.14.1h-.19a.32.32 0 0 1 -.14 0c-.12 0-.17-.07-.16-.16zm.71 4h-.05a.92.92 0 0 0 -.5-.34s-.07-.06-.09-.1a.14.14 0 0 1 0-.17.17.17 0 0 1 .12-.07.76.76 0 0 1 .62.56s-.06.11-.1.1zm.65-.46a.16.16 0 0 1 -.15-.19.64.64 0 0 1 .06-.18c0-.08.07-.18.19-.17a.32.32 0 0 1 .26.29c-.01.1-.23.23-.36.23zm-4.81 10.37a.27.27 0 0 1 -.26-.23.26.26 0 0 1 .2-.25.23.23 0 0 1 .25.17.26.26 0 0 1 -.19.31zm1.26.2a.19.19 0 0 1 -.16.09s-.07 0-.09 0-.31-.25-.46-.39a.17.17 0 0 1 0-.22.16.16 0 0 1 .21-.05 1.61 1.61 0 0 1 .51.46.15.15 0 0 1 -.01.16zm1.39.31a.23.23 0 0 1 -.27 0 .16.16 0 0 1 -.06-.19c0-.28.21-.33.44-.29a.15.15 0 0 1 .08.15.44.44 0 0 1 -.19.33zm-6.05.07a.22.22 0 0 1 -.26.11.35.35 0 0 1 -.12-.1 1.17 1.17 0 0 1 -.1-.26.2.2 0 0 1 0-.13.1.1 0 0 1 .13 0c.08 0 .17.07.25.12a.19.19 0 0 1 .1.26zm3.18 6.42c0 .1-.08.15-.16.11a1 1 0 0 1 -.25-.13.43.43 0 0 0 -.58-.11.23.23 0 0 1 -.27 0c-.08-.05-.17-.11-.26-.05a.23.23 0 0 1 -.36-.1.28.28 0 0 0 -.12-.14c-.29-.12-.2-.4-.27-.62a.66.66 0 0 1 .19-.37.2.2 0 0 1 .17-.06 1.68 1.68 0 0 1 .32.09 1.17 1.17 0 0 0 .71.22c.06 0 .14.07.2.11a.23.23 0 0 1 .07.11c0 .09-.08.07-.15.07s-.08 0-.07.08a.09.09 0 0 0 0 .07.16.16 0 0 0 .09 0 .67.67 0 0 1 .59.33.44.44 0 0 1 .15.39zm10.16-20.15a2.4 2.4 0 0 1 0 .28c0 .12 0 .25-.05.37a.13.13 0 0 1 -.07.05s0 0 0 0c0-.23-.16-.41-.2-.62s.05-.15.14-.17.18 0 .18.09zm-1.6-4.36a.31.31 0 0 1 .09-.11.41.41 0 0 0 .17-.36c0-.17.1-.22.26-.16s.16.1.26.06a.17.17 0 0 1 .2.11 1.19 1.19 0 0 1 .11.26.5.5 0 0 0 .23.34.19.19 0 0 1 .09.28c-.06.13-.14.22-.3.19h-.13a.77.77 0 0 1 -.51-.13c-.09-.08-.21 0-.31-.06a.24.24 0 0 1 -.16-.42zm.29 4.24s.06.05.09.08 0 .08 0 .1a1.73 1.73 0 0 1 -.25.21c-.13.08-.31 0-.34-.21s0-.08 0-.08a3.86 3.86 0 0 1 .5-.1zm-1.28-7.69s0 .01 0 0zm0 .43a.22.22 0 0 1 .27-.14l.13.05c.09.06.25 0 .29.09s.17.31.11.5a1.07 1.07 0 0 1 -.14.39.26.26 0 0 1 -.37.07.78.78 0 0 1 -.34-.57 1 1 0 0 1 .07-.39zm-1.41 11.78c0 .12-.11.19-.19.17a.24.24 0 0 1 -.17-.23.71.71 0 0 1 .05-.16.17.17 0 0 1 .19-.09.16.16 0 0 1 .14.17.78.78 0 0 1 -.02.14zm.16-1.92a.2.2 0 0 1 -.16-.16.11.11 0 0 1 .12-.11.19.19 0 0 1 .16.16.11.11 0 0 1 -.16.1zm.4-3.3a.58.58 0 0 1 -.37 0c-.14-.08-.12-.25-.2-.42l.94-.08h.09c.08 0 .12.14.06.19a1.53 1.53 0 0 1 -.56.3zm.2 13.71a4.6 4.6 0 0 1 .6-.37 1.11 1.11 0 0 1 .36-.08h.15a.13.13 0 0 1 .08.22.61.61 0 0 1 -.19.2 2.94 2.94 0 0 0 -.6.39.36.36 0 0 1 -.27.07.34.34 0 0 1 -.29-.21c-.09-.11.03-.17.12-.23zm2.24 3.31-.09.1a.73.73 0 0 1 -.3.28 1.08 1.08 0 0 0 -.41.11c-.2.13-.32 0-.45-.1-.3 0-.43-.29-.59-.5a.28.28 0 0 1 0-.22c0-.11.13-.13.22-.15v-.18c-.21-.19-.21-.21-.07-.46h.18a.44.44 0 0 1 .29.08h.22a.84.84 0 0 1 .81.36c0 .06.12.09.18.13h.28a.38.38 0 0 1 .29.29.16.16 0 0 1 -.14.2 1 1 0 0 0 -.42.06zm.36.76c0 .09-.1.2-.17.2s-.21-.16-.21-.28a.17.17 0 0 1 .17-.13.22.22 0 0 1 .16.21zm-1.52-9.56a.18.18 0 0 1 -.19-.17.2.2 0 0 1 .19-.18c.09 0 .14.05.15.22a.14.14 0 0 1 -.15.13zm-1.84.19a.29.29 0 0 1 .31 0s0 .06 0 .08a.23.23 0 0 1 -.16.16.19.19 0 0 1 -.21 0 .16.16 0 0 1 .06-.24zm-1.1.54a.2.2 0 0 1 .19-.17.22.22 0 0 1 .23.19.19.19 0 0 1 -.19.22.22.22 0 0 1 -.24-.24zm-.29 4.86c.1 0 .11.13.13.22s.19.16.3.22a.51.51 0 0 1 .26-.03c.18 0 .26.08.34.2a.13.13 0 0 1 -.05.2c-.21.11-.42.22-.63.31s-.22 0-.31-.26a1.06 1.06 0 0 1 -.1-.55c0-.13-.11-.28.05-.31zm-1-1.19a.18.18 0 0 1 .17-.13.19.19 0 0 1 .13.26c0 .07-.06.14-.15.13a.2.2 0 0 1 -.12-.26zm1.11 26.87-.1-.1.11.09zm4.92-18.9a.16.16 0 0 0 -.05.12.59.59 0 0 1 -.19.52.31.31 0 0 0 -.09.11.47.47 0 0 1 -.48.08 1.85 1.85 0 0 0 -.58.09c.06.16.07.31-.13.38a1.12 1.12 0 0 0 -.36.29 1.26 1.26 0 0 0 -.2.2.46.46 0 0 1 -.26.18 3.92 3.92 0 0 0 -.86.39 1.34 1.34 0 0 1 -.83.28c-.09 0-.2.07-.3.11-.13.08-.22.23-.38.26a1.13 1.13 0 0 0 -.41-.05c-.14 0-.17-.1-.18-.22l-.1-.09c-.14-.06-.28-.13-.42-.18s-.25-.09-.16-.4c0-.06-.09-.14-.17-.14a.34.34 0 0 1 -.38-.26c-.05-.13-.13-.25-.19-.37a.71.71 0 0 1 -.22-.07.28.28 0 0 1 -.09-.41c.09-.13.19-.25.29-.37l.08-.11c.11-.17.26-.3.36-.48s.26-.34.62-.16c.23 0 .47.15.69 0a.13.13 0 0 1 .13 0 .44.44 0 0 0 .32.18c.08 0 .09.12.1.19a.31.31 0 0 0 .28.28 2 2 0 0 0 .43 0 1.73 1.73 0 0 1 .75 0 .33.33 0 0 0 .31-.07.5.5 0 0 1 .58-.06.44.44 0 0 0 .52-.08 5.39 5.39 0 0 0 .63-.43s.09 0 .13 0 .17-.18.24-.29a1.32 1.32 0 0 1 .24-.29.26.26 0 0 1 .43.17c.04.27.1.51-.07.7zm.85-14.81-.49.44a1.4 1.4 0 0 1 -1.15.51.76.76 0 0 1 -.57-.13c-.15 0-.14-.19-.24-.27s-.22-.1-.33.07a.56.56 0 0 1 -.59.26.14.14 0 0 1 -.06-.07.1.1 0 0 1 0-.09s0-.06.06-.06c.35-.06.5-.48.87-.5l.27-.1c.05 0 .14-.05.15-.09a.36.36 0 0 1 .3-.27s0 0 0 0 .09-.26.29-.26a.41.41 0 0 1 .38.23l.1.09c.24.22.55.13.83.18 0 0 .1-.06.16-.09a.08.08 0 0 1 .11 0 .1.1 0 0 1 -.06.15zm1.71-6.56c.18-.17.15-.45.32-.62a.41.41 0 0 1 .24-.15c.16 0 .32 0 .31.22a.32.32 0 0 0 .29.36c.18 0 .2.19.22.33a.25.25 0 0 1 0 .13l-.89.44h-.07s-.07 0-.09-.08-.19-.36-.28-.54c-.05-.09-.06-.09-.05-.09zm.69 3.18c-.07-.12-.34 0-.29-.2s.22 0 .34-.05h.06c.36 0 .36 0 .4.4a2.14 2.14 0 0 0 .06.27c0 .11.09.21 0 .3s-.14 0-.22-.18a.78.78 0 0 0 -.11-.2c0-.05-.1-.07-.15-.11a.11.11 0 0 1 0-.18zm-1.39 5.34c.21-.12.41-.23.63-.33.06 0 .18.09.17.18a.43.43 0 0 1 -.27.36.58.58 0 0 1 -.39.06s0 0-.07 0a.22.22 0 0 1 -.1-.09.13.13 0 0 1 .03-.18zm1.07 8.92c-.08.16-.25.17-.41.17a.73.73 0 0 1 -.5-.14c-.31-.18-.36-.4-.13-.7a.59.59 0 0 0 .12-.2c0-.07-.08-.17 0-.2s.14.06.21.1a1.72 1.72 0 0 1 .52.41l.06.06a.51.51 0 0 1 .13.5zm-.24-11.81a1.86 1.86 0 0 0 .25-.42c0-.06.09-.06.15 0s.14.11.09.18a.46.46 0 0 1 -.49.24zm2 5.65a.29.29 0 0 1 -.26.3c-.35 0-.68.15-1.09.15a.13.13 0 0 1 -.08 0c-.05 0-.08-.09-.05-.11.21-.09.21-.29.28-.46a.65.65 0 0 1 .6-.33c.12 0 .25-.06.37-.07a.19.19 0 0 1 .22.2 1.82 1.82 0 0 1 -.02.32zm-.15-2.6a.3.3 0 0 1 -.27-.21.29.29 0 0 1 .22-.25c.11 0 .21.08.23.23a.2.2 0 0 1 -.21.23zm9.77-6.76a.2.2 0 0 1 -.23.18.19.19 0 0 1 -.17-.19.24.24 0 0 1 .22-.21.2.2 0 0 1 .15.22zm.5.63h-.09a.21.21 0 0 1 -.17-.08c0-.07-.08-.17 0-.22a.89.89 0 0 0 .28-.53.22.22 0 0 1 .27-.13c.09 0 .15.07.14.16a1.41 1.41 0 0 1 -.46.8zm6-7.56s0-.05 0-.08.02.09-.01.09zm-1-4 .38.09a.05.05 0 0 1 0 0c-.09-.18-.09-.19.11-.24a1 1 0 0 1 0-.67s-.01-.17.06-.17c0-.07-.1-.14-.07-.22s.11-.26.17-.38a.77.77 0 0 0 .69 0c.11-.05.21-.07.28.06a.76.76 0 0 0 .09.09h.09a1.2 1.2 0 0 1 .46.07c.11 0 .23.06.26.18s-.07.2-.16.27l-.37.29a.35.35 0 0 0 -.16.32c0 .13-.11.17-.21.21-.38.38-.57.35-.83-.12a.11.11 0 0 0 -.15-.06l-.17.07a.55.55 0 0 1 -.09.28 1.08 1.08 0 0 1 0 .19.11.11 0 0 1 -.19 0 .42.42 0 0 1 -.24-.25zm-2.96-1.49a3 3 0 0 0 .2-.82.67.67 0 0 1 .53-.59l.27-.09a.63.63 0 0 1 .38.09c.25 0 .31 0 .36.16a2 2 0 0 1 0 .24.24.24 0 0 0 .21.22 1.27 1.27 0 0 1 .28.06.31.31 0 0 1 .19.25.13.13 0 0 1 -.17.16l-.31-.18c-.24-.11-.3-.08-.39.19 0 .09-.08.13-.17.11s-.06-.08-.11-.07-.26.14-.25.26-.06.38 0 .57a.53.53 0 0 0 .05.18c.06.16.15.28.34.28a2.87 2.87 0 0 1 1.1.41s0 0 0 0l.1.09a.79.79 0 0 1 .11.36.6.6 0 0 0 .32.45c.18.1.36.19.41.42 0 .05.08.1.13.13a.29.29 0 0 1 .13.28.29.29 0 0 0 0 .14.38.38 0 0 1 .15.45.22.22 0 0 0 .11.25c.3.14.31.4.28.68v.19s.15 0 .21 0a.18.18 0 0 1 0 .22c0 .07-.07.15-.16.15s-.1-.11-.11-.18a1.85 1.85 0 0 1 0-.23l-.79-.13a.17.17 0 0 1 -.17-.19c0-.16 0-.32 0-.47a.18.18 0 0 0 -.29-.13c-.09.06-.17.14-.26.21a.1.1 0 0 1 -.15 0c-.09-.23-.16-.45-.24-.68a.61.61 0 0 1 -.42-.33.3.3 0 0 1 -.06-.31.73.73 0 0 0 -.07-.63.38.38 0 0 1 0-.36c-.09-.08-.22-.12-.26-.25s-.14-.15-.26-.07a.15.15 0 0 1 -.13 0c-.13-.14-.3-.23-.4-.4s-.19-.29-.28-.44a1 1 0 0 0 -.33-.39.21.21 0 0 1 -.08-.26zm-1.08 4.83c0-.1.1 0 .15 0s.09 0 .1-.08-.08-.16-.15-.22a.43.43 0 0 1 -.1-.52.59.59 0 0 1 .06-.14c.11-.16 0-.47.26-.52s.3.2.46.3.17.07.26.12a.22.22 0 0 1 .07.36 1.35 1.35 0 0 1 -.28.25.52.52 0 0 0 -.25.39.52.52 0 0 1 -.18.32.25.25 0 0 1 -.31 0 .23.23 0 0 1 -.09-.26zm.32 53.92a.11.11 0 0 1 -.09-.1.08.08 0 0 1 .09-.09.11.11 0 0 1 .1.12.08.08 0 0 1 -.1.07zm.27-48.85a.51.51 0 0 1 -.44-.53c0-.11 0-.23.06-.31a.54.54 0 0 0 .08-.56.88.88 0 0 1 0-.28.13.13 0 0 1 .09-.1.17.17 0 0 1 .11.06 1 1 0 0 1 .05.18c0 .07 0 .18.11.17s.07-.1.07-.16a3.85 3.85 0 0 0 0-.48.73.73 0 0 1 .12-.54l.13-.06c.1 0 .17-.1.11-.22a.89.89 0 0 1 -.08-.17.13.13 0 0 1 .06-.16.41.41 0 0 1 .53 0 3.85 3.85 0 0 0 .59.55 1 1 0 0 1 .28.74h.23a.63.63 0 0 0 .58-.11.5.5 0 0 1 .49-.08.34.34 0 0 0 .36-.05.28.28 0 0 0 .12-.36c0-.14-.1-.26-.16-.4-.25-.24-.58-.37-.83-.63a.26.26 0 0 0 -.16-.07.69.69 0 0 1 -.53-.28.63.63 0 0 0 -.78-.16 1.64 1.64 0 0 1 -1 .05 1 1 0 0 1 -.26-.12.19.19 0 0 1 0-.32.9.9 0 0 1 .57-.31.28.28 0 0 0 .28-.27 5.66 5.66 0 0 1 .15-.59.24.24 0 0 1 .25-.24.59.59 0 0 0 .45-.22c.13.11.1.25.15.36a1.33 1.33 0 0 0 .44.65 2.07 2.07 0 0 1 .46.55.85.85 0 0 0 .67.38 1.26 1.26 0 0 1 .91.46c.08.17 0 .35 0 .52s-.08.06-.15.05a.16.16 0 0 0 -.16.25c.1.21.3.32.46.48 0 .12-.13.06-.19.07a.21.21 0 0 0 -.21.16.35.35 0 0 1 -.4.27h-.33a.38.38 0 0 0 -.4.33 1.16 1.16 0 0 0 0 .8l.12.3v.17s-.09 0-.14 0a.76.76 0 0 0 -.66-.17h-.38l-.13.14a.13.13 0 0 0 0 .17c.11.14.16.36.42.29a.13.13 0 0 1 .14.1.16.16 0 0 1 -.06.17.91.91 0 0 1 -.19.13c-.15.1-.17.09-.31-.05a2.26 2.26 0 0 0 -.29-.25c-.19-.15-.19-.15-.4 0a.86.86 0 0 1 -.2.13.12.12 0 0 1 -.2-.05.5.5 0 0 0 -.44-.31.74.74 0 0 1 -.16-.07zm5.58 4.31a.15.15 0 0 1 -.13.13c-.34-.05-.59.18-.89.29s-.23.2-.13.38.11.15.15.24-.08.3-.19.25a.49.49 0 0 0 -.73.27c-.08.17-.28.18-.46.07a2.46 2.46 0 0 0 -.32-.19c-.18-.07-.21-.19-.1-.33a.64.64 0 0 1 .2-.2.32.32 0 0 1 .35 0c.22.1.28.08.34-.13s0-.15.06-.22 0-.11 0-.15c0-.28 0-.35.24-.42a1 1 0 0 0 .58-.38.17.17 0 0 1 .21-.07c.26.1.51.19.76.3a.15.15 0 0 1 .06.2zm.18-.68s0-.05 0-.07 0 .05 0 .07zm.2.52s-.06 0-.06 0 .1.03.1.04zm2.17-1a1.18 1.18 0 0 1 -1 .68.58.58 0 0 1 -.1-.08.14.14 0 0 1 -.03-.15l.78-.68a.18.18 0 0 1 .22 0 .21.21 0 0 1 .13.25zm.41 39.13a.2.2 0 0 1 .15-.25.21.21 0 0 1 .22.18.22.22 0 0 1 -.18.23.18.18 0 0 1 -.19-.14zm.46 3.42a.24.24 0 0 1 -.3-.1.2.2 0 0 1 .06-.25.16.16 0 0 1 .12 0 .46.46 0 0 1 .22.34c0-.02-.1 0-.1.01zm.14 2.9s0-.06 0-.08a0 0 0 0 1 .06 0s0 0 0 .08-.03 0-.06 0zm.55-3c-.15-.1-.36-.08-.46-.21a2.47 2.47 0 0 1 -.23-.46 1.37 1.37 0 0 0 -.16-.18s0-.06 0-.09 0-.06.06-.07.11 0 .14 0c.23.23.57.27.8.49s.27.09.4.15a.16.16 0 0 1 .05.24.41.41 0 0 1 -.6.13zm.8 1.84a.31.31 0 0 1 -.13 0l-.36-.07a.14.14 0 0 1 -.07-.06.13.13 0 0 1 0-.09 1.33 1.33 0 0 1 .19-.14.28.28 0 0 1 .41.25.1.1 0 0 1 -.04.07zm1.67-44.37c0 .2-.15.2-.3.13s-.3-.21-.46 0c0 0-.06 0-.06-.06a.48.48 0 0 1 .5-.52l.25.07c.36.04.36.06.07.34zm.61-.13a.24.24 0 0 1 -.08-.06s.05-.1.14-.08a.09.09 0 0 1 .07.05s-.06.05-.13.05zm3.81-7.81c.06.07.14.13.15.23a.16.16 0 0 1 -.08.16.17.17 0 0 1 -.14 0 .22.22 0 0 1 -.16-.21c0-.18.12-.2.23-.22zm-1.78 5.84a0 0 0 0 1 .05 0s0 0 0 .07a0 0 0 0 1 -.05-.07zm-1.6 2.08s0-.05 0-.07h.08s0 0 0 .06a.07.07 0 0 1 -.08.01zm1.86 39a.13.13 0 0 1 -.14-.14.1.1 0 0 1 .11-.11.15.15 0 0 1 .15.14c0 .08-.04.12-.12.12zm2.59-39.69c0 .29-.16.43-.44.46a2.1 2.1 0 0 1 -.66 0 1.84 1.84 0 0 1 -1.14-.55 2.59 2.59 0 0 0 -.37-.37c-.08-.07-.18-.1-.25 0a1.9 1.9 0 0 1 -.47.33 1.27 1.27 0 0 0 -.4.4c-.1.11-.14.21 0 .33a.08.08 0 0 1 0 .12.3.3 0 0 1 -.13 0 .28.28 0 0 1 -.2-.13l-.23-.3c-.12-.14-.13-.15 0-.3s.18-.3.32-.41a1.8 1.8 0 0 1 1.15-.5c.31-.21.66-.07 1-.06a1.41 1.41 0 0 0 .82-.16c.17-.09.32-.14.46.05s.26.08.41.08a.47.47 0 0 0 .35-.29v-.08a.25.25 0 0 1 -.13-.17s0 0 0-.08.06 0 .07 0v.21a.53.53 0 0 1 .44.29.44.44 0 0 1 .05.48c-.06.12-.13.24 0 .39s.09.21-.07.28-.4.07-.58-.01zm.7 39.47a.21.21 0 0 1 -.19-.17.17.17 0 0 1 .19-.17.14.14 0 0 1 .15.14.17.17 0 0 1 -.15.21zm.32-40.76a.08.08 0 0 1 -.12-.08s0-.09.09-.09.08 0 .09.07a.08.08 0 0 1 -.06.11zm4.48 36.25c.09 0 .17 0 .18.11a.1.1 0 0 1 -.1.13c-.08 0-.16 0-.18-.11s.03-.12.1-.12zm-1.79 2.79a.43.43 0 0 1 .21-.25s0 0 0 0l.06.07a.66.66 0 0 1 -.12.3.08.08 0 0 1 -.12 0 .13.13 0 0 1 -.03-.11zm-1.71-1.06a.49.49 0 0 1 .46-.19c.07 0 .14 0 .17.07s0 .13-.1.18l-.25.21c-.29.04-.33.01-.28-.26zm.15 1.9a.35.35 0 0 1 .2-.05.82.82 0 0 0 .45-.12c.1 0 .2 0 .24.16a.19.19 0 0 1 -.1.27 1.51 1.51 0 0 1 -.42 0 .71.71 0 0 0 -.66.28.27.27 0 0 1 -.21.1.23.23 0 0 1 -.17-.15.15.15 0 0 1 .08-.19 2.21 2.21 0 0 0 .59-.29zm.64-39.35a3.88 3.88 0 0 1 -.45.24.19.19 0 0 1 -.25-.07.19.19 0 0 1 .07-.28 2.69 2.69 0 0 0 .44-.26.2.2 0 0 1 .28.16.2.2 0 0 1 -.09.21zm3.74-.25a.14.14 0 0 1 .15.15s0 .08-.1.09a.14.14 0 0 1 -.14-.15c0-.03.04-.06.09-.07zm0 27.57a.17.17 0 0 1 .12.06 1.23 1.23 0 0 1 .12.26.2.2 0 0 1 -.08.21 1 1 0 0 1 -.53.19c-.07 0-.15-.07-.16-.15a.6.6 0 0 1 .5-.55zm-.78.39a.24.24 0 0 1 -.22.21.29.29 0 0 1 -.26-.28.26.26 0 0 1 .24-.24c.09.02.21.18.21.33zm-.55-23.95a.22.22 0 0 1 .23.19.24.24 0 0 1 -.17.25.21.21 0 0 1 -.25-.21.21.21 0 0 1 .16-.21zm-.85-1.45a.16.16 0 0 1 .19-.15.2.2 0 0 1 .17.19.18.18 0 1 1 -.36 0zm-.83 32.17a.15.15 0 0 1 -.12-.12c0-.1.11-.2.22-.2a.12.12 0 0 1 .11.13.19.19 0 0 1 -.25.19zm.35-3.58a.19.19 0 0 1 0-.38.2.2 0 0 1 .22.19.19.19 0 0 1 -.26.19zm2.08 0c.08.15 0 .23-.08.23a.73.73 0 0 1 -.52-.19.32.32 0 0 0 -.44-.13c-.18.08-.26 0-.32-.15-.12-.07-.25-.14-.36-.22a.18.18 0 0 1 .05-.33c.14-.05.28-.08.39 0a.53.53 0 0 0 .29.14.12.12 0 0 1 .19 0 .35.35 0 0 0 .19-.19s-.08-.06-.09-.06v-.06a.79.79 0 0 1 .16-.44.14.14 0 0 1 .25.05c0 .09 0 .17.14.22s.36.38.51.6a.21.21 0 0 1 -.07.32zm.69 3.85a.19.19 0 0 1 -.21-.14 1.06 1.06 0 0 1 0-.23 1.34 1.34 0 0 0 -.09-.65.51.51 0 0 1 0-.32.2.2 0 0 1 .12-.13.17.17 0 0 1 .18.05.78.78 0 0 1 .11.2 2.07 2.07 0 0 1 .08.42 3 3 0 0 0 0 .6c-.04.04-.13.14-.23.15zm1.22-33.1c-.07 0-.13 0-.13-.09a.09.09 0 0 1 .08-.1.13.13 0 0 1 .14.1.08.08 0 0 1 -.13.04z" fill="#45c2b1"/></svg>