<svg viewBox="0 0 62.76 69.87" xmlns="http://www.w3.org/2000/svg"><path d="m60.5 35.36a.15.15 0 0 0 0-.21.16.16 0 0 1 0-.17.29.29 0 0 0 0-.35c.1-.23-.1-.46 0-.68s-.07-.46.1-.66a.07.07 0 0 0 0-.11c-.11 0-.13-.13-.17-.21a1.48 1.48 0 0 1 -.09-.69 9.7 9.7 0 0 0 0-1.32.6.6 0 0 0 -.06-.27 1.17 1.17 0 0 1 -.1-1 4.4 4.4 0 0 0 .1-.88c0-.3 0-.63-.29-.85a.37.37 0 0 1 -.14-.28c0-.09.07-.13.12-.19s.11-.26 0-.34a.43.43 0 0 1 -.17-.4 1.37 1.37 0 0 0 -.2-.62 11.1 11.1 0 0 1 -.84-1.78s0-.1-.09-.1c-.25 0-.29-.2-.35-.36-.13-.32-.23-.65-.34-1a4.63 4.63 0 0 0 -.56-1.19l-.07-.11a.4.4 0 0 1 -.21-.36c-.37-.49-.73-1-1.11-1.46a1.42 1.42 0 0 1 -.42-.72 1 1 0 0 0 -.19-.37 8.47 8.47 0 0 0 -1-1.27c-.22-.22-.43-.46-.63-.69s-.18-.19-.18-.33a.69.69 0 0 0 -.24-.44l-.74-.79a2.09 2.09 0 0 1 -.24-.28 3.62 3.62 0 0 0 -1.14-1c-.25-.17-.54-.27-.65-.58 0 0-.05 0-.07-.06a6.74 6.74 0 0 0 -2.19-1.59.55.55 0 0 1 -.37-.33c0-.08-.12-.14-.19-.19l-.78-.61a12 12 0 0 0 -1.84-1.22l-3.16-1.53a3.57 3.57 0 0 0 -1.1-.37c-.28 0-.55-.1-.83-.12a1.05 1.05 0 0 1 -.54-.12c-.17-.12-.34 0-.49-.07a1.25 1.25 0 0 0 -.47.12.62.62 0 0 1 -.59 0l-.59-.29c-.12-.07-.22-.16-.38-.09s-.14-.06-.17-.13 0-.12-.11-.13-.08.08-.1.13a.17.17 0 0 1 -.15.09c-.17 0-.38-.07-.51.14 0 0-.07 0-.08 0s-.34-.08-.49-.16a.29.29 0 0 0 -.34 0 .38.38 0 0 1 -.47 0 1 1 0 0 0 -.46-.15c-.11 0-.26 0-.3.14a.09.09 0 0 1 -.14.07.74.74 0 0 0 -.49-.13.79.79 0 0 1 -.7-.07s-.12 0-.18 0-.14 0-.18 0a1.84 1.84 0 0 0 -.7-.07 1.94 1.94 0 0 0 -.72 0 .58.58 0 0 1 -.41-.08 1.11 1.11 0 0 0 -.55-.17c-.22 0-.46-.17-.68-.1s-.42-.14-.64-.17a.71.71 0 0 1 -.14 0 1.24 1.24 0 0 1 -.44-.04c-.17-.1-.34 0-.5-.08s-.33-.07-.5-.11a.13.13 0 0 0 -.09 0c-.15.12-.33.07-.49.09s-.47.12-.69 0c-.21 0-.43-.07-.63.09a.49.49 0 0 1 -.35.09c-.08 0-.12 0-.08-.12s.06-.08 0-.12a.15.15 0 0 0 -.13 0 3.51 3.51 0 0 1 -.68.32 1.81 1.81 0 0 1 -1.19.13h-.09a12.17 12.17 0 0 0 -1.32.34s-.06 0 0 .07.18.06.06.15a1.47 1.47 0 0 1 -.22.1 3.27 3.27 0 0 1 -1.14.38l-.18.05a20 20 0 0 0 -3 1.18 9.57 9.57 0 0 0 -1.48.79c-.4.29-.82.53-1.23.79l-.24.14a.29.29 0 0 0 -.13.19c-.08.33-.18.4-.51.35a.58.58 0 0 0 -.32 0 4.74 4.74 0 0 0 -.5.26 8.55 8.55 0 0 1 -1.07.59.69.69 0 0 0 -.22.16 4.66 4.66 0 0 1 -.65.61 1.56 1.56 0 0 0 -.54.63c0 .05 0 .09-.11.07-.27-.07-.4.13-.55.27-.46.43-.84.93-1.33 1.33a1.68 1.68 0 0 0 -.25.33l-.31.47a.1.1 0 0 1 -.11.06c-.14 0-.14 0-.15.15a.26.26 0 0 1 -.27.26c-.11 0-.19 0-.2.16s-.11.36-.34.37c-.06 0-.09 0-.08.08s0 .15 0 .19c-.2.24-.27.57-.57.72a.21.21 0 0 0 -.12.31.09.09 0 0 1 -.08.13c-.28 0-.45.18-.66.32a.84.84 0 0 0 -.42.71.48.48 0 0 1 0 .18c-.19.24-.23.55-.4.79a1.64 1.64 0 0 0 -.22.51c0 .19-.31.21-.4.38l-.49.81a.36.36 0 0 0 0 .18v.06a2.24 2.24 0 0 1 .51.46c0 .07.1 0 .16 0s.27-.07.25.11a1.58 1.58 0 0 0 .09.49c0 .16 0 .34.1.49s0 .15 0 .22 0 .14.06.16.16.18.12.31 0 .25-.12.35a.36.36 0 0 1 -.07.36.27.27 0 0 0 0 .21.12.12 0 0 1 0 .08c0 .13.17.11.27.14s.11.09.08.14a2.36 2.36 0 0 1 -.76.81c-.09.05-.16 0-.15-.14s.06-.22-.09-.27-.2 0-.27.19a.51.51 0 0 1 -.3.26c0 .12 0 .24-.21.26s-.11.1-.14.19a.24.24 0 0 1 .27.07c.12.12.27.22.45.08a.09.09 0 0 1 .14.06.76.76 0 0 0 .32.49c.22.18.24.34.11.64a.12.12 0 0 1 -.1.09.63.63 0 0 0 0 .58c0 .06 0 .11.07.17a.13.13 0 0 1 -.11.13h-.09c-.08 0-.18-.11-.23 0s0 .15.1.2.19 0 .14.18 0 .26-.21.27a.14.14 0 0 0 -.09 0c-.05.05 0 .09 0 .09s.17.11.1.19a1 1 0 0 0 -.19.74 1.22 1.22 0 0 1 0 .33.74.74 0 0 1 -.05.44v.05a.41.41 0 0 1 -.19.18v.21h.13c.39-.07.39-.07.32.33a2.61 2.61 0 0 1 -.06.27c0 .13-.06.14-.29.13-.06 0-.07.12-.09.19v.09a.88.88 0 0 0 .06.27c0 .07.21.07.15.19a.3.3 0 0 1 -.32.2h-.14v.09c.11.13.08.3.12.45.21.14.15.39.21.59a.3.3 0 0 1 -.11.25c-.14.05-.21.23-.39.22a.58.58 0 0 0 -.06.17c0 .09 0 .18.12.2l.4.08.62.4a.47.47 0 0 1 .22.24l.15.39c.11.28.1.29-.16.42a1.12 1.12 0 0 0 -.24.13.8.8 0 0 1 -.5.21.13.13 0 0 1 -.08 0 1.5 1.5 0 0 1 -.67.55.5.5 0 0 0 -.05.13 2.43 2.43 0 0 1 -.33 1.15.15.15 0 0 0 0 .13c.13.19-.06.32-.1.47a.2.2 0 0 1 -.22.14.58.58 0 0 0 -.44.11.29.29 0 0 1 -.17.06c-.2 0-.27.06-.32.24a.88.88 0 0 1 -.16.28.38.38 0 0 0 -.07.31 1.66 1.66 0 0 1 .12.8 1.56 1.56 0 0 0 0 .37.53.53 0 0 0 .57.42c.22 0 .34-.11.34-.34 0 0 .1-.06.11 0s.27.19.26.35.26.47.17.75a.11.11 0 0 0 .06.11c.12 0 .12.12.08.22.12.12.09.31.18.43a.39.39 0 0 1 .06.42 2.53 2.53 0 0 0 -.12.36c0 .08 0 .11.1.08s.13 0 .13.05 0 .22.12.27v.32s0 .08 0 .08a.35.35 0 0 1 .16.36c0 .14.08.26 0 .41s.09.26.06.41.07.07.11 0 .2 0 .27.14 0 0 0 .06a.54.54 0 0 1 0 .21c.05 0 .05.06 0 .09a.23.23 0 0 0 .08.11.38.38 0 0 1 .22.45.35.35 0 0 0 .07.3c.16-.09.16-.09.27.08a.34.34 0 0 1 .12.29.37.37 0 0 0 .27.4.51.51 0 0 1 .17.4c0 .14 0 .3.07.44s0 .07 0 .08 0 .06 0 .09.09.19.23.12.14-.06.19 0a1.88 1.88 0 0 0 .26.58c.08.16.07.18-.08.31a.45.45 0 0 0 -.16.22.45.45 0 0 0 .22.13c.12 0 0 .2.13.25h.08a.18.18 0 0 1 .11.1s0 0 0 .06a2.06 2.06 0 0 1 .2.59 1.07 1.07 0 0 1 .09.56.16.16 0 0 1 .05.17c-.07.17 0 .26.16.31a.12.12 0 0 1 .09.14s-.05.09 0 .11c.26.08.29.3.28.52s0 .13.09.14c.24 0 .34.2.44.38s.06.14.1.21.08 0 .09.07c.07 0 .19 0 .15.11a.24.24 0 0 0 .16.35 1.53 1.53 0 0 1 .27.17.33.33 0 0 1 .18.41h.15c.14 0 .28.09.31.26s.13.19.24.25.19.18.09.35 0 .22 0 .33l.28-.18s.14 0 .16 0c.11.2.2.4.3.6a.18.18 0 0 1 -.08.2c.07.15.06.33.2.45h.16a.33.33 0 0 1 -.07-.25c0-.05 0-.11.06-.11a.11.11 0 0 1 .12.1v.27a.24.24 0 0 1 0 .08.22.22 0 0 0 .09.1h.08l.1-.17-.09-.09.1.1.3.21a.19.19 0 0 1 .07.23h.22c.08 0 .14.06.05.16s-.1.18 0 .26.22.18.38.1a.16.16 0 0 1 .17.05s0 .08 0 .08-.12 0-.18 0a.18.18 0 0 0 -.16.15c.06 0 .15.08.19.13s.27.13.42.18.17-.24.12 0a.32.32 0 0 0 .13.36c.07.05.11.15.22.15a.25.25 0 0 0 .19-.12.06.06 0 0 1 .11 0s0 .06 0 .08-.09.11-.14.12-.09.1 0 .17.07.18.19.17a.24.24 0 0 1 .24.12c.06.1.14.1.24.06s.15 0 .2.13a.79.79 0 0 1 .43.31c.1.11.09.15-.06.34a.18.18 0 0 0 .2.07.38.38 0 0 1 .48.12 1.5 1.5 0 0 0 .25.19.77.77 0 0 0 .42.51c.34.18.64.42 1 .59s.95.53 1.42.79a.66.66 0 0 1 .3.12 1.06 1.06 0 0 1 .33.26c.07.12-.12.22-.05.35h.08a1 1 0 0 1 .4-.45.24.24 0 0 1 .19.11.59.59 0 0 1 .2.39c.17 0 .19.17.31.22a1.67 1.67 0 0 0 .31 0c.07-.06.19-.11 0-.2s-.17-.06 0-.13.19-.13.3-.06a.45.45 0 0 0 .32 0c.15 0 .22.09.24.23l.42.15s.1.07.07.1-.06.13 0 .11a1.54 1.54 0 0 0 .19-.08c.07 0 .12.07.11.18h.19v-.21a.29.29 0 0 1 0-.09c-.05-.15 0-.19.1-.19a.23.23 0 0 1 .19.09h.08c.27 0 .27 0 .26-.28 0 0 0-.1 0-.11a.12.12 0 0 1 .12 0 .93.93 0 0 1 .34.48.6.6 0 0 0 .09.15c.15-.09.16-.08.21.08.11 0 .21 0 .19.16a1.61 1.61 0 0 0 0 .22c.16-.12.29 0 .43.05v-.23h.19a.08.08 0 0 1 .14 0s0 0 0 .08 0 .24.17.23.11-.13.14-.21a.36.36 0 0 1 0-.09.13.13 0 0 1 .16 0c.14 0 .21.12.18.28s.06.29.23.34c0-.11 0-.25.05-.32s.11-.31 0-.46a.22.22 0 0 1 0-.3.76.76 0 0 1 .08-.11.5.5 0 0 0 .17-.5.16.16 0 0 1 .15-.2 1.14 1.14 0 0 0 .65-.18s.06 0 .09 0a.2.2 0 0 1 .17.2s0 0 0 .08a.39.39 0 0 1 .41.34 1.41 1.41 0 0 0 .06.22l.08.19a.27.27 0 0 1 -.1.37.86.86 0 0 0 .44.12c.17 0 .22-.08.25-.22v-.08a.41.41 0 0 1 0-.22.13.13 0 0 1 .05-.06.3.3 0 0 1 .34-.07.38.38 0 0 0 .46-.07.47.47 0 0 1 .12-.07 1.3 1.3 0 0 1 .51-.32.72.72 0 0 1 .54 0 .25.25 0 0 1 .48.59 1.67 1.67 0 0 0 .5.77l.31.07a.35.35 0 0 1 .26.18 1.41 1.41 0 0 0 .63.58v-.25c-.07 0-.14 0-.19-.07s0-.09 0-.12.07 0 .11 0a.26.26 0 0 1 .07.19c.08 0 .16.11.24 0s.21-.07.29.06.13 0 .2 0a1.62 1.62 0 0 1 .64-.49.16.16 0 0 1 .21.12.54.54 0 0 1 -.08.39c.08.1.16.15.27 0s.25-.18.48 0h.11s.23-.18.39-.07a.35.35 0 0 0 .39 0s.07 0 .07.09 0 .17.09.18.09-.07.12-.12a.48.48 0 0 1 .09-.11.07.07 0 0 1 .11 0c0 .07.08.2.2.13s.2 0 .24-.08.17-.13.25 0 .19 0 .29 0a.22.22 0 0 1 .2-.08s0 0 0 0h.19s0 0 .08 0a.72.72 0 0 1 .48-.07 6.45 6.45 0 0 1 .63-.16c.11 0 .23-.11.35 0s0 .2.09.3 0 0 0 0 .09.11.15.08a3 3 0 0 1 .78-.12.84.84 0 0 0 .61-.27.17.17 0 0 1 .28 0 .16.16 0 0 0 .17 0l.58-.15c.05-.1.1-.19.14-.29s.08-.19.25 0l.1.09a.84.84 0 0 0 .55-.22.16.16 0 0 1 .12 0c.12 0 .24 0 .27-.09s.22 0 .31-.12.06-.07 0-.12a.22.22 0 0 1 0-.18 3.2 3.2 0 0 1 .82-.82c.3-.17.61-.32.92-.47s.25-.08.29.16a.27.27 0 0 0 0 .09.26.26 0 0 0 .28.1c.08 0 .11-.12 0-.2s-.08-.1 0-.17a.2.2 0 0 1 0-.08s.06 0 .08 0 .16.15.17.27 0 .09.09 0 0-.07.05-.11v-.09a.12.12 0 0 1 .1-.11 1.17 1.17 0 0 0 .2-.06 1.7 1.7 0 0 1 -.15-.22s0-.11 0-.11a1.46 1.46 0 0 1 .34-.1c.09 0 .13.09.16.15s.18.09.28.1a.7.7 0 0 1 -.1-.16c0-.1-.07-.21 0-.29a.29.29 0 0 1 .34 0l.27.18a.1.1 0 0 1 .1-.06c.08 0 .07-.18.18-.21l.2-.2c.07-.09.12-.06.18 0s.14.05.19 0a2 2 0 0 1 .8-.59 2.61 2.61 0 0 0 .28-.17 1.91 1.91 0 0 1 .75-.47.28.28 0 0 0 .11-.08c.33-.38.74-.68 1-1.09a3.58 3.58 0 0 1 .87-.91 1 1 0 0 0 .22-.24.42.42 0 0 1 .35-.2.24.24 0 0 0 .21-.16c.1-.18.19-.36.28-.55a.68.68 0 0 1 .59-.4.34.34 0 0 0 .3-.18l.75-1.13c.06-.09.1-.23.19-.27s.3-.3.41-.49a2.32 2.32 0 0 1 .44-.6 6.68 6.68 0 0 0 1.23-1.47c.4-.6.77-1.22 1.14-1.84.27-.45.52-.93.77-1.39a2.7 2.7 0 0 1 .24-.44.82.82 0 0 0 .23-.69c-.05-.17.1-.27.06-.42s.15-.15.07-.28 0-.08 0-.12a1.13 1.13 0 0 0 .22-.79c0-.07 0-.17.05-.22s.16-.2.08-.36a.34.34 0 0 1 0-.35.43.43 0 0 0 .07-.44.41.41 0 0 1 .09-.43.2.2 0 0 0 0-.32.24.24 0 0 1 0-.27 4.72 4.72 0 0 0 .43-1.21 2.18 2.18 0 0 1 .19-.75.38.38 0 0 0 0-.28.87.87 0 0 1 0-.36c.07-.38.35-.7.28-1.12 0 0 0-.05 0-.07a.45.45 0 0 0 0-.52.29.29 0 0 1 0-.31.81.81 0 0 0 .1-.53.79.79 0 0 1 0-.37c.08-.14-.06-.33.09-.47-.09-.16 0-.36-.1-.52a.14.14 0 0 1 .06-.2.2.2 0 0 0 .07-.32.36.36 0 0 1 0-.47.52.52 0 0 0 .07-.48.24.24 0 0 1 .1-.29.18.18 0 0 0 0-.21 1.14 1.14 0 0 1 0-.81s0-.11 0-.13c-.14-.19-.06-.23.13-.24s.07-.15 0-.22.59.06.67-.04zm-57.38-3.66s0-.05-.05-.07.05 0 .06 0 .02.08-.01.07zm2.49 7.58h.09.15a.49.49 0 0 1 .16 0 .17.17 0 0 1 .06.11.23.23 0 0 1 -.35.21.58.58 0 0 1 -.15-.11.13.13 0 0 1 .04-.21zm.56 5c-.1 0-.22 0-.27.16a.46.46 0 0 1 -.58.27c-.17.5-.17.5-.69.59a.3.3 0 0 1 -.13 0 1.82 1.82 0 0 1 -1-.5.27.27 0 0 1 0-.18c0-.12-.11-.13-.2-.16-.37-.09-.51-.42-.68-.71a.13.13 0 0 1 .05-.16s.13-.06.17 0c.19.23.55.2.69.5 0 .05.11 0 .17 0l.17-.08c.2.07.37-.07.55-.1l.1.08a1 1 0 0 1 .52.17.42.42 0 0 0 .56-.1l.13-.06c.13-.09.23-.07.37.06l.1.09c.04.03.04.1-.03.13zm2.14-.28h-.08a.07.07 0 0 1 0-.11c.06-.07.1-.16.21-.15s.05.05 0 .07a.22.22 0 0 1 -.13.19zm.61-1.33c0-.15-.06-.3-.1-.45l-.1-.08c-.07 0-.13 0-.15-.06a2.64 2.64 0 0 0 -.14-.48.2.2 0 0 1 0-.22.56.56 0 0 1 .65-.22c.15.05.19.19.25.32a.47.47 0 0 1 .12.59c-.05.1 0 .24-.11.35.09.15 0 .26-.09.36a.24.24 0 0 1 -.33-.15zm1.43 5.64a1 1 0 0 0 -.55.46c-.07.15-.16.16-.34.08h-.09c-.38-.17-.39-.24-.06-.47.13-.09 0-.1 0-.15a.14.14 0 0 1 0-.17 2.42 2.42 0 0 0 .43-.36c.09-.1.23 0 .35 0s.22 0 .26.18l.06.32c.04-.03.04.03-.06.07zm1.26-9.19a.36.36 0 0 1 -.13.06.26.26 0 0 1 -.28-.29.48.48 0 0 1 .31-.38.21.21 0 0 1 .26.14.52.52 0 0 1 -.16.43zm1.62 3h-.09a.24.24 0 0 0 -.33.06c-.31.24-.4.24-.66 0a1.63 1.63 0 0 1 -.23-.29.19.19 0 0 1 0-.25.18.18 0 0 1 .22 0l.39.25a.13.13 0 0 0 .19-.13c0-.06 0-.12 0-.18a.15.15 0 0 1 .19-.18.66.66 0 0 1 .45.69s-.11-.09-.13-.03zm-.13-2.12a.21.21 0 0 1 -.26 0 .25.25 0 0 1 -.11-.29 1.49 1.49 0 0 1 .14-.24c.06-.09.11-.19.16-.28a.15.15 0 0 0 -.11-.18 1.92 1.92 0 0 0 -.24 0c-.33 0-.38 0-.48-.3 0-.11-.08-.21-.11-.31a.29.29 0 0 1 .21-.4c.1 0 .21 0 .24.08.08.3.4.39.55.63 0 0 .14.06.21.07a.24.24 0 0 1 .2.23.93.93 0 0 1 -.4.99zm27.62-6.45a.52.52 0 0 1 .38.08.55.55 0 0 1 0 .17.36.36 0 0 0 .27.39.27.27 0 0 1 .21.28.31.31 0 0 1 -.28.26.73.73 0 0 1 -.5-.07.33.33 0 0 1 -.18-.42.56.56 0 0 0 0-.36.29.29 0 0 1 0-.34zm-.49-16.91a.28.28 0 0 1 .37 0 .09.09 0 0 1 0 .12.42.42 0 0 1 -.13.07c-.1 0-.16 0-.2-.06a.12.12 0 0 1 -.04-.14zm0 .63c.19-.05.46.23.4.41s-.12.53-.45.59c-.14 0-.2.13-.27.24a.3.3 0 0 1 -.26.12s-.07 0-.1-.07a.15.15 0 0 1 0-.17c.06-.14.2-.19.31-.27s.1-.2 0-.24-.19 0-.26-.11-.06-.21 0-.24a4.4 4.4 0 0 1 .67-.27zm-.43 13.66a.77.77 0 0 1 -.62-.24.06.06 0 0 0 0 0s0-.07 0-.08a.64.64 0 0 1 .63.2s.08.1.03.11zm-1.13-14.39h.09c.26 0 .33-.05.38-.3 0-.06 0-.12 0-.19s.05-.24.19-.27a.3.3 0 0 1 .38.19.75.75 0 0 1 -.06.88.61.61 0 0 0 -.09.16c-.16.34-.48.37-.79.39a.2.2 0 0 1 -.21-.16c0-.15-.09-.3-.13-.45s.05-.25.24-.25zm-3.28 2.19a.52.52 0 0 0 .65.21 1.38 1.38 0 0 1 .83 0c.13 0 .2.14.26.25l.1.09h.18a.14.14 0 0 1 .19 0h.24c.29 0 .31 0 .4-.24a.46.46 0 0 1 .45-.34.42.42 0 0 1 .45.26 1.45 1.45 0 0 1 .11.26.2.2 0 0 1 -.06.22.81.81 0 0 0 -.39.65.12.12 0 0 1 -.19.08l-.19-.13c-.19-.12-.22-.12-.41 0 0 0-.09.13-.14.1-.23-.17-.4-.06-.56.09-.31-.1-.48.13-.71.26a.86.86 0 0 0 -.45.61.64.64 0 0 1 -.43.47 4 4 0 0 1 -.86.77.46.46 0 0 1 -.21.1.22.22 0 0 1 -.24-.11.21.21 0 0 1 0-.26 1.18 1.18 0 0 1 .35-.23l.28-.37a.69.69 0 0 0 -.32-.72.81.81 0 0 0 -.8-.43.75.75 0 0 1 -.66-.51.19.19 0 0 1 0-.18c.05-.06.12 0 .17 0a.59.59 0 0 0 .66 0 2.82 2.82 0 0 0 .47-.66.57.57 0 0 1 .34-.52c.27.05.32.04.49.28zm2.12 5.15a.62.62 0 0 0 .07-.58c0-.09 0-.18.12-.23a4.68 4.68 0 0 1 .48-.18c.12 0 .28.1.28.24a.16.16 0 0 1 -.05.08.38.38 0 0 1 -.18 0c-.2 0-.28.11-.35.26a.09.09 0 0 0 0 .12.08.08 0 0 0 .08 0c.09 0 .17-.09.26-.11a.38.38 0 0 1 .42.33.15.15 0 0 1 -.08.16.56.56 0 0 1 -.21.09c-.22 0-.43.06-.64.11a.21.21 0 0 1 -.26-.22.18.18 0 0 1 .06-.07zm-.33-1.59a.21.21 0 0 1 .16-.2.34.34 0 0 1 .41.41.21.21 0 0 1 -.2.16.45.45 0 0 1 -.37-.37zm1.14-.29a.3.3 0 0 1 -.23-.09c-.05-.05-.05-.17 0-.2a1.74 1.74 0 0 0 .55-.34c.07-.07.22 0 .24.13a.36.36 0 0 1 -.07.26.61.61 0 0 1 -.49.24zm-2.5.4c-.07.11-.15.2-.23.2s-.22-.11-.19-.2a.29.29 0 0 1 .2-.23.18.18 0 0 1 .21 0 .17.17 0 0 1 .01.26zm-4.56-6.4a1.62 1.62 0 0 1 .53-.38.82.82 0 0 0 .2-.12.19.19 0 0 0 0-.34 2.65 2.65 0 0 1 -.3-.11.22.22 0 0 1 -.12-.19.23.23 0 0 1 .14-.23c.1 0 .21-.06.31-.09s.21 0 .24-.13.11-.15.22-.06l.39.33a.32.32 0 0 1 .14.33.71.71 0 0 0 0 .41l.3.29a1.46 1.46 0 0 0 .52.32 2.76 2.76 0 0 1 .47.2 1.09 1.09 0 0 0 .49.13.52.52 0 0 1 .18 0 .13.13 0 0 1 .08.16.12.12 0 0 1 -.09.09c-.1 0-.2-.05-.28 0-.23.19-.42.23-.6-.07 0-.08-.16-.08-.26-.05s-.11.09-.06.13c.25.22.35.55.6.77a.08.08 0 0 1 0 .12.61.61 0 0 1 -.23 0 1.94 1.94 0 0 0 -1 .18.87.87 0 0 1 -.32.06.61.61 0 0 1 -.19 0c-.19 0-.35.18-.54.09a1.08 1.08 0 0 0 -.46-.21c-.09 0-.13-.14-.09-.23a.2.2 0 0 1 0-.08 1.54 1.54 0 0 0 .47-.84.26.26 0 0 1 .37-.07.26.26 0 0 0 .39-.12v-.18l.09-.1a.36.36 0 0 0 -.37-.29.6.6 0 0 1 -.37.27l-.27.1c-.23.12-.47.26-.51.56a.31.31 0 0 1 -.06.13.15.15 0 0 1 -.16.06s-.1-.06-.1-.09a.9.9 0 0 1 .25-.75zm1.38 7.86c0-.21 0-.36.07-.51a.21.21 0 0 1 .21-.15c.11 0 .19.09.19.19a3.47 3.47 0 0 1 -.11.61.22.22 0 0 1 -.26.15c-.1 0-.12-.13-.13-.23zm-2.11-3.06a.66.66 0 0 0 0-.37c0-.27.05-.31.34-.29s.26-.06.27-.23a.63.63 0 0 0 -.07-.36 2.21 2.21 0 0 1 -.16-.54c0-.18.07-.27.25-.23a.3.3 0 0 0 .33-.09.94.94 0 0 1 .55-.23.26.26 0 0 1 .31.16 1.88 1.88 0 0 0 .49.73.18.18 0 0 1 0 .26 1.74 1.74 0 0 0 -.33.5 1.94 1.94 0 0 1 -.49.5.43.43 0 0 1 -.43.09c-.12 0-.18 0-.19.13a.26.26 0 0 1 -.13.23.66.66 0 0 0 -.31.55.37.37 0 0 1 0 .14.12.12 0 0 1 -.2 0l-.21-.36a.53.53 0 0 1 -.02-.55zm.83.94a.09.09 0 0 1 -.1.08.1.1 0 0 1 -.09-.13.08.08 0 0 1 .09-.08.11.11 0 0 1 .1.17zm-.74 1.84a.07.07 0 0 1 -.09.07s0-.05 0-.07a.08.08 0 0 1 .1-.07s0 .09-.01.11zm-1-.71c.09 0 .11.09.12.17s-.05.15-.14.16a.18.18 0 0 1 -.18-.17c.04-.03.15-.14.23-.12zm-.62 3.29a.2.2 0 0 1 .2.2.22.22 0 0 1 -.22.19.2.2 0 0 1 -.2-.15.22.22 0 0 1 .22-.24zm-.45-.23a.24.24 0 0 1 -.21-.22.22.22 0 0 1 .2-.25.27.27 0 0 1 .25.23.26.26 0 0 1 -.2.24zm.18-5c-.05.08-.12.09-.26.07l-.3-.06a.3.3 0 0 1 -.18-.15.16.16 0 0 1 .12-.24 1 1 0 0 1 .53.14.21.21 0 0 1 .13.31zm-.95-3.13a5 5 0 0 1 .53-.11.19.19 0 0 1 .19.17.17.17 0 0 1 -.12.18 1.38 1.38 0 0 0 -.47.16h-.01a.24.24 0 0 1 -.19-.17.19.19 0 0 1 .11-.19zm-.18 1.38a.14.14 0 0 1 .17 0 .18.18 0 0 1 .15.16 2.48 2.48 0 0 1 0 .27v.23s0 0-.07 0 0 0 0 0a1.28 1.28 0 0 0 -.21-.46.14.14 0 0 1 0-.16zm-.41-.95a.23.23 0 0 1 .2.22c0 .14-.14.3-.24.3a.31.31 0 0 1 -.24-.25.32.32 0 0 1 .32-.23zm-.58-4.9a.1.1 0 0 1 .1.08c0 .09-.06.16-.13.15a.09.09 0 0 1 -.08-.1.14.14 0 0 1 .15-.09zm-1.56 2.86s0 0 0 0a.35.35 0 0 1 .36.15c0 .06-.07.16-.14.16s-.22-.16-.18-.27zm-5.72 1.48a1.39 1.39 0 0 1 .21-.11c.12-.07.17-.19.08-.26-.26-.22-.14-.44 0-.67a.51.51 0 0 1 .09-.16c0-.05.14 0 .16 0a.86.86 0 0 1 0 .59.39.39 0 0 0 .12.46c.16.17.12.29-.1.38l-.43.15a.21.21 0 0 1 -.18-.14.22.22 0 0 1 .09-.2zm0 4.06a.67.67 0 0 1 .09-.58.2.2 0 0 1 .29 0l.1.09c.07 0 .14-.07.15-.15a1.09 1.09 0 0 1 -.45-.4.39.39 0 0 0 -.08-.1c-.08-.07-.13-.13 0-.19 0-.06.13 0 .18-.09l.16-.1a.27.27 0 0 0 .14-.28c0-.07 0-.15-.05-.23-.08-.32 0-.43-.46-.44a.43.43 0 0 1 -.26-.09c-.29-.26-.25-.49.11-.67l.17-.08c.19-.14.19-.14.42 0a.68.68 0 0 1 .06.34l.1.1.44-.19a2.68 2.68 0 0 0 .18-.28 1.44 1.44 0 0 1 .63-.66c.07 0 .14-.08.2 0a.14.14 0 0 1 0 .21 1.11 1.11 0 0 0 -.24.5c0 .15 0 .18.16.17a.55.55 0 0 1 .18 0 .19.19 0 0 1 .18.18c0 .19-.12.3-.29.21s-.23 0-.31.07-.06.07-.1.09a.26.26 0 0 1 -.26.15h-.42a.24.24 0 0 0 -.24.11.41.41 0 0 0 0 .44.31.31 0 0 0 .31.15c.13 0 .25 0 .37-.06s.07 0 .07 0a.15.15 0 0 1 0 .13c-.08.15-.24.17-.39.2v.16a1.71 1.71 0 0 0 .54-.13c.14-.08.25 0 .26.15s0 .56.05.84a.27.27 0 0 1 -.12.24l-.5.41a2 2 0 0 0 -.13.25.35.35 0 0 1 -.27.23.34.34 0 0 0 -.22.15c-.11.13-.09.24.06.34s.17 0 .13.16a.31.31 0 0 1 -.2.23 1.07 1.07 0 0 1 -1-.38.31.31 0 0 1 0-.23.19.19 0 0 0 -.16-.15.11.11 0 0 1 -.1-.13.56.56 0 0 1 .17-.38c.06 0 .12-.08.19-.11s.2-.05.18-.16zm-.86 1.66c0-.18.11-.23.28-.22a.4.4 0 0 1 .37.15.16.16 0 0 1 -.08.26h-.18-.28a.14.14 0 0 1 -.09-.15zm-.85-.32c0-.06 0-.13.06-.16s.13 0 .17.09a.21.21 0 0 0 .26.05c.11-.11.11-.11.19 0v.19c0 .15-.09.17-.19.19a.48.48 0 0 1 -.18.38c-.13.2-.25.4-.39.59a.19.19 0 0 1 -.28.05.22.22 0 0 1 -.09-.29.53.53 0 0 1 .13-.16.91.91 0 0 0 .32-.7 1.79 1.79 0 0 0 .02-.19zm.58 2.64a.17.17 0 0 1 -.17.13 5.58 5.58 0 0 1 -.59-.1.2.2 0 0 1 -.16-.25.21.21 0 0 1 .26-.14 1.4 1.4 0 0 0 .41.06.48.48 0 0 1 .17.05.21.21 0 0 1 .1.29zm-1.16-1a.19.19 0 0 1 .17.19.15.15 0 0 1 -.13.15.16.16 0 0 1 -.16-.18.14.14 0 0 1 .14-.11zm-.04-2.71c0-.14.08-.27.19-.27s.16.09.17.18a.22.22 0 0 1 -.17.24.17.17 0 0 1 -.19-.15zm-.43-1.34.35-.11a.25.25 0 0 1 .37.13 1.49 1.49 0 0 1 .13.39.23.23 0 0 1 -.2.3.21.21 0 0 1 -.22-.17v-.09c.05-.06.07-.12 0-.17.07 0 .06.11 0 .17v-.17h-.16a.16.16 0 0 0 -.09.09.24.24 0 0 1 -.22 0 .17.17 0 0 1 .01-.35zm-.57 1.08c0-.08.05-.16.15-.15a.17.17 0 0 1 .14.2.17.17 0 0 1 -.18.13.16.16 0 0 1 -.11-.18zm.28.84c0 .05 0 .09-.09.08a.08.08 0 0 1 -.08-.09c0-.05 0-.1.07-.1s.1.05.1.11zm.26 35.67a1.18 1.18 0 0 0 -.31.62.27.27 0 0 1 -.24.2l-.45.07a.76.76 0 0 1 -.33 0 .14.14 0 0 1 -.05-.23.87.87 0 0 1 .31-.2c.25-.12.36-.35.22-.57s-.11-.61-.2-.91a.16.16 0 0 1 0-.09.22.22 0 0 1 .1-.09.14.14 0 0 1 .12 0 .94.94 0 0 1 .16.23.66.66 0 0 0 .42.41c.19.06.22.24.27.4a.14.14 0 0 1 -.02.16zm3.46-2.58c-.21 0-.43.1-.62 0-.32 0-.46-.18-.61-.39 0-.05 0-.12.07-.14a.48.48 0 0 1 .35.08.05.05 0 0 1 0 0s0 0 0 0h.09.06-.06a.88.88 0 0 1 .57.09l.11.08c.07 0 .14.08.14.17a.19.19 0 0 1 -.1.11zm.15-9.89a1.19 1.19 0 0 1 -.23-.16.45.45 0 0 0 -.35-.09h-.56c-.16 0-.27 0-.28-.2a.84.84 0 0 0 -.45-.67 1.66 1.66 0 0 1 -.26-.27.24.24 0 0 1 0-.34c.1-.12.22-.23.31-.35a2.38 2.38 0 0 0 .46-.82.38.38 0 0 1 .45-.36.56.56 0 0 0 .5-.17c0-.06.12 0 .17 0a1.35 1.35 0 0 1 .41.61.17.17 0 0 1 -.12.25.78.78 0 0 0 -.37.27.18.18 0 0 1 -.28 0c-.06-.06-.1-.13-.16-.18a.18.18 0 0 0 -.21 0 4 4 0 0 0 -.2.48.47.47 0 0 1 -.39.35c-.1 0-.12.09-.06.17a1 1 0 0 0 .11.15.19.19 0 0 0 .32 0l.19-.27a.16.16 0 0 1 .25 0s0 .05.06.07.15.16.35.07l.21-.11h.18a.23.23 0 0 1 .23.15.21.21 0 0 1 -.09.24.85.85 0 0 1 -.4.15c-.07 0-.16 0-.18.12s.06.17.14.22l.28.17a1.26 1.26 0 0 1 .22.24.2.2 0 0 1 0 .26.19.19 0 0 1 -.27.02zm.36 18.22c-.07 0-.13-.08-.12-.16s.07-.14.16-.13.11.06.1.16a.14.14 0 0 1 -.14.13zm1.22-18.6a.26.26 0 0 1 -.28.25c-.12 0-.18-.13-.16-.35s.05-.22.09-.35a.12.12 0 0 1 .15-.08.15.15 0 0 1 .11.08.65.65 0 0 1 .09.49zm.33 17.77a.16.16 0 0 1 -.12-.2.2.2 0 0 1 .3-.09.13.13 0 0 1 .05.11.25.25 0 0 1 -.23.22zm.36-20.55a.19.19 0 0 1 -.16.15h-.27s0 .08-.08.07 0 0 0 0h.07a.77.77 0 0 1 0-.54.41.41 0 0 1 .18-.21.16.16 0 0 1 .23.07.78.78 0 0 1 .03.5zm.58 23.27a.2.2 0 0 1 -.11 0s-.12 0-.13-.09a.1.1 0 0 1 0-.07.13.13 0 0 1 .16 0 1.17 1.17 0 0 1 .05.11zm2.11-3.89a.15.15 0 0 1 -.16.13.18.18 0 0 1 -.15-.21.16.16 0 0 1 .19-.15.19.19 0 0 1 .12.23zm-.57-9.86s0 0-.09-.06l.31-.19c.07-.05.13-.1.13-.19s.21-.34.37-.44l.27-.17c.11-.08.21-.06.24.06s.07.3.11.45.08.32-.16.39a2.07 2.07 0 0 1 -1.18.11zm1.77 10.68h-.12a.53.53 0 0 1 -.16 0 .34.34 0 0 1 -.14-.56s.05-.05.08-.05a.54.54 0 0 1 .5.2.25.25 0 0 1 -.16.37zm.35-19.26a.13.13 0 0 1 -.12-.11c0-.07 0-.14.09-.12a.12.12 0 0 1 .11.13.11.11 0 0 1 -.08.06zm1.34 19.51a.2.2 0 0 1 -.18-.17.18.18 0 0 1 .19-.2.19.19 0 0 1 .19.16.21.21 0 0 1 -.2.21zm.22-8.18a.59.59 0 0 1 -.29.5.19.19 0 0 1 -.28-.07.17.17 0 0 1 .06-.24 1.57 1.57 0 0 1 .51-.19.87.87 0 0 1 -.1-.19.18.18 0 0 1 .08-.2.17.17 0 0 1 .21 0 .2.2 0 0 1 0 .25.3.3 0 0 1 -.23.11zm.33 9.76a.39.39 0 0 1 -.27-.23.36.36 0 0 1 .23-.32.08.08 0 0 1 .08 0 .7.7 0 0 1 .13.39.17.17 0 0 1 -.2.16zm.9-4.74a.24.24 0 0 1 -.25.14c-.07 0-.12 0-.14-.09a.14.14 0 0 1 0-.16.3.3 0 0 1 .26-.06.11.11 0 0 1 .1.17zm.79.12a.45.45 0 0 1 -.3.2.13.13 0 0 1 -.12-.16.55.55 0 0 0 .1-.25.15.15 0 0 1 .15-.15c.07 0 .11 0 .14.11a.2.2 0 0 1 0 .22zm0-14.61c-.07 0-.14 0-.15-.13a.13.13 0 0 1 .08-.15c.07 0 .14 0 .15.14a.13.13 0 0 1 -.15.14zm.5 7.48a.33.33 0 0 1 -.37-.24c-.06-.13 0-.23.17-.2a.36.36 0 0 0 .3-.08l.18-.14c.08-.05.15 0 .21 0a.37.37 0 0 0 .49.36h.09s.08 0 .07.1a.14.14 0 0 1 -.06.07h-.26-.16a1.61 1.61 0 0 0 -.73.13zm-.28-8.9c-.09 0-.15-.09-.14-.2a.14.14 0 0 1 .15-.14.16.16 0 0 1 .14.2c-.01.14-.05.14-.15.14zm.85 1.63a.18.18 0 0 1 .19-.17.18.18 0 1 1 0 .35.16.16 0 0 1 -.19-.15zm.24 18.07c0 .06-.08.11-.15.09a.16.16 0 0 1 -.08-.1c0-.12 0-.25 0-.39s0-.11 0-.17 0-.16.08-.19.11.05.15.1a.65.65 0 0 1 0 .69zm.5-9.08-.32-.2c-.1-.05-.22 0-.35-.08.16-.17.28-.33.51-.36a.2.2 0 0 0 .19-.23c0-.17.15-.3.09-.49s.11-.17.19-.09a.85.85 0 0 0 .43.17.51.51 0 0 1 .28.15s.07.08.06.12a3.26 3.26 0 0 1 -.18 1 .22.22 0 0 1 -.19.12 1.31 1.31 0 0 0 -.28 0 .51.51 0 0 1 -.43-.08zm2.64 10c-.1.2-.29.19-.47.2s-.24 0-.33-.1a.26.26 0 0 0 -.34 0 .2.2 0 0 1 -.26 0l-.2-.12s-.08-.06-.06-.11a.11.11 0 0 1 .07-.06l.46-.09h.28c.36-.21.56.08.81.23v.13zm0-3.18c-.13.12-.33.09-.44.25s-.09 0-.13 0a.46.46 0 0 1 -.28-.23c-.07-.12-.15-.23-.23-.35s-.12-.12-.2-.08-.43-.07-.63.07a.1.1 0 0 1 -.09 0c-.09-.21-.26-.11-.4-.11s-.11-.05-.15-.1-.08-.11 0-.17a.58.58 0 0 0 .14-.17 1.34 1.34 0 0 1 .77-.63.28.28 0 0 1 .18 0 1.66 1.66 0 0 1 .41.23 1 1 0 0 0 1 .29.11.11 0 0 1 .13.09.5.5 0 0 1 -.1.31.2.2 0 0 0 0 .28c.23.17.2.22.04.36zm0-3.73a6.94 6.94 0 0 1 -1 .13h-.14c-.3 0-.3 0-.32-.31 0-.15 0-.31 0-.46s.12-.26.27-.33.3.08.45 0 .15 0 .22.06.2.08.3.14a.47.47 0 0 0 .35.06.66.66 0 0 1 .37 0 .18.18 0 0 1 .12.26.67.67 0 0 1 -.61.49zm.79-3.19s-.07.07-.12 0 0 0 0-.06 0-.21 0-.32c.12.16.21.26.13.42zm-.25-6.51a.1.1 0 0 1 -.1-.07c0-.08 0-.16.09-.18a.08.08 0 0 1 .09.07.14.14 0 0 1 -.07.22zm.15 13a.32.32 0 0 0 -.21-.36s0 0-.07-.06-.1-.19-.1-.28a.33.33 0 0 1 .32-.12c.25.05.48.14.52.4s.16.23.22.35a.16.16 0 0 1 -.1.25l-.32.09a.2.2 0 0 1 -.25-.21zm1.23 4.82a2.7 2.7 0 0 0 -.72.31c-.1.07-.26-.07-.24-.2a.41.41 0 0 1 .07-.17 1 1 0 0 1 .42-.28.42.42 0 0 1 .51.22s-.01.17-.03.18zm2.2-6.77s0 0 0 0a.11.11 0 0 1 -.13 0 .58.58 0 0 0 -.14 0c-.34.17-.44.06-.41-.31v-.1a.24.24 0 0 1 -.19-.27 2 2 0 0 1 -.13-.18c-.13-.28-.1-.35.18-.51a.89.89 0 0 0 .22-.16.39.39 0 0 1 .6.07c0 .06.08.14.13.19.26.31.15.59-.05.87v.18a.11.11 0 0 1 0 .12.23.23 0 0 1 0 .07zm-.87-10.06a.17.17 0 0 1 .12-.18.11.11 0 0 1 .13.1.15.15 0 0 1 -.16.18.12.12 0 0 1 -.09-.1zm1.39 15.1s-.06.06-.08.08a.23.23 0 0 1 -.19-.06c-.07-.12-.14-.24-.2-.36s0-.12.06-.17a.15.15 0 0 1 .17 0 .53.53 0 0 1 .24.51zm0-2.38a.26.26 0 0 1 0-.27.21.21 0 0 1 .18-.12.18.18 0 0 1 .16.15l.06.27-.18.06a.2.2 0 0 1 -.2-.09zm.18-16.12a.09.09 0 0 1 .1-.08.16.16 0 0 1 .13.17c0 .06 0 .08-.11.07a.14.14 0 0 1 -.1-.16zm.13 16.61c0-.1.06-.2.14-.18a.12.12 0 0 1 .1.13c0 .09 0 .16-.12.16a.12.12 0 0 1 -.1-.11zm.26 3.85h-.08a.05.05 0 0 1 0-.08s.07 0 .07 0 .03.02.03.08zm.19-21.33c-.22 0-.43.14-.64 0l-.56-.2h-.16a.25.25 0 0 1 0-.36v-.38s0-.06 0-.08l.27-.32a.59.59 0 0 1 .18-.14.17.17 0 0 1 .14 0 .17.17 0 0 1 .05.12.63.63 0 0 1 -.07.22c-.06.1-.14.2-.21.3l.19.2.39.25c.15 0 .15-.17.2-.29a.21.21 0 0 1 .35 0 1.59 1.59 0 0 1 .15.29.31.31 0 0 1 -.26.39zm.62 20.86s0 0 0 0zm-.2-22.19c-.22 0-.43-.06-.64-.09a.33.33 0 0 1 -.23-.14c-.09-.13-.06-.38.13-.41h.23c.11-.24.35-.24.56-.29.23-.12.27-.11.37.11v.17a1.84 1.84 0 0 0 .17.22.26.26 0 0 1 0 .3.26.26 0 0 1 -.27.14zm.49 22.11c-.06 0-.12 0-.12-.1s0-.08.08-.08.12 0 .12.1 0 .07-.08.08zm.11-20.23a.2.2 0 0 1 -.2-.14.19.19 0 0 1 .17-.23.19.19 0 0 1 .21.14.2.2 0 0 1 -.15.23zm.13-.68c-.1 0-.18-.08-.16-.18a.14.14 0 0 1 .15-.13.18.18 0 0 1 .16.18.13.13 0 0 1 -.12.13zm.75-6a1 1 0 0 1 -.12.44.63.63 0 0 1 -.51.42c-.42.12-.54.27-.54.68a.61.61 0 0 0 0 .14.36.36 0 0 1 -.3.48 1.34 1.34 0 0 1 .14.9.49.49 0 0 1 -.55.38.18.18 0 0 1 -.11-.14 2.62 2.62 0 0 1 0-.28.58.58 0 0 0 -.32.16.52.52 0 0 1 -.43.14c-.2 0-.4 0-.6 0a.4.4 0 0 0 -.47.4.31.31 0 0 0 0 .1.51.51 0 0 1 -.36.53s0 0-.06.07a.29.29 0 0 1 .19.28c.08 0 .17.07.25.12a.16.16 0 0 1 .09.14.14.14 0 0 1 -.13.11.55.55 0 0 1 -.4 0 .24.24 0 0 0 -.28 0c-.09.16-.26.21-.41.29s-.29.3-.11.52a.49.49 0 0 0 .18.14.31.31 0 0 1 .24.35.39.39 0 0 0 0 .18.19.19 0 0 1 -.08.24.17.17 0 0 1 -.25 0 .75.75 0 0 0 -.36-.22.55.55 0 0 1 -.29-.21.31.31 0 0 0 -.45 0 .43.43 0 0 0 -.1.09.48.48 0 0 1 -.55.16.14.14 0 0 1 -.08-.11.22.22 0 0 1 0-.16l-.19-.28h-.17l-.11-.07c-.05-.08-.1-.17-.05-.26a.79.79 0 0 1 .3-.33c.24-.12.5-.21.75-.31l.3.18a3.52 3.52 0 0 0 .64-.79c.05-.11.13-.23 0-.35a.27.27 0 0 0 -.33-.08.94.94 0 0 1 -.68 0 1.23 1.23 0 0 0 -.19 0 .35.35 0 0 0 -.36.13c-.17.19-.3.14-.45-.11l-.17-.11a.25.25 0 0 1 -.21-.16.39.39 0 0 0 -.08-.1c-.1-.08-.11-.23-.26-.26l-.1.27a1.83 1.83 0 0 1 -.13.24c-.12.14-.24.12-.35-.07 0 0 0-.06 0-.09a.75.75 0 0 1 -.44-.09.54.54 0 0 1 -.11.18v.07a.41.41 0 0 1 0 .59l-.08.18a1.12 1.12 0 0 1 -.06.44.21.21 0 0 1 0 .2 1.33 1.33 0 0 1 -.29.47.22.22 0 0 1 -.27 0 .8.8 0 0 1 -.19-.13c-.06 0-.11-.14-.18-.15a.65.65 0 0 1 -.53-.45.18.18 0 0 0 -.09-.1 1.91 1.91 0 0 1 -.58 0 .27.27 0 0 0 -.29.13.32.32 0 0 0 .06.32c.37.56.36.6-.2 1a1.6 1.6 0 0 1 -.84-.08 1.19 1.19 0 0 1 -.9-.81v-.08c-.32-.72-.63-.9-1.38-.78a1 1 0 0 0 -.25.06.66.66 0 0 1 -1-.42 2.53 2.53 0 0 1 -1.59.5.91.91 0 0 1 -.84-.9.34.34 0 0 1 .24-.32 2.74 2.74 0 0 1 .5-.07 1 1 0 0 0 -.38-.54.94.94 0 0 1 -.37-.74c0-.36-.17-.71-.19-1.09a.75.75 0 0 0 -.21-.52v.06a1.54 1.54 0 0 1 0 .37.37.37 0 0 1 -.18.26.2.2 0 0 1 -.32-.14.93.93 0 0 1 0-.18 1.52 1.52 0 0 0 -.07-.59h-.17a.94.94 0 0 1 -1.18-.61s-.09-.06-.14-.08a.49.49 0 0 1 -.2.31.12.12 0 0 1 0 .1.78.78 0 0 1 -.38.36.93.93 0 0 1 0 .13.29.29 0 0 1 -.24.2.22.22 0 0 1 -.22-.16 2.34 2.34 0 0 1 -.38.09.27.27 0 0 0 -.19.43.83.83 0 0 0 .3.29c.12.07.15.16.07.27a.36.36 0 0 0 0 .32.37.37 0 0 1 0 .18c0 .45-.31.63-.75.51-.06 0-.12-.05-.12-.12s-.08-.2-.2-.18a.73.73 0 0 1 -.55-.08.13.13 0 0 0 -.16.06.16.16 0 0 0 0 .17c.07.11.15.21.22.3l.29.13a.42.42 0 0 1 .25.45.19.19 0 0 1 0 .13c-.06 0-.12 0-.16-.05-.16-.24-.46-.21-.68-.34-.05 0-.14 0-.22.06-.06.17-.22.25-.34.37a.73.73 0 0 0 -.29.56.65.65 0 0 1 -.08.22.68.68 0 0 0 -.11.25c0 .32-.19.59-.22.91a.54.54 0 0 1 -.33.43l-.21.09a.1.1 0 0 0 0 .18c.23.17.38.41.6.59a.19.19 0 0 1 .05.13.15.15 0 0 1 -.05.12.17.17 0 0 1 -.12 0 .17.17 0 0 1 -.12-.06.82.82 0 0 0 -.93-.24c-.22.06-.35 0-.42-.25s0-.27.14-.3a1.34 1.34 0 0 0 .75-.59c0-.14-.06-.26.05-.38a2.44 2.44 0 0 0 .14-.28 2.88 2.88 0 0 0 -.32-.57.41.41 0 0 0 -.36-.19.69.69 0 0 0 -.37 0 .33.33 0 0 1 -.34-.08.26.26 0 0 1 -.05-.4c.05-.07.12-.12.1-.2a.32.32 0 0 0 -.12-.14.16.16 0 0 1 0-.21 1.52 1.52 0 0 1 .32-.45c.17-.13.27-.31.42-.43 0-.08-.09-.14-.18-.1a2.61 2.61 0 0 0 -.27.19.23.23 0 0 1 -.33 0c-.12-.16-.12-.33 0-.4s.36-.38.54-.57a.32.32 0 0 0 .09-.42c0-.07.05-.12.11-.1a1.54 1.54 0 0 1 .3.11c.19.1.21.15.1.33s-.06.07-.08.11a.39.39 0 0 0 0 .44c.07.16.21.28.25.45a1.93 1.93 0 0 0 .8-.2 2 2 0 0 1 .77-.16 1.16 1.16 0 0 0 .71-.28 2.82 2.82 0 0 1 .79-.56c.19-.07.21-.18.15-.38s-.08-.15-.07-.22c0-.29-.08-.44-.39-.4a.28.28 0 0 1 -.2-.12c-.15-.24-.31-.47-.45-.71a.29.29 0 0 1 .03-.4.63.63 0 0 0 .26-.47s0 0 0 0a1 1 0 0 0 -.25.21.87.87 0 0 0 -.21.37.57.57 0 0 1 -.57.52.76.76 0 0 0 -.31.13.35.35 0 0 1 -.46-.08.31.31 0 0 1 -.05-.46 1.4 1.4 0 0 0 .29-.7 1.11 1.11 0 0 1 .3-.6.57.57 0 0 0 0-.83.8.8 0 0 0 -.21-.15.91.91 0 0 1 -.44-1 .25.25 0 0 1 .18-.17.38.38 0 0 1 .3 0l.46-.42v-.32a1.07 1.07 0 0 1 .1-.22c.13-.11.28-.23.45-.16a1.44 1.44 0 0 1 .57.35c.29.4.52.85.78 1.27l-.26.59a5.88 5.88 0 0 0 1.61.93c.22.08.44.18.64 0a.51.51 0 0 0 .06-.64s0 0 0 0a3.82 3.82 0 0 1 -.23.51c0 .09-.19.07-.23 0a.44.44 0 0 1 -.05-.22 1 1 0 0 0 -.23-.83.36.36 0 0 1 0-.44 2.55 2.55 0 0 0 .2-.48.86.86 0 0 1 .1-.29.38.38 0 0 0 .08-.11.74.74 0 0 0 -.25-.25c-.4-.25-.35-.5.08-.84l.15-.34a.44.44 0 0 1 .24-.46.49.49 0 0 0 .17-.18c.11-.18.39-.25.39-.52l-.51-.13a2.46 2.46 0 0 1 -.48-.16c-.29-.17-.27-.41 0-.65a.44.44 0 0 1 .15-.08 1.5 1.5 0 0 1 0-.84.54.54 0 0 0 -.38-.28c-.34.35-.71.57-1.18.2l-.94-.27c-.19.12-.33.38-.58.31a2.4 2.4 0 0 1 -.93-.39.42.42 0 0 1 -.09-.48 1.69 1.69 0 0 1 .19-.38c.07-.13.21-.24.21-.37a1.21 1.21 0 0 1 .68-1.09c.19-.1.17-.35.24-.53a.31.31 0 0 1 .54-.12.85.85 0 0 0 .75.32 1 1 0 0 0 .53-.26c.54-.51.65-.61 1-.74-.15-.25-.1-.36.18-.46a.47.47 0 0 1 .17 0 1.65 1.65 0 0 1 .08-.6c.08-.16.23-.14.38-.13l.39-.27a.16.16 0 0 1 .09 0 .21.21 0 0 0 -.08-.12 2.22 2.22 0 0 0 -.38-.18.94.94 0 0 1 -.31-.49c-.15-.28-.21-.3-.55-.22l-.32.09a.11.11 0 0 1 -.08 0c-.12-.18 0-.33.08-.47.27-.5.44-.56.92-.22a.59.59 0 0 0 .62.1 1.51 1.51 0 0 1 .41-.09.44.44 0 0 1 -.21-.18l-.17-.2.36-.27c.1-.13.24-.24.15-.44 0 0 0-.12.07-.16a.33.33 0 0 0 .06-.27c0-.07 0-.1 0-.12a.24.24 0 0 1 .14-.14.85.85 0 0 1 .23 0c.08 0 .15 0 .15-.14s-.07-.13-.15-.15h-.18l-.41.11a.15.15 0 0 1 -.17-.2 2.12 2.12 0 0 1 .12-.2c.11-.16.11-.16 0-.3a.81.81 0 0 1 -.14-.12c-.32-.48-.29-.53.14-.82.16-.11.25-.08.34.09a1.71 1.71 0 0 0 .22.45c.1.09.17.05.22-.05a.43.43 0 0 1 .05.35c0 .1 0 .2-.05.31a1.45 1.45 0 0 0 .26.11.53.53 0 0 1 .44.42.27.27 0 0 0 .37.2.57.57 0 0 1 .67.19l.14.13a.27.27 0 0 1 0 .37 1.84 1.84 0 0 0 -.09.25c0 .07 0 .11.1.11s.27-.13.43-.07a.27.27 0 0 0 0-.3 1.65 1.65 0 0 0 0-.32c0-.09-.07-.19 0-.26a.48.48 0 0 1 .31-.07.24.24 0 0 0 .37 0 .12.12 0 0 1 .17 0s.06.1 0 .12c-.14.17-.08.35 0 .53s0 .06 0 .09a.64.64 0 0 1 -.38.46.62.62 0 0 1 -.38-.07h.06l-.13.1a.16.16 0 0 0 -.1.08.73.73 0 0 1 -.32.26.48.48 0 0 0 -.24.38 4 4 0 0 1 -.2.91.77.77 0 0 0 .58.6h.16a.4.4 0 0 1 .26-.36 1.34 1.34 0 0 0 .31-.27.43.43 0 0 1 .42-.15.42.42 0 0 0 .48-.18 1.49 1.49 0 0 1 .12-.14.24.24 0 0 1 .16-.07c.08 0 .13.06.17.13a.41.41 0 0 1 .05.18.41.41 0 0 0 .15.37.43.43 0 0 1 .15.28l.09.79a.28.28 0 0 1 -.21.38c-.06 0-.1.06-.16.09a.45.45 0 0 1 -.35.38v.18l.38.3c.73 0 .73 0 1 .64 0 .07.05.15.07.23l.17.14.84-.11a2.64 2.64 0 0 0 -.37-.94.17.17 0 0 1 0-.15.25.25 0 0 1 .15-.05.31.31 0 0 1 .14.09c.13.11.25.24.45.17a.57.57 0 0 0 .37-.44c0-.25 0-.51.05-.76a.22.22 0 0 1 .19-.24.73.73 0 0 1 .24.07s0 0 .06.06c.35.37.35.37.79.14v-.34a1.1 1.1 0 0 0 -.47-.29.24.24 0 0 1 -.17-.32v-.26a.38.38 0 0 1 .22-.34c.19-.08.32 0 .44.17 0 .51.41.63.8.76a.89.89 0 0 0 .7 0c.17-.39.26-.48.61-.35a.14.14 0 0 1 0-.06.35.35 0 0 1 0-.08c.08-.18.07-.21-.06-.32l-.15-.12-.06-.07a1.35 1.35 0 0 1 .12-.76.25.25 0 0 1 .37.05 1.36 1.36 0 0 1 .13.3c0 .07 0 .15.07.22a.16.16 0 0 0 .26.09c.11-.06.2-.15.31-.21s.37 0 .39.23v.14a.17.17 0 0 0 .16.19.53.53 0 0 1 .18 0 .14.14 0 0 1 .07.11.26.26 0 0 1 -.09.09s-.06 0-.1 0-.24-.09-.34 0a.39.39 0 0 0 -.01.34 1.1 1.1 0 0 1 0 .18.18.18 0 0 1 -.26.17 1.06 1.06 0 0 1 -.2-.12l-.19-.12a.87.87 0 0 1 .14.81c.19.28 0 .54-.05.82 0 .12-.16.14-.28.13s-.36-.19-.58-.12a1.7 1.7 0 0 1 -.49 1.48c-.1.17-.2.34-.31.5s-.27.24-.5.13l-.53-.27h-.08a2.5 2.5 0 0 1 -1.79.34.52.52 0 0 0 -.17 0s0 0-.06 0 .1.17.19.23a.41.41 0 0 1 .17.37.38.38 0 0 1 -.51.39 1.88 1.88 0 0 0 -.89-.26 1.22 1.22 0 0 0 -.5.27l.46.21c.17.07.31.17.3.37s-.17.34-.38.39a2.62 2.62 0 0 0 -.4.11c-.13.06-.11.18-.08.29l.37.33a1 1 0 0 1 .64.53 1.13 1.13 0 0 0 1.32.55 2.79 2.79 0 0 0 .66-.18c.52-.23 1-.56 1.51-.79a1.44 1.44 0 0 0 .64-.88.35.35 0 0 1 .49-.21c.25.14.55.25.44.64a.65.65 0 0 0 .09.57 4 4 0 0 0 .26.32.07.07 0 0 1 0 0 1.84 1.84 0 0 1 .06-.18.14.14 0 0 1 .1-.07 2.2 2.2 0 0 1 .37.06.25.25 0 0 1 .14.34.84.84 0 0 0 -.14.48.91.91 0 0 1 .07.14 3.34 3.34 0 0 1 0 1.18 1 1 0 0 0 0 .42h.13a.4.4 0 0 1 .29.34.28.28 0 0 1 0 .09.41.41 0 0 0 .55.02c.15-.13.29-.28.43-.42 0-.07.07-.15.11-.23.26-.42.45-.47.81-.15a.9.9 0 0 0 .58.31c0 .05.09.08.11.13.15.36.13.55-.09.67a.47.47 0 0 1 -.58 0l-.12-.13a.59.59 0 0 1 -.06-.16 2.48 2.48 0 0 1 -.19.26v.08a1.72 1.72 0 0 0 .36.53c0 .05.07.11 0 .17s-.08 0-.12 0-.2-.06-.25.07a.5.5 0 0 1 -.5.41c-.13 0-.17.11-.19.22l.09.1c.17.21.24.5.47.67.06.27.21.54 0 .81l.07.3a.28.28 0 0 1 .11.08.26.26 0 0 1 .06.21.48.48 0 0 0 0 .26h.19c.1 0 .16.08.11.15a.8.8 0 0 0 -.18.47.16.16 0 0 1 -.28.09l-.24-.23h-.05a.65.65 0 0 1 -.49.32c0 .07-.07.14 0 .2h.09a.73.73 0 0 1 .47.52c0 .05.06.11.08.16h.14a.69.69 0 0 0 .57.18c.18 0 .31.12.42.26a.21.21 0 0 0 -.05-.25l-.24-.22a.25.25 0 0 1 -.18-.2.13.13 0 0 0 0-.06l.08-.31a1.68 1.68 0 0 1 0-.5c0-.08 0-.16.12-.18s.14 0 .19.11a.83.83 0 0 0 .08.12.78.78 0 0 1 .1.15.43.43 0 0 0 .42.3c.19 0 .26.1.25.23a.65.65 0 0 1 -.07.23l-.12.09c-.28.22-.28.25 0 .48a.21.21 0 0 0 .32 0 2.16 2.16 0 0 0 .33-.27c.22-.29.51-.24.8-.17.11 0 .19.13.31.07a2.33 2.33 0 0 0 -.05-.28c0-.12 0-.17.12-.2s.05-.07 0-.11 0 0-.07-.06c-.32-.21-.35-.23-.25-.55a.33.33 0 0 0 -.17-.43.61.61 0 0 1 -.34-.57v-.07s0 0 0-.05l-.08-.12-.08-.2-.58.19a.14.14 0 0 1 -.17 0 .15.15 0 0 1 0-.21l.12-.14a.5.5 0 0 0 .15-.43.86.86 0 0 1 .39-.88c.06-.16.19-.29.09-.48-.07 0-.16 0-.2-.05a.15.15 0 0 1 0-.17.86.86 0 0 1 .13-.14 1.52 1.52 0 0 0 .49-.42.36.36 0 0 1 .29-.14c.28 0 .41.17.28.42a1.7 1.7 0 0 0 -.26.69.23.23 0 0 1 .09.29c-.07.15 0 .23.13.29a.5.5 0 0 1 .34.55l.09.1s0 .06 0 .09a.18.18 0 0 1 .09.08.56.56 0 0 0 .38.15.54.54 0 0 1 .39.13.16.16 0 0 1 .07.16.21.21 0 0 1 -.12.14h-.08c-.11 0-.24-.06-.3.07s.08.16.11.24 0 .27-.05.41a.16.16 0 0 0 .05.17.19.19 0 0 0 .18 0c.33-.16.35-.15.5.19zm-10.78-13.93a.18.18 0 0 1 .18-.21.12.12 0 0 1 .13.1c0 .1-.05.2-.18.21s-.11-.02-.13-.1zm6.79 10.84a.16.16 0 0 1 -.15-.15c0-.08 0-.16.12-.17s.13.06.14.15-.06.17-.11.17zm-.18 1.76a.11.11 0 0 1 -.1-.16.65.65 0 0 1 .15-.18s.12 0 .15.06a.19.19 0 0 1 -.23.28zm5.18 5.48a.24.24 0 0 1 -.41.18 1.33 1.33 0 0 1 -.19-.14.2.2 0 0 1 -.08-.2.23.23 0 0 1 .17-.15h.16.12a.25.25 0 0 1 .23.31zm.7 4.37c-.06 0-.08 0-.09-.07a.09.09 0 0 1 0-.11.09.09 0 0 1 0 .18zm.51-9.84c0-.12.15-.22.22-.17s.06.1 0 .16-.1.18-.18.16a.13.13 0 0 1 -.02-.15zm-.29 6.84c.08 0 .15.08.15.18a.18.18 0 0 1 -.16.19c-.09 0-.16-.07-.15-.19s.06-.17.18-.18zm.64 4.55a.14.14 0 0 1 -.19.09l-.37-.14a.23.23 0 0 1 -.14-.18c0-.16.15-.29.25-.24a1.64 1.64 0 0 0 .48.18c.02.01.04.18-.01.29zm.09-10.67a.18.18 0 0 1 -.19.16.17.17 0 0 1 -.16-.16.16.16 0 0 1 .17-.17.17.17 0 0 1 .18.17zm12.06 4.5c.08 0 .15 0 .15.15a.15.15 0 0 1 -.16.13c-.09 0-.15-.06-.15-.15a.13.13 0 0 1 .16-.13zm-.4 3.35c0-.09.07-.18.19-.17s.17.11.15.25v.13c0 .07 0 .16-.13.15a.26.26 0 0 1 -.18-.14.24.24 0 0 1 -.03-.22zm-.42.55a.16.16 0 0 1 -.17.12.18.18 0 0 1 -.13-.21.14.14 0 0 1 .16-.12.18.18 0 0 1 .14.21zm-.4-.91a.35.35 0 0 1 .34.27.15.15 0 0 1 -.13.2.32.32 0 0 1 -.38-.31.14.14 0 0 1 .17-.16zm-1.23-3a.11.11 0 0 1 .12.11.09.09 0 0 1 -.1.11.12.12 0 0 1 -.13-.11c.01-.07.05-.11.11-.11zm-3.68.08a.39.39 0 0 1 .47 0 4.15 4.15 0 0 1 .32.27 1.35 1.35 0 0 0 .26.47l.09.12a.83.83 0 0 1 .09.16c.06.19.16.3.38.26h.09c.13 0 .23.1.19.21a1.06 1.06 0 0 0 0 .68c-.39.07-.39.07-.6.38a.35.35 0 0 1 -.37-.13.94.94 0 0 1 -.17-1v-.28a.31.31 0 0 1 -.09-.18l-.38-.36v.27a.18.18 0 0 1 -.14.17.16.16 0 0 1 -.21 0 .18.18 0 0 1 0-.21l.11-.15a.71.71 0 0 0 0-.14l-.1-.09a.27.27 0 0 1 .06-.45zm-.73 1c.13-.1.23-.07.37.13a.87.87 0 0 0 .16.56.5.5 0 0 1 0 .57.39.39 0 0 1 -.1.08.11.11 0 0 1 -.12.05h-.07a.15.15 0 0 0 -.1-.09s0-.07-.08-.11a.25.25 0 0 1 -.11-.17h-.19c-.11 0-.18-.06-.17-.17a1.07 1.07 0 0 1 .41-.86zm-1.6-2.76a.2.2 0 0 1 .16.19.24.24 0 0 1 -.26.21.22.22 0 0 1 -.15-.21.23.23 0 0 1 .25-.2zm-.88 3.11c.08-.15.25-.23.33-.11s.37.05.32.24-.25 0-.38.09a.26.26 0 0 1 -.11 0 .17.17 0 0 1 -.16-.23zm-2.37-5.2a.2.2 0 0 1 .18-.19.2.2 0 0 1 .22.19.2.2 0 1 1 -.4 0zm.65 10.28a1.07 1.07 0 0 0 -.47-.25c-.09 0-.1-.14 0-.32l.28-.38a.59.59 0 0 0 0-.08c.06-.09.13-.19 0-.24a.24.24 0 0 1 -.11-.09s0-.11 0-.11c.28 0 .56 0 .7.34.09.13.24.12.36.18a.14.14 0 0 1 .08.1.12.12 0 0 1 -.1.14c-.24.06-.24.06-.2.32a.52.52 0 0 1 .05.27c0 .1-.09.18-.19.18a.6.6 0 0 1 -.4-.06zm1 4.6c-.06 0-.1 0-.09-.09a.12.12 0 0 1 .13-.11s.08 0 .08.1-.04.06-.1.07zm.94-2.06c-.18 0-.26-.2-.41-.29v.18a.14.14 0 0 1 0 .13.36.36 0 0 1 0 .07c-.1.06-.2.11-.3 0a.23.23 0 0 1 0-.33.45.45 0 0 1 .37-.1c0-.17 0-.33 0-.5s0-.16-.06-.2a.23.23 0 0 0 -.22 0l-.21.17a.18.18 0 0 1 -.06.14.07.07 0 0 1 0 0 .31.31 0 0 1 -.42-.06c-.11-.12-.13-.17 0-.31a.68.68 0 0 0 .18-.26.14.14 0 0 1 .09-.11s0-.05 0 0c.16 0 .35 0 .36-.28 0-.09.09-.13.17-.13s.14.06.17.14a1.48 1.48 0 0 0 .17.33 3.09 3.09 0 0 1 .36 1.15c.01.18-.09.24-.17.23zm.33 1.46c-.1 0-.19-.09-.18-.17a.16.16 0 0 1 .19-.14.18.18 0 0 1 .16.19.18.18 0 0 1 -.17.12zm2.93 1.18-.31.28a.53.53 0 0 1 -.14.06.22.22 0 0 1 -.19-.07.15.15 0 0 1 0-.18c.12-.14.24-.28.37-.41a.19.19 0 0 1 .29 0 .23.23 0 0 1 -.02.3zm.53-.52a4.1 4.1 0 0 0 -.53-.16c-.09 0-.13-.13-.12-.23a.21.21 0 0 1 .23-.18c.18 0 .35.11.53.15s.12.13.12.23a.2.2 0 0 1 -.23.17zm.72 4.21a.09.09 0 0 1 -.12 0 .16.16 0 0 1 -.07-.11.38.38 0 0 1 .2-.29.2.2 0 0 1 .06.07.68.68 0 0 1 -.07.31zm1.09-3.1a.23.23 0 0 1 0-.45.21.21 0 0 1 .18.19.23.23 0 0 1 -.18.24zm1.92-3.43a.12.12 0 0 1 -.11-.14.1.1 0 0 1 .1-.12.14.14 0 0 1 .16.11.12.12 0 0 1 -.15.13zm.31 1.41a.16.16 0 0 1 -.14-.19.13.13 0 0 1 .15-.13.17.17 0 0 1 .14.19c-.01.07-.06.12-.15.11zm.88-.45a.09.09 0 0 1 -.08-.09.08.08 0 0 1 .09-.09.07.07 0 0 1 .08.08.13.13 0 0 1 -.09.08zm.46-2.79a1.07 1.07 0 0 0 -.87.62c-.14.2-.14.21-.35.09s-.28-.08-.38 0a.4.4 0 0 1 -.5.13.43.43 0 0 0 -.19 0 .54.54 0 0 1 -.53-.3.08.08 0 0 0 -.12 0 .19.19 0 0 0 -.08.11c0 .08 0 .15.05.23a.18.18 0 0 1 0 .21c0 .08-.12.08-.19.08-.23 0-.34-.2-.51-.29 0-.08-.09-.17-.14-.24a.14.14 0 0 0 -.24 0 .31.31 0 0 0 -.09.38 1.44 1.44 0 0 1 .1.5.26.26 0 0 1 -.16.3c-.08 0-.14.08-.08.17a.2.2 0 0 1 -.07.32l-.28.17-.07.19c.33 0 .44.16.42.48a.29.29 0 0 1 -.44.28.63.63 0 0 0 -.36 0 .19.19 0 0 1 -.22-.22.83.83 0 0 1 .08-.22c.06-.2 0-.35-.24-.35s-.28 0-.42 0l-.36.2a.83.83 0 0 1 -.27.07.18.18 0 0 1 -.19-.1.2.2 0 0 1 0-.17 1.55 1.55 0 0 0 .46-.67c0-.16.23-.14.33-.23a.69.69 0 0 0 -.05-.13.67.67 0 0 1 -.14-.78c0-.09-.06-.17-.13-.12a.45.45 0 0 1 -.53 0 .58.58 0 0 0 -.37 0 1.23 1.23 0 0 1 -.23.4c-.11.12-.29.13-.34 0s-.19-.24-.38-.18-.15-.08-.12-.16a.08.08 0 0 0 0 0c.14-.3.14-.3-.12-.44a.47.47 0 0 1 -.12-.07.13.13 0 0 1 0-.2l.18-.15c0-.09 0-.18-.14-.21s-.16 0-.23-.06a.2.2 0 0 1 -.11-.27 3.61 3.61 0 0 0 .28-.68.89.89 0 0 1 .14-.25.2.2 0 0 1 .35 0c.07.07.09.19.23.11s.08 0 .11.08a.52.52 0 0 1 .12.34.14.14 0 0 0 .09 0 .39.39 0 0 0 .1-.08c.21-.09.19-.32.28-.47a.43.43 0 0 1 .2-.18c.18-.08.33-.17.35-.39a.25.25 0 0 1 .11-.14l.54-.35c.14-.15.36-.24.37-.5 0-.06.08-.08.14-.1l.26-.08a.53.53 0 0 1 .29-.28c.28-.14.39-.09.47.21a3 3 0 0 0 .27.83c.09.15 0 .27-.13.26a.48.48 0 0 0 -.5.26.68.68 0 0 1 -.44.45.58.58 0 0 0 -.34.36.38.38 0 0 1 -.36.31.19.19 0 0 0 -.08.1.3.3 0 0 0 0 .08c0 .21.29.3.31.49a5 5 0 0 0 0 .55l.09.1s0 0 .06 0a.13.13 0 0 1 .19 0c.23-.06.39-.25.65-.26a.54.54 0 0 0 .43-.65 2 2 0 0 1 0-.42c0-.27 0-.49.33-.58s.17-.18.19-.31l.09-.09c.05-.06.14 0 .19-.1l.09-.09.1-.1a.12.12 0 0 1 .08 0s.08 0 .1.11v.46a1.53 1.53 0 0 1 .45.62.53.53 0 0 0 .58.41.29.29 0 0 1 .23 0 .17.17 0 0 1 .14.09.11.11 0 0 0 .15.07c.14 0 .25 0 .29.15s.08.12.17.12a.77.77 0 0 0 .36-.09.87.87 0 0 1 .55-.08.22.22 0 0 1 .18.19.21.21 0 0 1 -.11.13zm.23.56a.17.17 0 0 1 -.14-.15.14.14 0 0 1 .14-.15.15.15 0 0 1 .16.13.15.15 0 0 1 -.15.15zm.38-3.37c-.06 0-.12 0-.11-.11a.11.11 0 0 1 .12-.11.1.1 0 0 1 .12.1.14.14 0 0 1 -.13.1z" fill="#fd0"/></svg>